<svg width="175" height="211" viewBox="0 0 175 211" fill="none" xmlns="http://www.w3.org/2000/svg">
<path d="M78.0128 102.607C72.2108 103.903 66.5907 105.953 60.7567 107.097C44.9487 110.199 27.8847 106.199 15.1017 96.395C14.2507 95.742 13.3247 94.816 13.5757 93.773C13.7267 93.148 14.2668 92.705 14.7808 92.317C26.5928 83.391 41.4187 78.058 56.1877 79.092C66.5477 79.817 76.6067 83.78 84.8337 90.09C86.7627 91.569 95.8787 98.4 94.9977 101.121C94.3827 103.021 88.8777 101.452 87.3477 101.452C84.2067 101.452 81.0728 101.924 78.0128 102.607Z" fill="#CEBBB6"/>
<path d="M114.45 78.473C117.572 98.355 124.862 117.307 132.105 136.084C127.519 125.154 126.976 112.96 127.541 101.121C128.105 89.281 129.71 77.459 129.168 65.619C128.861 58.921 127.865 52.274 126.5 45.715C125.815 42.425 125.034 39.156 124.201 35.901C123.558 33.387 123.224 28.926 121.457 26.931C118.982 24.136 118.375 27.568 117.591 29.86C116.573 32.833 115.737 35.868 115.069 38.938C113.724 45.119 113.063 51.441 112.954 57.763C112.832 64.692 113.375 71.628 114.45 78.473Z" fill="#CEBBB6"/>
<path d="M119.62 119.994C110.13 106.447 104.641 90.565 99.4298 74.867C94.2188 59.168 89.0768 43.219 80.1488 29.295C71.2208 15.371 57.8808 3.459 41.7058 0C47.6238 24.108 60.5938 45.939 75.5108 65.781C90.4278 85.623 107.407 103.827 122.73 123.358" fill="#CEBBB6"/>
<path d="M139.563 123.571C147.208 112.408 155.419 101.588 161.959 89.744C168.499 77.9 173.365 64.817 173.642 51.29C173.675 49.669 173.43 47.701 171.952 47.035C170.765 46.5 169.4 47.116 168.262 47.749C153.045 56.218 140.935 70.135 134.649 86.377C130.873 96.134 129.216 106.687 129.698 117.133C129.872 120.896 129.577 128.911 132.225 131.889C134.128 134.029 134.398 132.459 135.418 130.4C136.602 128.008 138.057 125.769 139.563 123.571Z" fill="#FFE7C5"/>
<path d="M66.8178 113.43C65.3108 113.272 63.5698 113.236 62.5418 114.349C60.8958 116.133 62.4948 118.972 64.1948 120.704C71.1528 127.794 80.0858 132.709 89.4328 136.073C98.7798 139.436 108.585 141.325 118.37 143.031C121.459 143.57 130.86 144.28 130.022 138.547C129.499 134.968 120.617 132.146 117.841 130.741C107.567 125.545 97.0408 120.718 85.9968 117.391C79.7388 115.507 73.3238 114.113 66.8178 113.43Z" fill="#FFE7C5"/>
<path d="M159.301 210.261C159.165 208.454 158.968 206.665 158.664 204.878C156.795 193.871 153.725 183.016 149.75 172.55V172.548C149.457 170.526 148.728 168.657 147.961 166.771C146.297 162.681 144.319 158.74 142.028 154.986C141.702 154.337 141.39 153.681 141.057 153.036C141.056 153.022 141.061 153.01 141.06 152.995C140.709 150.224 139.515 147.787 137.76 145.627C137.163 144.892 136.51 144.209 135.817 143.569C135.072 142.311 134.319 141.059 133.545 139.819C133.406 139.25 133.282 138.678 133.162 138.105C133.187 137.993 133.194 137.875 133.15 137.746C133.094 137.579 133.048 137.41 132.994 137.243C132.981 137.175 132.974 137.106 132.962 137.037C133.106 136.844 133.254 136.657 133.393 136.452C136.964 131.18 139.529 125.311 141.602 119.31C143.712 113.201 145.332 106.942 147.116 100.734C148.894 94.548 150.838 88.38 153.574 82.541C156.359 76.595 160.214 71.321 163.811 65.859C165.572 63.186 167.266 60.453 168.653 57.564C169.148 56.535 169.613 55.484 170.017 54.412C170.157 54.156 170.297 53.9 170.417 53.633C170.466 53.524 170.452 53.412 170.405 53.312C170.417 53.275 170.431 53.239 170.443 53.202C170.765 52.208 171.005 51.206 171.198 50.19C171.972 48.679 172.711 47.151 173.403 45.6C173.794 44.806 174.153 43.994 174.473 43.161C174.524 43.027 174.393 42.91 174.277 42.916C174.047 42.637 173.521 42.588 173.34 43.029C172.992 43.874 172.631 44.715 172.256 45.548C171.877 46.392 171.483 47.229 171.078 48.06C169.761 50.095 168.36 52.063 166.802 53.945C164.517 56.706 162.057 59.315 159.527 61.851C154.471 66.921 149.163 71.75 144.462 77.162C139.715 82.626 135.876 88.757 133.235 95.506C130.585 102.277 129.097 109.525 128.866 116.792C128.798 118.942 128.853 121.09 129.012 123.23C129.01 123.257 129.008 123.285 129.007 123.312C128.609 122.223 128.202 121.136 127.79 120.052C127.033 116.939 126.453 113.786 126.158 110.584C125.403 102.386 126.848 94.233 127.858 86.123C128.362 82.076 128.763 78.005 128.728 73.923C128.694 69.955 128.256 66.006 127.628 62.091C126.353 54.148 124.316 46.325 123.48 38.313C123.061 34.292 122.945 30.226 123.377 26.2C123.806 22.204 124.839 18.354 126.39 14.65C126.5 14.387 126.236 14.23 126.028 14.304C125.945 14.269 125.835 14.287 125.783 14.391C125.32 15.314 124.849 16.236 124.424 17.178C120.985 24.802 118.668 32.876 117.164 41.095C115.656 49.335 115.038 57.73 115.148 66.102C115.255 74.31 116.062 82.498 117.426 90.59C118.768 98.554 120.644 106.423 122.912 114.173C124.821 120.696 127.021 127.129 129.408 133.492C128.695 132.443 127.961 131.41 127.227 130.376C126.37 128.777 125.505 127.182 124.644 125.586C124.641 125.58 124.642 125.575 124.64 125.569C124.26 124.788 123.836 124.029 123.399 123.276C121.285 119.369 119.16 115.468 117.004 111.584C116.846 111.284 116.698 110.979 116.535 110.681C115.71 109.17 114.885 107.659 114.06 106.148C113.218 104.606 112.366 103.07 111.515 101.533C111.014 100.628 110.478 99.745 109.941 98.862C110.075 98.714 110.143 98.511 110.038 98.292C109.583 97.346 109.094 96.436 108.598 95.512C104.553 87.978 102.404 79.639 99.6498 71.593C98.2738 67.573 96.7398 63.592 94.7478 59.833C92.6218 55.823 89.9258 52.177 87.0098 48.711C84.0128 45.148 80.8188 41.755 77.8518 38.167C74.8778 34.569 72.2318 30.715 69.2518 27.122C66.3668 23.643 63.1108 20.565 59.3588 18.035C55.7398 15.594 51.8208 13.63 47.8398 11.856C43.7878 10.05 39.6538 8.43703 35.5738 6.69403C33.5638 5.83503 31.5698 4.94103 29.6038 3.98603C27.5718 2.99903 25.6038 1.89603 23.6238 0.811032C23.2568 0.610032 22.8698 1.09803 23.2318 1.35403C24.1208 1.98403 25.0348 2.54903 25.9818 3.08803C26.1198 3.16703 26.2618 3.23703 26.4008 3.31403C26.4618 3.35603 26.5248 3.39703 26.5858 3.43903C26.6158 3.45903 26.6448 3.48103 26.6738 3.50103C27.1658 4.27403 27.6618 5.04603 28.1908 5.79403C33.0618 12.675 39.0858 18.605 45.1148 24.459C51.1538 30.322 57.2428 36.212 62.2508 43.008C67.4508 50.065 71.3808 57.958 76.5588 65.031C78.9558 68.306 81.6548 71.296 84.6168 74.066C87.4098 76.677 90.3628 79.108 93.2628 81.596C93.5418 81.836 93.8178 82.08 94.0958 82.321C90.8738 79.956 87.4468 77.872 83.9028 76.019C78.0258 72.945 71.8538 70.48 65.6398 68.182C59.4358 65.888 53.1688 63.764 47.0198 61.323C43.9428 60.102 40.8958 58.802 37.9118 57.368C36.4378 56.66 34.9788 55.92 33.5368 55.148C33.4838 55.119 33.4308 55.089 33.3778 55.061C32.2308 54.155 31.0898 53.242 29.9608 52.314C29.5568 51.982 29.1018 52.391 29.1218 52.803C28.8948 52.802 28.7688 53.154 28.9728 53.311C29.1998 53.487 29.4368 53.648 29.6718 53.813C31.9978 56.111 34.7148 58.037 37.4468 59.816C38.3678 60.416 39.3068 60.99 40.2518 61.552C42.3468 63.056 44.4598 64.535 46.6078 65.964C57.1868 72.999 68.3728 79.147 80.0038 84.262C85.3238 86.602 90.7607 88.695 95.9368 91.352C98.4847 92.66 100.963 94.116 103.279 95.803C105.286 97.266 107.082 98.93 108.797 100.708C109.165 101.437 109.599 102.148 109.997 102.844C110.548 103.805 111.113 104.757 111.671 105.714C113.677 109.153 115.689 112.588 117.72 116.013L119.612 119.204C119.691 119.351 119.771 119.497 119.851 119.644C119.701 119.558 119.528 119.551 119.373 119.6C118.807 118.809 118.23 118.02 117.563 117.319C117.526 117.28 117.482 117.259 117.436 117.247C117.028 116.755 116.614 116.269 116.176 115.802C113.338 112.778 110.363 109.796 107.179 107.074C101.679 101.952 95.6898 97.385 89.0978 93.74C82.0618 89.85 74.4158 87.019 66.4558 85.785C58.9258 84.617 51.4318 85.177 44.0008 86.704C36.9098 88.162 29.9758 90.293 22.8768 91.715C22.8558 91.719 22.8348 91.723 22.8138 91.727C17.0468 92.269 11.2678 92.543 5.49178 92.147C4.40978 91.828 3.33376 91.476 2.26576 91.083C1.89076 90.945 1.61377 91.229 1.57277 91.533C1.19577 91.546 0.81676 91.578 0.43776 91.647C-0.18124 91.76 -0.122224 92.644 0.478776 92.726C1.33378 92.844 2.19075 92.942 3.04875 93.026C3.34075 93.092 3.62975 93.174 3.92375 93.233C4.41475 93.485 4.90777 93.729 5.41277 93.954C13.4498 97.544 21.6998 100.906 30.3808 102.566C34.6548 103.383 39.0068 103.742 43.3538 103.475C47.1438 103.242 50.8848 102.532 54.5768 101.669C61.9338 99.95 69.2038 97.541 76.7748 96.947C80.5748 96.649 84.4298 96.881 88.1238 97.851C91.9988 98.869 95.6518 100.592 99.0348 102.725C101.438 104.24 103.704 105.958 105.881 107.781C112.912 114.303 119.131 121.744 124.748 129.461C125.835 131.221 126.921 132.981 128.008 134.741C128.496 135.641 128.982 136.541 129.471 137.441C127.971 136.11 126.386 134.878 124.731 133.743C116.363 128.005 106.662 124.729 97.0118 121.876C91.5618 120.265 86.0778 118.748 80.7048 116.889C78.0388 115.967 75.3968 114.964 72.8138 113.829C71.3428 113.183 69.9118 112.467 68.4908 111.731C67.5628 111.027 66.6148 110.353 65.6298 109.743C65.4248 109.616 65.1398 109.874 65.3248 110.067C65.3288 110.072 65.3338 110.075 65.3378 110.08C65.2588 110.039 65.1808 109.997 65.1018 109.956C64.8508 109.825 64.6538 110.226 64.8718 110.381C64.8898 110.394 64.9108 110.405 64.9288 110.418C64.9068 110.534 64.9348 110.663 65.0458 110.767C67.2878 112.848 69.7818 114.62 72.3358 116.296C72.6268 116.487 72.9268 116.662 73.2188 116.85C73.3168 116.931 73.4148 117.012 73.5128 117.093C76.0618 119.189 78.6318 121.265 81.2608 123.261C85.9088 126.789 90.8168 130.046 96.1668 132.416C98.9298 133.64 101.795 134.579 104.741 135.249C107.83 135.951 110.97 136.384 114.103 136.836C120.06 137.697 126.25 138.676 131.499 141.815C132.008 142.119 132.5 142.452 132.983 142.8C134.042 144.521 135.04 146.276 136.34 147.825C136.401 147.898 136.475 147.933 136.55 147.942C140.267 154.573 143.606 161.415 146.476 168.457C149.231 175.215 151.58 182.133 153.517 189.169C155.451 196.192 156.68 203.341 158.287 210.436C158.438 211.091 159.351 210.913 159.301 210.261ZM23.7288 98.901C29.6118 99.875 35.5858 100.239 41.5428 99.941C47.5748 99.639 53.4838 98.45 59.4038 97.33C65.3848 96.198 71.4318 95.142 77.5418 95.249C78.8788 95.272 80.2188 95.356 81.5538 95.496C79.3218 95.398 77.0798 95.499 74.8608 95.752C67.2708 96.616 59.9988 99.103 52.5658 100.74C48.7278 101.585 44.8258 102.21 40.8888 102.256C36.5208 102.308 32.1708 101.769 27.9118 100.82C24.0338 99.956 20.2398 98.744 16.5088 97.38C18.8918 97.988 21.3018 98.5 23.7288 98.901ZM40.6508 90.47C47.0098 89.633 53.3758 88.87 59.8018 88.917C69.0118 88.983 78.4978 90.621 86.6708 94.932C83.8678 94.122 80.9978 93.54 78.1528 93.135C65.5498 91.342 52.8538 92.963 40.2688 94.06C31.2278 94.848 21.9718 95.258 13.0028 93.826C16.0488 93.72 19.0748 93.338 22.0888 92.803C28.2988 92.215 34.4678 91.284 40.6508 90.47ZM91.1778 96.468C90.5748 96.227 89.9638 96.002 89.3508 95.787C85.2328 93.215 80.6608 91.407 75.9388 90.229C63.8698 87.219 51.1448 88.338 38.9378 89.827C36.4428 90.131 33.9428 90.454 31.4398 90.764C36.9198 89.419 42.3778 87.954 47.8508 87.073C55.5758 85.83 63.3507 86.018 70.9668 87.871C78.1168 89.612 84.9198 92.61 91.1778 96.468ZM90.1018 96.957C88.7598 96.468 87.3808 96.077 86.0008 95.762C82.7478 95.021 79.3988 94.752 76.0668 94.791C70.0328 94.863 64.0828 95.984 58.1678 97.079C52.1518 98.193 46.1158 99.173 39.9888 99.348C33.9978 99.519 27.9848 99.032 22.1048 97.871C19.1338 97.284 16.2068 96.525 13.3268 95.588C12.1338 95.2 10.9588 94.773 9.78877 94.334C14.0608 95.235 18.4328 95.681 22.7918 95.811C35.6268 96.195 48.3398 93.99 61.1278 93.328C67.3618 93.005 73.6178 93.115 79.7888 94.127C82.8368 94.627 85.8498 95.346 88.7798 96.325C89.0518 96.416 89.3198 96.516 89.5888 96.612C89.7628 96.723 89.9298 96.844 90.1018 96.957ZM94.8038 98.842C93.9418 98.439 93.0608 98.083 92.1728 97.748C92.0468 97.653 91.9258 97.553 91.7988 97.459C92.7588 97.857 93.7068 98.284 94.6448 98.734C94.6978 98.77 94.7508 98.806 94.8038 98.842ZM28.6098 5.24603C28.9968 5.57203 29.3838 5.89703 29.7718 6.22103C35.6598 11.143 41.3138 16.345 46.7488 21.762C52.1808 27.176 57.3828 32.804 62.3998 38.603C67.4098 44.394 72.2598 50.327 76.9988 56.341C81.7488 62.37 86.3858 68.489 90.9508 74.659C93.3928 77.96 95.7948 81.295 98.2188 84.614C96.2608 82.791 94.2258 81.05 92.1848 79.322C89.2468 76.833 86.2888 74.356 83.5528 71.642C80.5608 68.674 77.9508 65.38 75.5828 61.899C70.6758 54.685 66.6738 46.882 61.2258 40.036C55.9528 33.41 49.7528 27.593 43.6848 21.713C38.3468 16.54 33.0838 11.201 28.6098 5.24603ZM89.8858 71.797C85.2538 65.64 80.5578 59.531 75.7328 53.524C70.9188 47.531 65.9738 41.643 60.8238 35.935C55.6678 30.221 50.3998 24.61 44.8828 19.242C40.0658 14.555 35.0788 10.022 29.8698 5.76803C37.7688 11.425 45.2738 17.587 52.3148 24.297C60.3378 31.943 67.7778 40.196 74.7148 48.836C81.8988 57.783 88.5378 67.159 94.7758 76.787C97.1178 80.401 99.3858 84.062 101.624 87.741C97.7458 82.401 93.8548 77.072 89.8858 71.797ZM32.5688 6.55403C39.3088 10.675 46.0028 14.909 52.3458 19.626C58.5798 24.262 64.4408 29.377 69.6688 35.132C74.5978 40.559 78.9728 46.459 82.9658 52.603C87.0138 58.829 90.6488 65.312 94.0838 71.893C95.3158 74.253 96.5198 76.628 97.7108 79.009C96.2878 76.785 94.8508 74.57 93.3838 72.375C87.0278 62.864 80.2528 53.63 72.9148 44.851C65.8318 36.378 58.2208 28.341 50.0308 20.929C43.9288 15.407 37.4778 10.173 30.6558 5.52403C31.0098 5.69603 31.3678 5.85903 31.7228 6.02703C32.0048 6.20303 32.2858 6.38103 32.5688 6.55403ZM104.354 89.684C103.782 88.738 103.202 87.797 102.625 86.855C99.7298 80.837 96.7688 74.847 93.6078 68.965C90.1038 62.444 86.3618 56.043 82.1958 49.92C78.0288 43.795 73.4068 37.952 68.2568 32.623C62.8168 26.993 56.7748 21.982 50.4138 17.429C45.5938 13.979 40.6038 10.752 35.4898 7.74703C40.3208 9.86803 45.2398 11.803 49.9928 14.094C53.9238 15.988 57.7438 18.153 61.1818 20.856C64.7618 23.671 67.7108 27.109 70.4678 30.713C73.2998 34.416 76.0408 38.166 79.0898 41.698C82.1088 45.196 85.2588 48.584 88.1058 52.228C90.8288 55.714 93.1438 59.434 94.9828 63.46C96.7418 67.312 98.1218 71.322 99.4298 75.345C100.752 79.409 102 83.5 103.496 87.505C103.768 88.236 104.061 88.96 104.354 89.684ZM103.351 92.462C101.166 90.471 98.8238 88.648 96.4168 86.989C86.0318 79.832 74.0728 75.526 62.4318 70.906C56.5888 68.587 50.7678 66.182 45.1948 63.261C44.0258 62.648 42.8708 62.007 41.7278 61.345C40.2188 60.264 38.7228 59.164 37.2408 58.046C37.6498 58.248 38.0578 58.451 38.4698 58.646C41.7898 60.219 45.1818 61.634 48.6048 62.967C60.8218 67.726 73.5458 71.433 85.0678 77.81C91.9478 81.617 98.3508 86.441 103.351 92.462ZM107.746 98.73C104.056 95.045 99.5568 92.279 94.9158 89.948C89.6668 87.313 84.1768 85.198 78.8308 82.772C72.9528 80.105 67.1888 77.188 61.5668 74.016C56.9928 71.436 52.5218 68.676 48.1478 65.769C59.1288 71.057 70.8318 74.639 81.8968 79.738C87.3188 82.236 92.5858 85.104 97.4238 88.615C100.789 91.058 103.842 93.827 106.609 96.885C107.003 97.489 107.379 98.106 107.746 98.73ZM125.377 113.397C124.391 110.409 123.588 107.378 123.075 104.265C122.467 100.578 122.17 96.85 122 93.12C121.637 85.153 121.502 77.172 121.277 69.2C121.053 61.242 120.694 53.275 120.725 45.312C120.753 38.206 121.218 31.1 122.532 24.114C122.664 23.715 122.786 23.312 122.922 22.914C121.76 28.792 122.021 34.999 122.755 40.867C123.763 48.921 125.859 56.792 126.954 64.833C127.504 68.873 127.77 72.934 127.597 77.011C127.422 81.13 126.894 85.222 126.348 89.305C125.275 97.322 124.274 105.33 125.377 113.397ZM128.03 125.273C128.307 126.218 128.594 127.161 128.891 128.1C128.897 128.215 128.905 128.33 128.913 128.445C126.845 122.687 124.934 116.873 123.28 110.982C121.116 103.278 119.354 95.457 118.137 87.546C116.888 79.427 116.215 71.217 116.282 63C116.349 54.705 117.137 46.406 118.757 38.267C119.44 34.834 120.301 31.436 121.293 28.074C120.205 34.68 120.055 41.462 120.099 48.128C120.151 56.154 120.42 64.18 120.618 72.203C120.812 80.069 120.835 87.959 121.28 95.816C121.493 99.577 121.848 103.334 122.592 107.031C123.281 110.455 124.348 113.779 125.528 117.062C125.909 118.121 126.299 119.177 126.69 120.233C127.095 121.924 127.542 123.605 128.03 125.273ZM167.096 54.972C164.049 59.018 160.811 62.912 157.497 66.747C150.02 75.398 142.25 83.977 136.998 94.227C134.255 99.581 132.181 105.261 130.808 111.118C130.601 112.002 130.415 112.891 130.24 113.782C130.781 106.618 132.53 99.568 135.454 93.003C138.386 86.42 142.547 80.585 147.419 75.302C152.257 70.054 157.585 65.288 162.511 60.125C164.099 58.46 165.635 56.748 167.096 54.972ZM161.349 64.513C157.289 70.542 152.972 76.392 148.886 82.403C144.806 88.405 140.943 94.586 137.852 101.164C134.968 107.301 132.784 113.813 131.811 120.539C131.324 123.906 131.144 127.339 131.337 130.743C131.283 130.524 131.226 130.305 131.17 130.087C130.608 127.151 130.267 124.175 130.134 121.189C130.203 120.419 130.282 119.649 130.375 118.881C130.779 115.557 131.403 112.259 132.252 109.02C133.767 103.242 135.961 97.623 138.828 92.38C141.53 87.438 144.794 82.798 148.305 78.4C154.24 70.966 160.921 64.057 166.543 56.369C164.892 59.133 163.147 61.844 161.349 64.513ZM160.414 69.04C160.42 69.03 160.426 69.02 160.433 69.01C162.09 66.423 163.777 63.854 165.476 61.295C165.541 61.198 165.606 61.101 165.67 61.004C164.299 63.311 162.805 65.543 161.291 67.758C160.999 68.187 160.706 68.613 160.414 69.04ZM137.267 126.613C138.098 123.962 138.733 121.25 139.302 118.533C139.9 115.676 140.465 112.813 141.193 109.986C141.952 107.041 142.852 104.133 143.873 101.268C145.894 95.596 148.383 90.1 151.159 84.76C151.509 84.086 151.881 83.425 152.241 82.757C152.008 83.257 151.773 83.756 151.551 84.262C148.981 90.117 147.115 96.248 145.339 102.381C143.555 108.543 141.871 114.747 139.653 120.771C138.926 122.745 138.132 124.695 137.267 126.613ZM132.654 135.084C131.873 129.387 132.118 123.635 133.231 117.97C134.554 111.241 137.052 104.805 140.173 98.715C143.479 92.264 147.481 86.198 151.617 80.256C153.525 77.514 155.466 74.794 157.394 72.065C151.572 81.781 146.238 91.906 142.613 102.653C141.64 105.538 140.792 108.465 140.09 111.427C139.436 114.187 138.904 116.973 138.311 119.745C137.695 122.622 137.051 125.492 136.096 128.278C135.67 129.521 135.167 130.714 134.614 131.882C134.297 132.444 133.977 133.003 133.64 133.554C133.324 134.072 132.99 134.578 132.654 135.084ZM128.054 137.694C127.186 137.157 126.295 136.656 125.391 136.19C120.51 133.679 115.192 132.206 109.905 130.824C104.501 129.411 99.1318 127.984 93.9028 125.999C88.8128 124.067 83.8648 121.751 79.1248 119.071C76.9898 117.863 74.9048 116.571 72.8538 115.224C72.3598 114.826 71.8658 114.424 71.3718 114.021C71.9908 114.315 72.6097 114.613 73.2298 114.891C76.1028 116.176 79.0478 117.284 82.0258 118.298C92.1678 121.752 102.688 124.106 112.546 128.373C117.018 130.309 121.347 132.615 125.282 135.502C126.232 136.198 127.158 136.929 128.054 137.694ZM104.009 133.873C101.099 133.154 98.2767 132.13 95.5618 130.861C90.1748 128.344 85.2608 124.923 80.5518 121.319C80.3648 121.176 80.1828 121.028 79.9968 120.884C80.0048 120.889 80.0128 120.893 80.0208 120.898C84.7538 123.474 89.6698 125.71 94.7318 127.561C99.9778 129.48 105.369 130.842 110.767 132.247C115.956 133.597 121.17 135.111 125.91 137.672C126.477 137.979 127.032 138.308 127.582 138.644C123.12 136.957 118.314 136.232 113.607 135.557C110.394 135.097 107.166 134.653 104.009 133.873Z" fill="#5F5C7C"/>
<path d="M117.049 96.868C116.782 96.377 116.37 95.981 115.845 95.773C115.325 95.567 114.728 95.551 114.21 95.774C113.78 95.96 113.444 96.295 113.208 96.692C113.031 96.953 112.907 97.249 112.872 97.565C112.835 97.895 112.889 98.215 112.996 98.518C112.997 98.52 112.997 98.522 112.997 98.524C112.998 98.528 113.001 98.532 113.002 98.536C113.049 98.666 113.107 98.792 113.175 98.915C113.176 98.917 113.177 98.919 113.179 98.921C113.213 98.982 113.243 99.045 113.282 99.103C113.535 99.485 113.958 99.82 114.4 99.949C114.999 100.124 115.589 100.055 116.127 99.736C117.077 99.173 117.605 97.89 117.049 96.868Z" fill="#CEBBB6"/>
<path d="M112.243 91.389C111.432 91.389 111.266 92.657 112.087 92.657C112.899 92.657 113.065 91.389 112.243 91.389Z" fill="#CEBBB6"/>
<path d="M113.874 90.194C113.866 90.125 113.843 90.062 113.803 90.006C113.773 89.945 113.73 89.895 113.674 89.855C113.635 89.833 113.596 89.81 113.557 89.788C113.491 89.758 113.422 89.746 113.351 89.753C113.304 89.747 113.259 89.754 113.216 89.772C113.149 89.785 113.089 89.814 113.036 89.859C113.005 89.891 112.973 89.922 112.942 89.954C112.885 90.029 112.851 90.113 112.839 90.207C112.834 90.267 112.832 90.319 112.846 90.374L112.853 90.401C112.858 90.42 112.862 90.439 112.867 90.458C112.874 90.524 112.897 90.583 112.935 90.636C112.963 90.694 113.004 90.742 113.058 90.78L113.17 90.844C113.233 90.873 113.298 90.883 113.365 90.877C113.409 90.882 113.452 90.876 113.493 90.859C113.556 90.847 113.614 90.819 113.664 90.777C113.694 90.747 113.724 90.717 113.753 90.687C113.807 90.616 113.84 90.536 113.851 90.447C113.856 90.428 113.86 90.409 113.865 90.389L113.872 90.362C113.873 90.357 113.875 90.352 113.876 90.347C113.886 90.297 113.878 90.245 113.874 90.194Z" fill="#CEBBB6"/>
<path d="M99.3448 107.839C99.2248 107.661 99.0758 107.503 98.9178 107.352C98.5198 106.326 97.2868 106.043 96.2218 105.897C95.7748 105.735 95.3198 105.603 94.8678 105.549C94.2188 105.472 93.5198 105.585 92.9848 105.979C92.6628 106.148 92.3988 106.405 92.2618 106.821C92.2438 106.874 92.2488 106.922 92.2368 106.974C92.1658 107.182 92.1328 107.399 92.1398 107.621C92.0988 107.83 92.0798 108.048 92.1168 108.286C92.1188 108.3 92.1258 108.311 92.1278 108.325C92.1508 108.526 92.1938 108.725 92.2728 108.918C92.7578 110.112 93.9818 110.676 95.2008 110.656C96.4018 110.992 97.9868 111.326 98.9158 110.301C99.0788 110.213 99.2328 110.103 99.3628 109.954C99.9028 109.33 99.7778 108.478 99.3448 107.839Z" fill="#CEBBB6"/>
<path d="M103.213 110.763C102.498 110.763 102.352 111.88 103.076 111.88C103.79 111.88 103.936 110.763 103.213 110.763Z" fill="#CEBBB6"/>
<path d="M102.994 112.372C102.73 111.658 102.108 111.147 101.368 111.006C101.162 110.967 100.976 111.027 100.818 111.136C100.8 111.139 100.784 111.133 100.766 111.136C99.3178 111.381 98.4128 113.197 99.3698 114.411C100.184 115.443 101.883 115.493 102.727 114.481C102.917 114.252 103.021 113.982 103.083 113.701C103.104 113.664 103.137 113.639 103.152 113.597C103.207 113.445 103.2 113.254 103.133 113.094C103.117 112.848 103.079 112.602 102.994 112.372Z" fill="#CEBBB6"/>
<path d="M72.6808 66.224C72.6468 65.987 72.5628 65.771 72.4578 65.563C72.3838 65.381 72.2888 65.205 72.1738 65.038C72.1688 65.031 72.1618 65.024 72.1568 65.017C72.1528 65.008 72.1508 64.999 72.1468 64.99C71.9558 64.619 71.6328 64.344 71.2698 64.137C71.0638 63.98 70.8528 63.833 70.6438 63.703C70.2678 63.471 69.8838 63.276 69.4408 63.21C68.9858 63.142 68.4838 63.258 68.1248 63.552C67.5498 64.022 67.4278 64.77 67.6078 65.455C67.6128 65.567 67.6038 65.678 67.6308 65.791C67.8058 66.519 68.3068 67.057 68.9108 67.466C69.3788 67.908 69.9328 68.28 70.5768 68.374C71.2838 68.477 71.9798 68.119 72.3428 67.518L72.3458 67.515C72.6338 67.159 72.7458 66.673 72.6808 66.224Z" fill="#CEBBB6"/>
<path d="M69.1348 60.326C69.0938 60.007 68.8987 59.709 68.6447 59.517C68.5347 59.434 68.4078 59.361 68.2768 59.317C68.1458 59.273 68.0057 59.234 67.8677 59.231C67.6517 59.225 67.4987 59.247 67.2937 59.312C67.1617 59.354 67.0417 59.428 66.9267 59.504C66.6917 59.659 66.5197 59.898 66.3957 60.146C66.3327 60.273 66.2967 60.418 66.2717 60.556C66.2647 60.596 66.2608 60.636 66.2598 60.676C66.2568 60.777 66.2547 60.883 66.2707 60.984C66.3217 61.286 66.4627 61.546 66.6787 61.759C66.8027 61.882 66.9197 61.957 67.0767 62.042C67.1987 62.108 67.3337 62.139 67.4687 62.171C67.7377 62.236 68.0138 62.194 68.2728 62.11C68.3978 62.069 68.5187 61.996 68.6227 61.918C68.7267 61.84 68.8247 61.742 68.8957 61.632C69.0147 61.446 69.0647 61.314 69.1147 61.101C69.1447 60.972 69.1388 60.841 69.1348 60.709C69.1348 60.692 69.1257 60.677 69.1247 60.66C69.1407 60.551 69.1498 60.443 69.1348 60.326Z" fill="#CEBBB6"/>
<path d="M65.0038 60.596C65.0018 60.573 64.9988 60.549 64.9958 60.526C64.9888 60.46 64.9658 60.401 64.9278 60.348C64.8998 60.29 64.8588 60.242 64.8048 60.204L64.6928 60.14C64.6298 60.111 64.5648 60.1 64.4978 60.107C64.4538 60.102 64.4108 60.108 64.3698 60.125C64.3058 60.137 64.2498 60.165 64.1988 60.207C64.1688 60.237 64.1398 60.267 64.1098 60.297C64.0558 60.368 64.0228 60.448 64.0118 60.537C64.0088 60.56 64.0068 60.584 64.0038 60.607C64.0048 60.652 64.0048 60.697 64.0058 60.742L64.0068 60.746C64.0078 60.749 64.0078 60.751 64.0078 60.754C64.0088 60.76 64.0098 60.766 64.0108 60.771L64.0178 60.808C64.0248 60.873 64.0478 60.932 64.0848 60.985C64.1128 61.043 64.1538 61.09 64.2068 61.128C64.2438 61.149 64.2808 61.171 64.3178 61.192C64.3798 61.22 64.4448 61.231 64.5118 61.225C64.5558 61.23 64.5988 61.224 64.6388 61.207C64.7018 61.195 64.7588 61.168 64.8088 61.125C64.8388 61.095 64.8678 61.065 64.8978 61.035C64.9508 60.964 64.9838 60.885 64.9948 60.797C64.9968 60.785 64.9988 60.774 65.0008 60.762C65.0108 60.704 65.0118 60.67 65.0038 60.596Z" fill="#CEBBB6"/>
<path d="M142.212 129.279C141.926 128.805 141.478 128.438 140.91 128.379C140.397 128.325 139.943 128.524 139.553 128.835C139.24 128.97 138.948 129.168 138.7 129.433C138.518 129.627 138.382 129.854 138.272 130.093C137.886 130.742 137.793 131.545 138.117 132.267C138.143 132.325 138.179 132.378 138.209 132.434C138.301 132.762 138.452 133.073 138.685 133.338C139.518 134.289 140.893 134.283 141.9 133.622C142.745 133.067 143.212 132.042 143.153 131.047C143.112 130.353 142.738 129.723 142.212 129.279Z" fill="#FFE7C5"/>
<path d="M142.847 126.567C142.847 126.564 142.847 126.562 142.847 126.559C142.847 126.554 142.846 126.549 142.846 126.545C142.841 126.507 142.824 126.463 142.815 126.432C142.806 126.399 142.796 126.354 142.781 126.317C142.779 126.313 142.777 126.309 142.775 126.305C142.774 126.303 142.773 126.301 142.771 126.299C142.74 126.241 142.694 126.167 142.659 126.111C142.653 126.102 142.648 126.093 142.641 126.085C142.589 126.02 142.525 125.963 142.464 125.908C142.456 125.901 142.448 125.895 142.44 125.889C142.373 125.85 142.306 125.812 142.238 125.773C142.16 125.753 142.083 125.732 142.005 125.712L141.764 125.715C141.689 125.736 141.615 125.757 141.54 125.779C141.474 125.818 141.408 125.857 141.343 125.896C141.289 125.95 141.235 126.005 141.182 126.059C141.143 126.126 141.105 126.193 141.066 126.261C141.014 126.375 140.995 126.493 141.007 126.614C140.997 126.694 141.008 126.772 141.04 126.846C141.052 126.924 141.082 126.994 141.13 127.056C141.161 127.128 141.208 127.188 141.27 127.235C141.319 127.297 141.38 127.343 141.452 127.374C141.516 127.423 141.589 127.452 141.669 127.462C141.745 127.493 141.824 127.503 141.906 127.491C141.964 127.498 142.018 127.481 142.072 127.467C142.086 127.467 142.1 127.476 142.115 127.474C142.213 127.482 142.307 127.464 142.398 127.421L142.56 127.325C142.662 127.245 142.738 127.145 142.788 127.025C142.79 127.021 142.791 127.017 142.792 127.013C142.809 126.948 142.826 126.883 142.843 126.818L142.844 126.814C142.844 126.812 142.845 126.809 142.845 126.807C142.847 126.798 142.847 126.789 142.848 126.78C142.85 126.723 142.849 126.623 142.847 126.567Z" fill="#FFE7C5"/>
<path d="M146.372 128.322C146.363 128.26 146.339 128.205 146.301 128.156C146.261 128.074 146.203 128.005 146.126 127.951C146.073 127.921 146.02 127.89 145.967 127.86L145.783 127.812C145.687 127.796 145.594 127.806 145.505 127.839C145.415 127.857 145.333 127.896 145.261 127.956C145.232 127.981 145.204 128.007 145.175 128.032C145.161 128.045 145.147 128.059 145.132 128.07C145.124 128.076 145.116 128.08 145.108 128.085C145.046 128.125 144.994 128.181 144.953 128.243C144.931 128.276 144.907 128.309 144.887 128.344C144.845 128.415 144.793 128.486 144.763 128.56C144.703 128.705 144.697 128.817 144.712 128.972C144.713 128.981 144.714 128.989 144.715 128.998C144.735 129.127 144.784 129.242 144.864 129.345C144.922 129.425 144.994 129.485 145.081 129.526C145.163 129.583 145.254 129.615 145.356 129.624C145.489 129.64 145.616 129.622 145.739 129.569C145.906 129.518 146.039 129.386 146.134 129.243C146.148 129.222 146.162 129.201 146.176 129.18C146.18 129.175 146.183 129.169 146.187 129.163C146.266 129.059 146.31 128.94 146.33 128.812C146.318 128.858 146.306 128.904 146.294 128.95C146.313 128.894 146.332 128.838 146.352 128.782L146.4 128.599C146.415 128.503 146.406 128.411 146.372 128.322Z" fill="#FFE7C5"/>
<path d="M115.148 145.096C115.132 144.955 115.091 144.821 115.039 144.691C114.966 144.335 114.811 143.999 114.574 143.735C114.221 143.341 113.766 143.091 113.242 143.011C112.72 142.931 112.209 143.066 111.77 143.348C111.027 143.825 110.731 144.927 111.081 145.735C111.131 146.003 111.233 146.26 111.388 146.489C111.653 146.88 112.081 147.09 112.525 147.199C113.291 147.386 114.153 147.067 114.649 146.467C114.749 146.345 114.826 146.207 114.892 146.063C115.087 145.783 115.187 145.439 115.148 145.096Z" fill="#FFE7C5"/>
<path d="M119.576 146.266C119.508 146.026 119.402 145.799 119.228 145.616C119.028 145.406 118.801 145.231 118.524 145.132C118.233 145.028 117.98 145.002 117.674 145.016C117.593 145.02 117.514 145.034 117.435 145.055C117.296 145.092 117.154 145.125 117.026 145.193C116.908 145.256 116.781 145.325 116.681 145.417C116.504 145.58 116.413 145.704 116.301 145.912C116.069 146.346 116.096 146.944 116.306 147.38C116.544 147.876 117.017 148.299 117.589 148.334C117.834 148.349 118.054 148.295 118.267 148.209C118.337 148.212 118.404 148.233 118.475 148.223C118.801 148.181 119.077 147.993 119.291 147.753C119.476 147.546 119.572 147.273 119.623 147.005C119.671 146.761 119.644 146.504 119.576 146.266Z" fill="#FFE7C5"/>
</svg>
