<svg width="169" height="319" viewBox="0 0 169 319" fill="none" xmlns="http://www.w3.org/2000/svg">
<path d="M126.569 132.157C142.319 120.719 152.265 101.672 152.651 82.2108C152.624 83.5528 142.986 89.2058 141.573 90.3058C137.892 93.1708 134.3 96.1478 130.802 99.2328C123.671 105.521 116.932 112.254 110.633 119.376C104.394 126.431 98.5876 133.869 93.2636 141.637C92.3736 142.936 85.6576 151.464 86.4296 152.654C87.6046 154.463 95.6306 148.712 96.8486 148.069C106.783 142.827 117.426 138.797 126.569 132.157Z" fill="#CEBBB6"/>
<path d="M18.4075 153.134C21.8335 174.979 33.0745 194.782 45.4225 213.125C53.0265 224.419 61.1265 235.378 68.4705 246.847C69.7095 248.782 76.9425 263.503 78.4805 263.439C81.7255 263.304 77.9545 249.985 77.5515 248.228C72.1045 224.488 61.5095 201.959 46.8195 182.54C38.5765 171.643 29.0375 161.722 18.4075 153.134Z" fill="#CEBBB6"/>
<path d="M120.662 54.6818C128.411 41.6208 134.179 27.1058 135.26 11.9568C135.362 10.5268 134.819 8.50682 133.405 8.74282C132.95 8.81882 132.582 9.14283 132.242 9.45483C119.759 20.9298 109.827 35.1128 103.082 50.6568C99.6756 58.5068 97.0785 66.7088 95.3725 75.0938C94.5885 78.9448 93.1915 83.7138 93.5045 87.6568C93.6945 90.0478 93.9066 90.1108 95.8216 88.4508C97.6666 86.8518 99.1625 84.3828 100.699 82.4858C107.879 73.6148 114.83 64.5118 120.662 54.6818Z" fill="#CEBBB6"/>
<path d="M49.2676 79.9188C48.1366 78.3088 46.6416 76.5558 44.6756 76.6288C43.1666 76.6858 41.8896 77.8868 41.2986 79.2768C40.7076 80.6668 40.6726 82.2218 40.6806 83.7318C40.7906 105.857 48.5346 127.772 61.9156 145.345C65.2616 149.738 68.9606 153.863 72.9806 157.65C74.2776 158.872 76.3886 161.247 78.3356 159.601C80.0836 158.122 78.4146 154.386 78.0146 152.53C75.4086 140.426 72.2416 128.419 68.0106 116.775C63.2926 103.789 57.2216 91.2438 49.2676 79.9188Z" fill="#FFE7C5"/>
<path d="M121.485 201.081C136.071 190.301 150.153 177.639 157.224 160.937C157.742 159.714 158.213 158.28 157.591 157.106C156.538 155.12 153.585 155.636 151.503 156.481C133.771 163.676 117.294 174.262 104.197 188.214C95.3305 197.658 88.0625 208.652 83.1075 220.632C81.5175 224.477 78.2455 232.098 85.4825 227.93C91.1655 224.657 96.1895 219.265 101.527 215.369C108.135 210.547 114.904 205.945 121.485 201.081Z" fill="#FFE7C5"/>
<path d="M87.1376 317.186C86.5226 314.022 85.9075 310.852 85.3485 307.672C84.6115 300.333 83.8835 292.994 83.1825 285.652C83.2435 279.041 84.1056 272.434 86.2326 266.155C86.9646 263.996 87.8516 261.896 88.8886 259.865C89.3896 258.885 89.9585 257.946 90.5335 257.013C92.4645 254.303 94.5995 251.731 96.8426 249.293C104.455 241.016 113.385 234.101 121.218 226.045C125.771 221.362 129.982 216.291 133.204 210.59C133.435 210.182 133.115 209.761 132.671 209.803C132.292 209.838 131.922 209.9 131.549 209.951C131.445 209.893 131.32 209.875 131.19 209.943C131.148 209.965 131.108 209.993 131.066 210.015C120.921 211.584 112.669 218.766 106.632 226.736C102.995 231.538 99.9075 236.744 96.8275 241.912C93.8375 246.929 90.9736 252.025 88.3866 257.263C87.8686 258.311 87.3666 259.367 86.8716 260.427C84.7576 263.936 83.0396 267.669 81.8986 271.589C81.7976 270.424 81.6866 269.26 81.5886 268.095C81.6746 267.881 81.6725 267.634 81.5335 267.42C81.1045 262.298 80.7055 257.174 80.3545 252.045C80.0355 247.392 79.7606 242.735 79.5216 238.076C79.5566 237.842 79.5996 237.611 79.6366 237.377C79.6546 237.355 79.6755 237.338 79.6865 237.306C80.1795 235.85 80.7576 234.429 81.3736 233.024C82.9016 231.137 84.5955 229.401 86.4795 227.808C89.5845 225.183 93.0045 222.979 96.4655 220.859C99.8705 218.774 103.327 216.769 106.677 214.596C109.981 212.452 113.202 210.179 116.326 207.779C122.58 202.976 128.45 197.674 133.871 191.947C139.298 186.215 144.323 180.061 148.793 173.554C153.238 167.082 157.244 160.25 160.554 153.126C160.804 152.587 161.038 152.047 161.261 151.502C163.42 147.887 165.369 144.15 167.035 140.307C167.33 139.627 167.59 138.934 167.841 138.237C168.137 137.571 168.418 136.898 168.656 136.197C168.824 135.703 168.095 135.335 167.82 135.797C166.514 137.986 165.509 140.345 164.324 142.603C163.158 144.825 161.914 147.007 160.558 149.119C157.961 153.16 154.919 156.858 151.42 160.15C144.791 166.387 136.953 171.121 129.109 175.652C121.186 180.228 113.119 184.652 105.862 190.262C98.7706 195.744 92.7545 202.498 88.1885 210.216C83.8225 217.598 80.7896 225.756 79.3726 234.217C79.3605 234.236 79.3486 234.255 79.3366 234.274C78.7946 222.576 78.5336 210.865 78.6796 199.158C78.8316 199.087 78.9605 198.959 78.9976 198.756C80.9946 187.91 89.2726 179.735 97.5015 173.085C102.017 169.436 106.668 165.966 111.096 162.208C115.595 158.39 119.901 154.35 124.067 150.171C128.721 145.502 133.153 140.615 137.359 135.539C137.641 135.198 137.232 134.718 136.851 134.789C131.426 135.808 126.613 138.659 122.177 141.827C117.366 145.262 112.803 149.054 108.509 153.115C99.9326 161.228 92.4445 170.478 86.3095 180.564C85.0105 182.7 83.7945 184.884 82.6226 187.092C81.2876 189.2 80.1626 191.432 79.3055 193.768C79.1115 194.195 78.9376 194.629 78.7566 195.061C78.8096 192.496 78.8756 189.932 78.9706 187.368C79.2546 179.703 79.7306 172.039 80.4286 164.397C80.5376 164.033 80.6626 163.673 80.7795 163.312C80.9595 162.918 81.1316 162.521 81.3066 162.125C81.3116 162.114 81.3166 162.104 81.3205 162.093C81.6585 161.323 81.9946 160.553 82.3426 159.787C83.1136 158.088 83.9176 156.404 84.7486 154.734C90.0136 150.544 95.9156 147.343 101.871 144.251C107.908 141.116 114.02 137.952 119.293 133.602C125.115 128.799 129.627 122.572 133.283 116.016C137.003 109.346 140.014 102.288 142.985 95.2618C143.519 93.9988 144.041 92.7308 144.564 91.4628C147.364 86.0348 149.618 80.3168 151.226 74.4288C151.33 74.1488 151.437 73.8698 151.541 73.5898C151.875 72.6828 152.206 71.7748 152.536 70.8668C152.661 70.5198 152.446 70.2608 152.172 70.1778C152.185 70.0948 152.201 70.0138 152.213 69.9308C152.279 69.4798 151.646 69.3258 151.414 69.6458C151.3 69.5568 151.11 69.5588 151.034 69.7348C149.499 73.2958 147.711 76.7288 145.549 79.9508C143.405 83.1468 140.974 86.1428 138.376 88.9798C132.949 94.9068 126.765 100.082 120.859 105.513C115.076 110.831 109.608 116.455 104.587 122.502C99.6315 128.469 95.1016 134.789 91.0396 141.397C87.2616 147.544 83.9005 153.946 80.9645 160.537C80.9215 160.497 80.8786 160.458 80.8366 160.418C81.4666 154.221 82.2476 148.04 83.1926 141.884C83.3066 141.851 83.4196 141.79 83.5176 141.672C84.3956 140.615 85.0856 139.363 85.8366 138.214C86.5766 137.083 87.3166 135.952 88.0555 134.821C88.4966 134.147 88.9355 133.471 89.3785 132.798C89.6025 132.56 89.8295 132.326 90.0485 132.082C92.2785 129.596 94.4166 127.026 96.4726 124.395C100.662 119.035 104.491 113.395 107.925 107.523C109.872 104.193 111.694 100.79 113.374 97.3178C113.594 96.8638 113.072 96.2628 112.639 96.6848C103.211 105.861 95.0116 116.236 88.5566 127.716C86.9566 130.561 85.4696 133.468 84.0776 136.419C84.6276 133.198 85.2206 129.984 85.8706 126.781C86.7256 122.573 87.6906 118.398 88.7416 114.249C89.4756 112.571 90.2106 110.893 91.0066 109.242C91.5736 108.065 92.1695 106.902 92.7725 105.743C93.3445 104.87 93.9326 104.006 94.5516 103.166C98.1206 98.3178 102.4 94.0878 106.949 90.1648C116.681 81.7708 127.691 74.9558 137.056 66.1208C142.236 61.2348 146.906 55.7308 150.237 49.4068C150.443 49.0158 150.171 48.5358 149.766 48.5418C149.658 48.3418 149.387 48.2318 149.127 48.4058C148.595 48.7638 148.095 49.1658 147.607 49.5828C137.177 54.9328 127.493 61.7208 118.894 69.6838C109.774 78.1288 101.816 87.8818 95.4235 98.5448C94.3315 100.367 93.2906 102.221 92.2916 104.096C92.6776 103.042 93.0466 101.984 93.3946 100.933C94.2506 98.3448 94.9836 95.7188 95.6356 93.0728C97.2105 89.2858 99.1496 85.6468 101.289 82.1378C105.044 75.9738 109.349 70.1768 113.422 64.2238C117.465 58.3138 121.209 52.2448 124.087 45.6738C126.964 39.1038 129.03 32.1938 130.507 25.1808C131.993 18.1268 132.871 10.9548 133.269 3.7588C133.287 3.4258 133.298 3.0938 133.309 2.7618C133.345 2.7238 133.375 2.6778 133.382 2.6138C133.394 2.5018 133.39 2.3878 133.398 2.2748C133.486 2.1528 133.575 2.0328 133.661 1.9098C133.801 1.7098 133.619 1.5468 133.431 1.5628C133.431 1.1828 133.417 0.802795 133.398 0.428795C133.377 0.00579509 132.736 -0.206206 132.607 0.277794C132.283 1.49079 131.817 2.6608 131.194 3.7518C130.89 4.2848 130.553 4.79979 130.184 5.29079C129.848 5.73979 129.258 6.2128 129.214 6.7968C129.214 6.8018 129.217 6.8058 129.217 6.8118C128.044 8.3708 126.881 9.9378 125.727 11.5078C123.297 14.8128 120.923 18.1588 118.651 21.5738C114.135 28.3618 110.024 35.4368 106.799 42.9348C103.744 50.0368 101.711 57.4608 100.158 65.0218C98.8566 71.3578 97.8076 77.7438 96.5466 84.0878C95.7416 86.2288 94.9595 88.3778 94.2155 90.5408C93.8495 91.6038 93.5066 92.6748 93.1546 93.7428C93.1486 93.7158 93.1405 93.6898 93.1345 93.6628C93.3735 91.6468 93.6115 89.6308 93.8075 87.6088C94.1216 84.3638 94.4205 81.1158 94.6695 77.8648C95.1665 71.3758 95.5215 64.8658 95.5175 58.3558C95.5155 54.6958 95.4096 51.0368 95.1786 47.3838C95.1446 46.8438 94.3826 46.6028 94.1886 47.1948C92.1266 53.4698 90.7866 59.9958 90.1766 66.5718C89.5676 73.1298 89.6975 79.7548 90.5595 86.2848C90.9895 89.5458 91.6205 92.7778 92.4195 95.9688C90.6695 101.458 89.1005 107.005 87.6865 112.591C87.6695 111.683 87.6246 110.774 87.5566 109.868C87.6766 107.555 87.7505 105.24 87.7586 102.923C87.7775 97.6358 87.4926 92.3508 86.9296 87.0938C85.8046 76.5898 83.5576 66.2158 80.2376 56.1868C78.3696 50.5458 76.1865 44.9988 73.6285 39.6338C73.4525 39.2638 72.7876 39.3518 72.8046 39.7988C73.2606 51.4658 75.2606 62.9678 78.0165 74.2968C79.3586 79.8138 80.9096 85.2728 82.4566 90.7348C83.8576 95.6828 85.1916 100.668 85.9566 105.761C86.3795 108.572 86.6145 111.412 86.5425 114.256C86.5175 115.25 86.4326 116.238 86.3276 117.223C86.3006 117.301 86.2696 117.378 86.2436 117.456C86.1986 117.592 86.2206 117.7 86.2645 117.795C86.2095 118.252 86.1516 118.709 86.0846 119.165C86.0436 119.338 86.0026 119.51 85.9636 119.683C83.2326 131.698 81.2436 143.87 79.8386 156.11C79.4876 154.664 79.1205 153.222 78.7555 151.784C77.9755 148.715 77.1566 145.656 76.3086 142.604C74.5826 136.396 72.6966 130.233 70.7716 124.084C68.8755 118.028 66.9865 111.966 65.0015 105.938C63.1195 100.224 60.9445 94.5088 57.2865 89.6678C53.8675 85.1438 49.3576 81.3638 44.4126 78.5158C43.7176 77.9538 42.9995 77.4208 42.2495 76.9268C41.8265 76.5858 41.3905 76.2628 40.9235 75.9838C40.8615 75.9468 40.7976 75.9658 40.7466 76.0018C40.7356 75.9958 40.7255 75.9888 40.7145 75.9828C40.5165 75.8708 40.3256 76.1538 40.5196 76.2828C40.8046 76.4708 41.0686 76.6778 41.3456 76.8728C41.3546 76.8828 41.3635 76.8918 41.3725 76.9018C41.2735 76.8538 41.1765 76.7988 41.0765 76.7518C40.8345 76.6378 40.6396 77.0448 40.8736 77.1758C41.4166 77.4808 41.9525 77.7958 42.4885 78.1128C43.8955 79.7038 45.1405 81.4018 46.1115 83.3428C47.4575 86.0318 48.3146 88.9398 48.8586 91.8908C49.9876 98.0238 49.6406 104.286 49.8516 110.487C49.9596 113.651 50.1945 116.822 50.8075 119.933C51.3995 122.939 52.3325 125.876 53.5185 128.7C55.9455 134.476 59.4145 139.772 63.3835 144.601C68.2046 150.468 73.7455 155.7 79.3265 160.835C78.6735 167.207 78.1596 173.594 77.8046 179.987C77.3136 188.839 77.1076 197.702 77.1086 206.565C76.3296 203.993 75.3086 201.472 74.2396 199.054C73.9616 198.426 73.6636 197.808 73.3686 197.188C73.3656 197.147 73.3656 197.106 73.3586 197.066C73.3326 196.928 73.2616 196.793 73.2116 196.663C73.1236 196.432 73.0386 196.197 72.9686 195.96C72.8166 195.443 72.7206 194.903 72.7066 194.364C72.7026 194.223 72.7156 194.083 72.7215 193.942C72.8615 193.449 72.9965 192.956 73.1325 192.462C73.2465 192.314 73.3526 192.164 73.4536 192.015C73.5966 191.944 73.7256 191.824 73.8156 191.63C73.9176 191.411 73.9995 191.189 74.0906 190.968C74.4646 190.269 74.7596 189.524 74.9706 188.761C75.4046 187.195 75.5055 185.572 75.4625 183.954C75.5025 181.572 75.2025 179.16 74.7665 176.778C74.4225 174.379 73.9866 171.993 73.4536 169.635C73.0576 167.882 72.5886 166.15 72.0806 164.428C72.0586 164.334 72.0396 164.238 72.0165 164.144C72.0055 164.098 71.9855 164.059 71.9605 164.026C71.8085 163.522 71.6736 163.015 71.5106 162.514C71.4776 162.412 71.3935 162.373 71.3075 162.363C71.3016 162.308 71.2985 162.253 71.2925 162.198C71.2495 161.783 70.6086 161.771 70.4986 162.15C68.2496 169.929 67.4686 178.015 68.5165 186.062C68.6565 187.138 68.8265 188.212 69.0315 189.279C68.7775 188.873 68.5325 188.46 68.2705 188.059C63.7295 181.086 58.0735 174.883 51.5485 169.716C47.8465 166.785 43.8726 164.208 39.6816 162.03C39.2336 161.797 38.8466 162.275 39.1216 162.68C45.7086 172.365 53.7716 181.02 62.9076 188.346C65.4706 190.401 68.1216 192.343 70.8505 194.173C70.9016 194.207 70.9526 194.221 71.0026 194.235C71.3076 194.797 71.6066 195.362 71.9006 195.929C71.9195 196.006 71.9315 196.084 71.9546 196.161C72.0476 196.47 72.1536 196.773 72.3026 197.06C72.3746 197.197 72.4455 197.352 72.5516 197.467C72.6066 197.527 72.6746 197.578 72.7446 197.627C72.7886 197.719 72.8365 197.81 72.8805 197.902C73.8765 200.006 74.7785 202.157 75.5816 204.342C76.1356 205.85 76.6196 207.381 77.1166 208.907C77.1676 220.634 77.5805 232.361 78.2575 244.067C78.5305 248.794 78.8605 253.517 79.2105 258.239C77.5155 251.765 75.3145 245.419 72.8655 239.198C69.2875 230.109 65.3306 221.135 61.1296 212.318C56.8926 203.426 52.2085 194.721 46.5665 186.633C41.1955 178.932 34.9215 171.857 27.6005 165.955C20.6785 160.375 12.7896 155.847 4.22455 153.345C3.16355 152.755 2.07754 152.21 0.992544 151.664C0.784544 151.559 0.580548 151.85 0.790548 151.975C1.21655 152.229 1.63555 152.493 2.05855 152.753C2.03555 152.747 2.01155 152.742 1.98755 152.737C1.60955 152.547 1.23155 152.358 0.848547 152.178C0.673547 152.096 0.521546 152.255 0.503546 152.419C0.458546 152.41 0.414551 152.399 0.368551 152.39C0.024551 152.324 -0.166452 152.823 0.193548 152.926C0.823548 153.106 1.44655 153.304 2.07155 153.495C10.0896 158.224 17.0816 164.433 22.2246 172.261C27.1966 179.828 30.4005 188.364 33.3785 196.865C36.4125 205.527 39.3535 214.192 43.4395 222.432C47.5875 230.797 52.6195 238.721 58.3875 246.061C64.1875 253.441 70.7626 260.204 77.9436 266.247C78.6046 266.803 79.2795 267.341 79.9546 267.879C80.3316 272.442 80.7416 277.002 81.1626 281.56C81.1636 281.586 81.1606 281.612 81.1626 281.638C81.1636 281.658 81.1716 281.674 81.1756 281.693C81.4846 285.036 81.8026 288.379 82.1285 291.721C82.3015 294.664 82.6066 297.6 83.0015 300.519C83.3036 303.501 83.6066 306.483 83.9146 309.465C84.1926 312.155 84.4866 314.843 84.7766 317.532C84.8616 318.317 85.7986 318.289 86.1656 317.772C86.5325 318.06 87.2555 317.796 87.1376 317.186ZM96.2926 244.512C99.2966 239.421 102.38 234.346 105.81 229.528C109.083 224.93 112.807 220.592 117.335 217.185C120.682 214.666 124.467 212.709 128.506 211.636C127.708 212.208 126.927 212.806 126.153 213.378C124.523 214.584 122.924 215.831 121.358 217.118C118.224 219.694 115.236 222.439 112.393 225.334C106.712 231.117 101.608 237.469 97.1775 244.258C95.2475 247.217 93.4515 250.257 91.8115 253.383C91.2785 254.052 90.7476 254.722 90.2385 255.409C92.1465 251.717 94.1806 248.091 96.2926 244.512ZM93.2786 251.599C96.3896 246.197 99.8626 241.01 103.767 236.141C108.845 229.808 114.573 224.023 120.791 218.808C122.502 217.373 124.254 215.985 126.044 214.648C126.953 213.969 127.871 213.304 128.798 212.651C129.54 212.129 130.31 211.634 131.039 211.091C131.288 211.05 131.534 210.995 131.785 210.96C125.892 220.91 117.128 228.632 108.625 236.309C103.277 241.138 97.9316 246.083 93.2786 251.599ZM90.5205 144.113C94.4785 137.442 98.9086 131.052 103.77 125.007C108.711 118.862 114.11 113.112 119.871 107.731C125.774 102.217 131.884 96.9358 137.454 91.0738C142.654 85.6008 147.454 79.5018 150.478 72.5338C150.551 72.3658 150.614 72.1948 150.684 72.0268C150.429 72.9118 150.176 73.7958 149.92 74.6788C147.876 80.1588 145.74 85.6038 143.51 91.0098C143.124 91.7608 142.735 92.5098 142.327 93.2488C138.253 100.635 133.159 107.457 127.163 113.394C120.692 119.801 113.294 125.165 106.19 130.829C99.7236 135.984 93.4826 141.452 88.4025 148.018C88.2466 148.22 88.0956 148.429 87.9406 148.633C88.7766 147.114 89.6345 145.605 90.5205 144.113ZM85.3736 153.664C86.1416 152.434 86.9445 151.225 87.8055 150.058C92.6906 143.44 98.8475 137.948 105.234 132.819C112.325 127.124 119.746 121.817 126.373 115.567C131.58 110.656 136.209 105.144 140.107 99.1438C138.106 103.829 136.015 108.478 133.673 112.996C130.197 119.7 126.067 126.137 120.538 131.342C115.492 136.092 109.425 139.474 103.346 142.706C97.3695 145.884 91.2655 148.961 85.9385 153.183C85.7455 153.337 85.5616 153.503 85.3736 153.664ZM100.459 68.2218C101.882 60.8138 103.615 53.4578 106.347 46.4118C109.316 38.7558 113.277 31.5188 117.678 24.5998C121.537 18.5318 125.759 12.7138 130.012 6.91879C130.203 6.78279 130.371 6.5938 130.524 6.3938C123.568 24.9588 114.587 42.6818 106.372 60.7078C103.623 66.7398 100.967 72.8188 98.5135 78.9778C99.1545 75.3908 99.7716 71.7998 100.459 68.2218ZM96.9306 87.2028C99.2386 80.7288 101.758 74.3218 104.504 67.9908C113.101 48.1718 123.16 28.9698 130.616 8.66679C131.215 7.03479 131.779 5.3898 132.333 3.7408C132.397 3.6528 132.46 3.5628 132.525 3.4748C132.296 6.2598 132.141 9.05279 131.833 11.8328C131.433 15.4438 130.905 19.0418 130.22 22.6098C128.871 29.6308 126.9 36.5148 124.216 43.1438C121.508 49.8328 117.942 56.0788 113.903 62.0478C109.891 67.9768 105.566 73.6938 101.682 79.7088C99.8745 82.5068 98.1886 85.3968 96.6876 88.3768C96.7686 87.9868 96.8496 87.5948 96.9306 87.2028ZM97.7515 97.0578C100.171 93.1668 102.773 89.3898 105.597 85.7828C113.202 76.0678 122.199 67.4388 132.224 60.2478C135.926 57.5928 139.778 55.1518 143.747 52.9168C143.706 52.9528 143.664 52.9878 143.623 53.0238C141.817 54.5958 140.021 56.1788 138.234 57.7718C134.659 60.9588 131.13 64.1948 127.639 67.4728C120.656 74.0308 113.75 80.6608 107.006 87.4648C103.878 90.6218 100.798 93.8238 97.7515 97.0578ZM116.386 79.0438C123.287 72.4008 130.356 65.9478 137.539 59.6118C139.525 57.8608 141.522 56.1208 143.526 54.3898C144.542 53.5128 145.56 52.6378 146.581 51.7668C146.998 51.4108 147.424 51.0608 147.847 50.7068C148.027 50.6138 148.202 50.5128 148.383 50.4208C142.25 61.0908 132.536 69.0728 122.833 76.4048C116.126 81.4718 109.248 86.4368 103.123 92.1878C107.492 87.7538 111.901 83.3608 116.386 79.0438ZM84.0676 92.6998C82.5356 87.3368 80.9166 82.0018 79.5116 76.6028C78.0386 70.9428 76.7436 65.2378 75.7466 59.4738C74.7526 53.7268 74.0575 47.9228 73.7775 42.0958C73.8146 42.1798 73.8496 42.2638 73.8866 42.3478C74.3896 44.2408 74.9576 46.1168 75.4856 48.0018C76.0806 50.1248 76.6555 52.2538 77.2105 54.3878C78.3365 58.7198 79.4016 63.0728 80.3066 67.4558C82.1256 76.2588 83.6155 85.1318 84.7385 94.0508C84.8145 94.6578 84.8746 95.2658 84.9466 95.8728C84.6626 94.8128 84.3686 93.7548 84.0676 92.6998ZM86.7676 102.309C86.5256 100.085 86.2385 97.8648 85.9365 95.6478C85.3285 91.1798 84.6296 86.7248 83.8406 82.2848C82.2616 73.4058 80.3016 64.5868 78.0705 55.8488C77.4426 53.3888 76.7856 50.9348 76.0976 48.4908C75.8206 47.5058 75.5456 46.5178 75.2616 45.5328C78.5466 53.3868 81.1936 61.4858 83.1005 69.7968C85.4556 80.0578 86.7375 90.5528 86.9455 101.079C86.9655 102.081 86.9635 103.083 86.9625 104.085C86.8975 103.492 86.8316 102.901 86.7676 102.309ZM90.5886 126.602C89.1976 129.044 87.8706 131.52 86.6186 134.035C86.6066 134.06 86.6116 134.087 86.6036 134.112C86.4756 134.322 86.3516 134.533 86.2246 134.743C87.5856 131.981 89.0436 129.267 90.5886 126.602ZM83.7255 138.476C83.7626 138.441 83.8006 138.406 83.8386 138.371C83.7916 138.453 83.7485 138.537 83.7015 138.619C83.7095 138.571 83.7175 138.524 83.7255 138.476ZM55.1666 129.768C53.8666 126.956 52.8225 124.027 52.1205 121.008C51.4095 117.95 51.0826 114.821 50.9356 111.689C50.6416 105.454 50.9835 99.1528 49.9845 92.9678C49.4545 89.6898 48.5625 86.4348 47.1115 83.4388C46.5145 82.2058 45.8026 80.9788 44.9726 79.8398C52.5646 87.0048 56.4675 97.2388 58.9365 107.322C60.4395 113.462 61.5636 119.69 63.1796 125.803C64.7956 131.918 67.0436 137.81 69.8066 143.497C72.0456 148.105 74.5565 152.571 77.1395 156.994C68.5585 148.988 60.1446 140.537 55.1666 129.768ZM64.6115 127.047C61.1905 114.989 59.8755 102.21 54.0745 90.9328C52.2955 87.4748 50.1096 84.1598 47.4395 81.3268C50.3835 83.4428 53.1105 85.8348 55.4475 88.6758C59.3505 93.4228 61.7486 99.0908 63.6856 104.87C65.6486 110.728 67.4475 116.648 69.2626 122.554C71.1236 128.609 72.9315 134.68 74.6395 140.78C75.5885 144.168 76.5186 147.562 77.3946 150.97C78.0016 153.331 78.5656 155.702 79.1386 158.071C73.3106 148.204 67.7565 138.133 64.6115 127.047ZM71.6025 193.69C71.6015 193.676 71.5916 193.664 71.5886 193.651C71.6036 193.649 71.6186 193.648 71.6336 193.649C71.6276 193.672 71.6226 193.694 71.6166 193.717C71.6116 193.708 71.6075 193.699 71.6025 193.69ZM87.7806 212.951C92.1156 205.092 97.9246 198.153 104.882 192.485C111.97 186.709 119.984 182.23 127.893 177.7C135.691 173.233 143.539 168.671 150.344 162.748C152.556 160.823 154.635 158.751 156.551 156.536C155.762 157.701 154.96 158.857 154.129 159.992C148.817 167.242 142.631 173.79 135.765 179.586C128.743 185.514 121.166 190.736 113.78 196.19C106.704 201.414 99.7815 206.882 93.7845 213.345C88.7265 218.796 84.2666 224.868 81.2356 231.672C81.0036 231.955 80.7756 232.24 80.5536 232.532C82.0406 225.705 84.3886 219.099 87.7806 212.951ZM82.9296 229.756C85.5726 224.643 88.9565 219.911 92.8195 215.651C98.6925 209.175 105.54 203.652 112.545 198.458C119.892 193.01 127.473 187.874 134.576 182.103C141.525 176.457 147.856 170.125 153.352 163.05C154.143 162.032 154.915 160.995 155.675 159.948C155.572 160.137 155.473 160.328 155.369 160.517C153.475 163.954 151.443 167.315 149.283 170.591C144.929 177.194 140.086 183.465 134.744 189.299C129.418 195.115 123.637 200.514 117.465 205.422C114.348 207.901 111.132 210.257 107.823 212.473C104.518 214.685 101.101 216.713 97.6995 218.772C92.5025 221.919 87.1556 225.312 82.9296 229.756ZM61.1715 247.52C55.1455 240.257 49.8936 232.363 45.5116 224.005C41.2276 215.833 38.0676 207.235 35.0286 198.543C32.0526 190.032 28.9946 181.45 24.2726 173.721C21.0546 168.453 17.0155 163.652 12.3115 159.637C16.6235 162.839 20.7286 166.313 24.5346 170.134C31.3566 176.984 37.1806 184.737 41.9746 193.126C46.4126 200.891 50.0546 209.076 53.5376 217.304C57.0116 225.511 60.3326 233.792 64.1876 241.832C67.7936 249.352 71.8815 256.677 76.8135 263.414C71.1905 258.535 65.9445 253.272 61.1715 247.52ZM66.3216 243.821C62.4066 235.775 59.0296 227.485 55.5566 219.244C52.0836 211.004 48.5175 202.783 44.2145 194.936C39.6355 186.585 34.1506 178.774 27.5906 171.855C21.7196 165.662 15.0606 159.997 7.78756 155.453C9.52556 156.125 11.2445 156.849 12.9265 157.68C16.9746 159.678 20.8325 162.064 24.4565 164.754C31.8645 170.255 38.2705 177.01 43.7546 184.412C49.6185 192.327 54.4566 200.951 58.7876 209.783C63.0476 218.471 66.9586 227.359 70.6166 236.317C74.2246 245.15 77.4065 254.174 79.3525 263.531C79.5045 264.26 79.6345 264.993 79.7705 265.725C79.7715 265.736 79.7726 265.747 79.7736 265.758C74.4096 259.018 70.0846 251.556 66.3216 243.821Z" fill="#5F5C7C"/>
<path d="M86.6655 241.318L86.6675 241.315V241.312L86.6655 241.314V241.318Z" fill="#5F5C7C"/>
<path d="M88.7315 241.574C88.7115 240.798 88.2465 240.118 87.6005 239.716C86.9465 239.31 86.1275 239.29 85.4505 239.645C85.2575 239.746 85.0915 239.894 84.9395 240.057C84.7445 240.239 84.5685 240.441 84.4655 240.691C84.2745 241.154 84.2445 241.635 84.3505 242.101C84.3975 242.33 84.4825 242.548 84.6035 242.753C84.6715 242.873 84.7485 242.989 84.8405 243.096C84.8425 243.098 84.8435 243.101 84.8455 243.104C84.8515 243.111 84.8595 243.115 84.8655 243.122C85.1575 243.451 85.5445 243.705 85.9655 243.798C86.4755 243.91 86.9995 243.821 87.4525 243.592C87.7415 243.464 87.9995 243.276 88.1965 243.026C88.2065 243.013 88.2125 242.997 88.2225 242.984C88.5465 242.596 88.7445 242.107 88.7315 241.574Z" fill="#5F5C7C"/>
<path d="M86.3405 241.353V241.35L86.3365 241.346L86.3395 241.352L86.3405 241.353Z" fill="#5F5C7C"/>
<path d="M88.1855 236.054C88.1435 235.913 88.0685 235.79 87.9625 235.687L87.7905 235.559C87.6585 235.485 87.5165 235.45 87.3645 235.452C87.2485 235.45 87.1415 235.476 87.0425 235.53C86.9385 235.566 86.8495 235.625 86.7755 235.708C86.6945 235.786 86.6385 235.877 86.6065 235.981C86.5555 236.082 86.5335 236.19 86.5395 236.306L86.5735 236.529C86.6155 236.67 86.6905 236.793 86.7965 236.896C86.8535 236.939 86.9115 236.981 86.9685 237.024C87.1005 237.098 87.2425 237.133 87.3945 237.131C87.5105 237.133 87.6175 237.107 87.7165 237.053C87.8205 237.017 87.9095 236.958 87.9835 236.874C88.0635 236.797 88.1205 236.705 88.1525 236.601C88.2035 236.5 88.2255 236.392 88.2195 236.276L88.1855 236.054Z" fill="#5F5C7C"/>
<path d="M90.8486 238.921C90.8256 238.855 90.7876 238.797 90.7336 238.75C90.7206 238.737 90.7086 238.724 90.6956 238.711C90.6896 238.704 90.6826 238.698 90.6766 238.691C90.6736 238.688 90.6696 238.684 90.6666 238.681C90.6346 238.657 90.6026 238.634 90.5706 238.61C90.5336 238.595 90.4956 238.58 90.4586 238.565C90.3746 238.54 90.3446 238.549 90.2726 238.56C90.1916 238.572 90.2296 238.561 90.1556 238.594C90.1166 238.606 90.0826 238.626 90.0536 238.656C90.0186 238.678 89.9916 238.706 89.9716 238.741C89.9536 238.765 89.9416 238.778 89.9296 238.8C89.9256 238.808 89.9206 238.817 89.9166 238.825C89.9076 238.842 89.8986 238.858 89.8896 238.875C89.8726 238.918 89.8546 238.962 89.8376 239.005C89.8316 239.053 89.8266 239.101 89.8206 239.149C89.8276 239.197 89.8356 239.244 89.8426 239.292C89.8616 239.335 89.8806 239.377 89.8996 239.42C89.9286 239.456 89.9576 239.492 89.9856 239.528C90.0226 239.555 90.0596 239.583 90.0966 239.61C90.1396 239.627 90.1836 239.645 90.2266 239.662C90.2986 239.683 90.3706 239.685 90.4416 239.668C90.4906 239.667 90.5356 239.654 90.5766 239.629C90.6216 239.615 90.6616 239.592 90.6946 239.557C90.7346 239.532 90.7666 239.5 90.7896 239.459C90.8226 239.425 90.8446 239.385 90.8566 239.339C90.8806 239.297 90.8916 239.251 90.8906 239.202C90.9026 239.154 90.9016 239.106 90.8876 239.059C90.8866 239.007 90.8736 238.962 90.8486 238.921Z" fill="#5F5C7C"/>
<path d="M78.2056 118.902C78.5766 117.792 78.2045 116.517 77.7145 115.493C77.4875 115.019 77.1396 114.575 76.6706 114.321C76.1296 114.028 75.4645 114.064 74.9435 114.377C74.8205 114.408 74.6976 114.437 74.5806 114.494C74.0116 114.773 73.5965 115.374 73.4795 115.993C73.3635 116.608 73.4646 117.221 73.6236 117.817C73.6376 118.039 73.6665 118.262 73.7275 118.479C74.0105 119.501 74.6426 120.843 75.7766 121.122C76.4266 121.282 77.1205 121.041 77.5405 120.523C77.7775 120.232 77.9185 119.908 77.9885 119.565C78.0985 119.371 78.1686 119.143 78.2056 118.902Z" fill="#5F5C7C"/>
<path d="M79.6185 120.914C79.6535 120.909 79.6885 120.904 79.7235 120.898L79.7255 120.897C79.6905 120.903 79.6545 120.908 79.6185 120.914Z" fill="#5F5C7C"/>
<path d="M81.3315 121.459C81.1945 121.247 81.0005 121.051 80.7715 120.939C80.4335 120.773 80.0685 120.756 79.7265 120.897C79.7525 120.893 79.7785 120.889 79.8045 120.885C79.7975 120.886 79.7895 120.888 79.7815 120.889C79.7625 120.892 79.7435 120.894 79.7235 120.897C79.7195 120.899 79.7155 120.9 79.7105 120.902C79.5065 120.933 79.2955 120.98 79.1315 121.107C78.9365 121.257 78.7755 121.415 78.6535 121.633C78.5275 121.858 78.4775 122.082 78.4555 122.336C78.4385 122.52 78.4705 122.719 78.5425 122.889C78.6355 123.108 78.7475 123.311 78.9315 123.469C79.1305 123.64 79.3165 123.74 79.5635 123.825C79.9665 123.964 80.4335 123.897 80.8005 123.691C81.5535 123.27 81.7955 122.175 81.3315 121.459Z" fill="#5F5C7C"/>
<path d="M81.5275 117.751C81.4885 117.682 81.4356 117.626 81.3696 117.585C81.3106 117.533 81.2415 117.498 81.1635 117.481C81.0565 117.454 80.9496 117.456 80.8436 117.487C80.7426 117.517 80.6546 117.57 80.5806 117.646C80.5076 117.722 80.4575 117.812 80.4305 117.914C80.4235 117.937 80.4155 117.96 80.4085 117.984C80.3875 118.052 80.3615 118.123 80.3725 118.197C80.3715 118.273 80.3885 118.343 80.4235 118.407C80.4465 118.475 80.4855 118.533 80.5405 118.581C80.5785 118.609 80.6156 118.637 80.6536 118.665C80.7396 118.713 80.8326 118.736 80.9316 118.735C80.9566 118.732 80.9825 118.728 81.0075 118.724C81.0575 118.723 81.1035 118.71 81.1455 118.684C81.1795 118.669 81.1945 118.666 81.2165 118.651C81.2215 118.648 81.2266 118.644 81.2316 118.641C81.2426 118.634 81.2526 118.627 81.2636 118.62C81.2846 118.606 81.3055 118.592 81.3265 118.579C81.4155 118.524 81.4865 118.451 81.5385 118.359C81.5915 118.264 81.6165 118.162 81.6155 118.054C81.6125 117.945 81.5835 117.844 81.5275 117.751Z" fill="#5F5C7C"/>
<path d="M103.222 40.0158C103.104 39.4618 102.797 38.9578 102.491 38.4898C102.387 38.3308 102.212 38.2078 102.021 38.1298C101.876 38.0198 101.728 37.9128 101.552 37.8478C101.396 37.7898 101.229 37.7698 101.061 37.7668C101.059 37.7668 101.057 37.7668 101.055 37.7668C100.71 37.7618 100.359 37.8548 100.081 38.0468C99.8665 38.1948 99.6865 38.3788 99.5315 38.5838C99.3805 38.6768 99.2375 38.7818 99.1115 38.9078C98.3045 39.7178 98.3905 40.9708 99.1385 41.7828C99.1465 41.7918 99.1575 41.7988 99.1655 41.8078C99.4045 42.2868 99.7935 42.6738 100.352 42.8278C100.661 42.9128 100.971 42.9038 101.266 42.8308C101.537 42.8218 101.805 42.7468 102.049 42.5898C102.16 42.5178 102.26 42.4338 102.351 42.3418C102.584 42.1838 102.79 41.9808 102.951 41.7438C103.3 41.2308 103.348 40.6088 103.222 40.0158Z" fill="#5F5C7C"/>
<path d="M105.395 38.2538C105.394 38.2488 105.393 38.2448 105.391 38.2408C105.362 38.1618 105.333 38.0718 105.282 38.0008C105.234 37.9338 105.184 37.8678 105.127 37.8078C105.123 37.8038 105.119 37.7998 105.114 37.7958C104.998 37.6848 104.862 37.6088 104.706 37.5678C104.625 37.5578 104.544 37.5488 104.462 37.5398C104.297 37.5428 104.144 37.5878 104.003 37.6728C103.898 37.7318 103.813 37.8118 103.751 37.9128C103.672 38.0028 103.619 38.1068 103.593 38.2268C103.578 38.2788 103.592 38.3308 103.589 38.3828C103.585 38.3938 103.575 38.4008 103.572 38.4118C103.527 38.5018 103.507 38.5988 103.513 38.7018C103.516 38.7708 103.522 38.8408 103.545 38.9058L103.546 38.9078C103.55 38.9198 103.621 39.0788 103.627 39.0898C103.629 39.0938 103.631 39.0978 103.634 39.1018L103.636 39.1048C103.642 39.1128 103.755 39.2538 103.761 39.2608C103.763 39.2628 103.764 39.2648 103.766 39.2668C103.769 39.2698 103.773 39.2728 103.776 39.2758C103.782 39.2808 103.933 39.3938 103.941 39.3978C103.941 39.3978 103.943 39.3998 103.945 39.3998C103.955 39.4058 104.13 39.4748 104.14 39.4788L104.144 39.4798L104.148 39.4808C104.178 39.4928 104.209 39.5048 104.239 39.5178C104.36 39.5538 104.481 39.5568 104.601 39.5278C104.683 39.5258 104.759 39.5038 104.829 39.4618C104.941 39.4228 105.037 39.3588 105.117 39.2688C105.125 39.2618 105.133 39.2538 105.14 39.2458C105.143 39.2418 105.147 39.2378 105.15 39.2338C105.189 39.1838 105.255 39.0958 105.291 39.0438C105.293 39.0418 105.294 39.0388 105.296 39.0368C105.301 39.0288 105.305 39.0208 105.309 39.0128C105.343 38.9378 105.376 38.8618 105.401 38.7828C105.402 38.7788 105.404 38.7738 105.404 38.7698C105.419 38.6858 105.428 38.6008 105.434 38.5158C105.434 38.5118 105.434 38.5078 105.434 38.5038C105.427 38.4208 105.414 38.3368 105.395 38.2538Z" fill="#5F5C7C"/>
<path d="M103.171 36.2308C103.148 36.1638 103.109 36.1058 103.055 36.0568L102.943 35.9738C102.857 35.9258 102.764 35.9028 102.666 35.9038C102.618 35.9118 102.569 35.9188 102.521 35.9258C102.429 35.9538 102.349 36.0018 102.282 36.0708C102.269 36.0878 102.257 36.1048 102.244 36.1208C102.239 36.1278 102.233 36.1358 102.227 36.1428C102.197 36.1828 102.157 36.2288 102.136 36.2648C102.088 36.3508 102.064 36.4498 102.066 36.5478C102.066 36.5638 102.067 36.5788 102.067 36.5948C102.067 36.6018 102.067 36.6088 102.067 36.6168C102.067 36.6208 102.067 36.6248 102.067 36.6288C102.071 36.7558 102.122 36.8768 102.213 36.9658C102.304 37.0538 102.428 37.1018 102.554 37.0988C102.606 37.0978 102.645 37.0888 102.69 37.0768C102.697 37.0748 102.704 37.0728 102.712 37.0708C102.727 37.0668 102.743 37.0628 102.758 37.0588C102.843 37.0368 102.959 36.9728 103.013 36.9018L103.068 36.8288C103.12 36.7778 103.157 36.7188 103.178 36.6508C103.211 36.5848 103.225 36.5148 103.221 36.4388C103.224 36.3648 103.207 36.2948 103.171 36.2308Z" fill="#5F5C7C"/>
<path d="M108.271 170.387C107.916 169.886 107.395 169.587 106.781 169.548C106.284 169.517 105.776 169.71 105.369 169.986C104.961 170.263 104.612 170.61 104.28 170.972C103.969 171.311 103.661 171.675 103.449 172.084C103.078 172.799 102.993 173.658 103.313 174.379C103.373 174.61 103.479 174.835 103.646 175.043C103.658 175.058 103.673 175.068 103.685 175.082C103.879 175.439 104.197 175.715 104.619 175.828C105.42 176.041 106.133 175.632 106.737 175.125C107.456 174.719 108.074 174.009 108.246 173.195C108.252 173.184 108.261 173.174 108.267 173.162C108.73 172.312 108.861 171.218 108.271 170.387Z" fill="#5F5C7C"/>
<path d="M106.327 172.32L106.326 172.318C106.321 172.316 106.317 172.314 106.312 172.312C106.314 172.314 106.315 172.317 106.316 172.319C106.321 172.319 106.325 172.32 106.327 172.32Z" fill="#5F5C7C"/>
<path d="M111.376 171.916C111.329 171.759 111.246 171.623 111.129 171.508L110.938 171.365C110.791 171.283 110.633 171.244 110.465 171.246C110.336 171.243 110.217 171.272 110.107 171.333C109.992 171.373 109.893 171.439 109.81 171.531C109.72 171.617 109.658 171.718 109.622 171.835C109.566 171.947 109.541 172.068 109.548 172.196C109.561 172.279 109.573 172.361 109.586 172.444C109.633 172.601 109.716 172.737 109.833 172.851C109.897 172.899 109.961 172.946 110.025 172.994C110.172 173.076 110.33 173.116 110.498 173.113C110.627 173.116 110.746 173.087 110.856 173.026C110.971 172.986 111.07 172.92 111.153 172.828C111.243 172.742 111.305 172.64 111.341 172.524C111.397 172.412 111.422 172.291 111.415 172.163C111.401 172.081 111.388 171.998 111.376 171.916Z" fill="#5F5C7C"/>
<path d="M108.536 176.161C107.794 176.266 107.806 177.446 108.557 177.34C109.299 177.236 109.287 176.055 108.536 176.161Z" fill="#5F5C7C"/>
</svg>
