<svg width="165" height="213" viewBox="0 0 165 213" fill="none" xmlns="http://www.w3.org/2000/svg">
<path d="M65.6651 98.6187C65.2112 98.8457 64.7571 99.0727 64.3032 99.2997C83.8321 97.2447 103.372 95.7307 122.9 93.6757C130.61 92.8647 139.009 91.7297 144.357 86.1167C149.013 81.2297 150.245 73.8087 148.977 67.1787C147.709 60.5487 144.258 54.5517 140.528 48.9257C127.826 29.7687 110.976 13.0977 90.6751 2.31666C87.9501 0.869661 84.8852 -0.508339 81.8782 0.184661C78.7082 0.914661 76.4282 3.85766 75.5392 6.98666C74.6502 10.1157 74.8981 13.4397 75.1551 16.6817C68.6781 9.66766 61.2852 2.18466 51.7732 1.36766C43.7452 0.67866 36.1681 4.98966 29.6871 9.77566C25.5671 12.8177 21.3592 16.5837 20.5922 21.6477C19.9722 25.7447 21.7592 29.7837 23.5512 33.5197C31.4962 50.0897 40.3962 66.2027 50.1912 81.7517C54.7421 88.9767 58.9542 93.3387 65.6651 98.6187Z" fill="#FFE7C5"/>
<path d="M92.6671 125.658C94.8031 123.834 96.8681 121.805 98.0261 119.246C99.1841 116.687 99.2741 113.484 97.6121 111.22C95.0221 107.691 89.6871 107.895 85.4911 109.143C75.6991 112.056 67.2601 118.942 62.0601 127.691C60.7681 129.864 55.5021 138.873 58.3501 140.673C59.7261 141.542 65.3731 139.482 66.9101 139.079C69.7691 138.328 72.5771 137.384 75.3091 136.255C81.5981 133.655 87.4891 130.078 92.6671 125.658Z" fill="#CEBBB6"/>
<path d="M24.3451 123.015C22.4211 118.438 19.6021 113.602 14.8331 112.223C9.40714 110.653 3.50914 114.585 1.32814 119.795C-0.852856 125.006 -0.0658535 131.003 1.66415 136.38C4.88515 146.39 11.3611 155.288 19.7691 161.58C22.8621 163.894 28.5811 167.909 30.6591 162.263C32.5241 157.196 30.8521 148.859 30.0851 143.655C29.0431 136.572 27.1191 129.616 24.3451 123.015Z" fill="#CEBBB6"/>
<path d="M156.739 76.1527C153.079 74.0147 148.964 72.9077 145.12 71.1737C144.13 70.7277 143.15 70.2507 142.17 69.7817C142.165 69.7677 142.159 69.7537 142.154 69.7387C142.02 69.3347 141.873 68.9367 141.714 68.5407C141.561 68.1607 141.401 67.7827 141.243 67.4047C141.101 64.3137 140.262 61.1817 139.348 58.3697C136.027 48.1627 129.186 39.4237 121.786 31.8267C120.946 30.9637 120.093 30.1057 119.221 29.2677C119.189 29.2247 119.15 29.1907 119.106 29.1607C116.541 26.7067 113.8 24.4317 110.661 22.7507C108.492 21.5897 106.194 20.8427 103.779 20.4017C101.553 19.9947 99.1972 19.6957 97.2592 18.4637C96.8262 18.0747 96.4352 17.6457 96.1012 17.1667C96.0642 17.0797 96.0292 16.9927 95.9922 16.9067C95.8082 16.4807 95.6122 16.0597 95.4022 15.6457C95.3932 15.6287 95.3832 15.6117 95.3752 15.5947C95.3372 15.2247 95.2912 14.8547 95.2342 14.4857C95.1982 14.2537 95.0402 14.1337 94.8652 14.1047C94.7972 13.5867 94.7592 13.0637 94.6142 12.5677C94.5482 12.3427 94.2492 12.4037 94.1602 12.5667C94.0912 12.6937 94.0432 12.8347 94.0062 12.9817C93.8872 12.6817 93.4452 12.4857 93.1552 12.6467C92.9412 12.7657 92.7362 12.8987 92.5242 13.0197C92.3662 13.0167 92.2072 13.0767 92.0832 13.2497C92.0712 13.2667 92.0592 13.2847 92.0472 13.3017C84.4482 17.7237 77.7952 23.6387 72.5032 30.6297C70.6922 25.7117 70.9012 20.3017 69.1842 15.3487C67.8122 11.3907 65.1262 7.53466 60.8532 6.47566C58.3382 5.85266 55.7032 6.32666 53.2462 6.98066C50.5042 7.71166 47.8042 8.61466 45.1602 9.64366C39.8882 11.6947 34.8262 14.2967 30.0902 17.3907C26.4572 19.7647 22.8872 22.6847 20.8512 26.5997C19.8442 28.5357 19.3322 30.6847 19.4072 32.8677C19.4962 35.4617 20.4692 37.9387 21.7692 40.1537C23.1632 42.5287 24.9432 44.6377 26.7862 46.6727C28.7122 48.7997 30.7062 50.8637 32.7272 52.9007C36.7162 56.9217 40.8322 60.8147 44.7482 64.9077C52.3692 72.8727 59.4642 81.8707 62.6922 92.5797C63.0742 93.8487 63.4042 95.1377 63.7412 96.4197C57.5092 106.605 52.0332 117.237 47.4072 128.251C43.0862 138.54 39.4712 149.13 36.5842 159.912C36.8042 155.7 37.1052 151.489 37.5862 147.299C38.1062 142.769 38.8022 138.261 39.5372 133.761C41.0072 124.773 42.6762 115.8 43.5352 106.726C44.3872 97.7157 44.3942 88.5567 42.5562 79.6607C42.1522 77.7037 41.7422 75.5257 40.1992 74.1157C38.9432 72.9677 37.0342 72.5777 35.5922 73.6177C34.3092 74.5427 33.8452 76.2527 33.6812 77.7467C33.4572 79.7837 33.6072 81.9037 33.7122 83.9447C34.1452 92.3927 35.8552 100.835 38.7912 108.782C38.6042 108.547 38.4192 108.307 38.2302 108.075C36.6562 106.141 34.9762 104.293 33.1992 102.543C31.4052 100.777 29.5142 99.1096 27.5382 97.5507C25.6012 96.0237 23.5732 94.5177 21.4262 93.2967C20.4642 92.7497 19.3442 92.2917 18.2142 92.4317C17.1482 92.5637 16.2762 93.2427 15.7922 94.1867C14.6062 96.4997 16.0282 98.9307 17.3702 100.81C19.9562 104.433 23.2952 107.513 27.0672 109.87C31.3242 112.53 36.1252 114.274 41.1122 114.883C41.3172 114.908 41.4812 114.847 41.6022 114.742C40.8532 120.481 39.8922 126.192 38.9652 131.906C37.5742 140.483 36.1582 149.189 36.0872 157.899C36.0792 158.933 36.1212 159.969 36.1612 161.002C36.1642 161.068 36.2052 161.106 36.2552 161.13C35.7612 163.015 35.2822 164.904 34.8342 166.801C34.6362 167.64 34.4552 168.482 34.2662 169.323C34.1002 169.652 33.9352 169.981 33.7822 170.319C33.2682 169.222 32.5992 168.194 32.0052 167.137C31.3152 165.908 30.6412 164.67 29.9962 163.417C29.3262 162.116 28.6822 160.8 28.0632 159.473C27.9742 153.195 27.8682 146.907 27.1762 140.661C26.8262 137.498 26.3282 134.349 25.6132 131.247C25.2802 129.803 24.9382 128.334 24.4572 126.931C24.1362 125.996 23.6762 125.027 22.9392 124.346C21.1172 122.664 18.6852 124.124 18.1512 126.252C17.8012 127.645 18.0892 129.121 18.2992 130.513C18.5332 132.062 18.8022 133.606 19.1042 135.143C20.2932 141.178 22.0042 147.115 24.2092 152.857C24.4982 153.608 24.8082 154.351 25.1142 155.095C24.9162 154.815 24.7172 154.535 24.5252 154.257C23.2502 152.41 21.9422 150.586 20.6012 148.786C19.3392 147.092 18.0822 145.368 16.6392 143.822C15.4242 142.521 13.9692 141.161 12.2612 140.552C10.9182 140.073 9.0452 140.008 8.1842 141.365C7.2772 142.794 8.2252 144.483 9.0782 145.682C11.3172 148.826 13.9452 151.7 16.8472 154.244C19.8992 156.918 23.2842 159.191 26.8802 161.066C27.2412 161.438 27.6132 161.865 28.0992 162.032C28.1512 162.05 28.2022 162.047 28.2522 162.04C28.2962 162.131 28.3392 162.222 28.3852 162.312C29.1622 163.851 29.9762 165.371 30.8272 166.87C31.6822 168.377 32.5092 170.019 33.7032 171.28C33.7382 171.317 33.7802 171.331 33.8222 171.343C31.2722 183.15 29.6162 195.163 29.0272 207.228C28.9462 208.895 28.8772 210.563 28.8232 212.231C28.8122 212.558 29.3172 212.637 29.3342 212.304C30.0202 198.602 31.9092 184.94 34.8272 171.538C35.0312 170.6 35.2542 169.666 35.4692 168.731C37.1012 166.254 38.5932 163.671 40.2212 161.195C42.2912 158.047 44.4512 154.952 46.7212 151.944C50.1892 147.35 53.9512 142.97 58.0372 138.913C58.1522 138.951 58.2802 138.923 58.3692 138.784C58.4862 138.601 58.6042 138.417 58.7212 138.234C59.4482 137.526 60.1822 136.825 60.9302 136.138C60.9492 136.135 60.9632 136.142 60.9822 136.138C69.1032 134.413 76.9342 131.436 84.1412 127.311C85.9162 126.295 87.6602 125.222 89.3592 124.083C90.7222 123.168 92.3922 122.096 92.5982 120.307C92.7852 118.682 91.7092 117.32 90.0362 117.36C89.1902 117.38 88.3752 117.705 87.5892 117.989C86.6882 118.315 85.7952 118.661 84.9092 119.024C77.6612 121.997 70.9272 126.172 64.8442 131.093C63.7022 132.017 62.5912 132.976 61.4952 133.951C61.4922 133.898 61.4882 133.844 61.4852 133.791C64.7542 128.3 67.5342 122.464 68.1102 116.039C68.1962 115.079 68.2282 114.113 68.2092 113.15C68.1902 112.231 68.1812 111.257 67.8852 110.377C67.3472 108.783 65.5302 108.422 64.2862 109.491C63.5902 110.089 63.2222 110.951 62.9112 111.792C62.5582 112.748 62.2422 113.718 61.9562 114.696C61.3942 116.623 60.9592 118.581 60.6312 120.561C60.2512 122.857 60.0422 125.183 60.0102 127.511C59.9952 128.615 60.0142 129.719 60.0752 130.821C60.1342 131.891 60.1922 132.989 60.4122 134.042C60.0302 134.697 59.6512 135.352 59.2612 136.001C55.3362 139.715 51.7032 143.735 48.3432 147.968C43.8222 153.665 39.7252 159.742 36.0932 166.051C38.8722 154.575 42.4892 143.301 46.9462 132.367C51.9962 119.974 58.0802 107.985 65.1192 96.6007C65.1782 96.6477 65.2502 96.6737 65.3392 96.6247C68.0602 95.1177 71.1542 94.6907 74.2252 94.8457C75.7432 94.9227 77.2542 95.1057 78.7632 95.2707C79.5912 95.3606 80.4192 95.4517 81.2472 95.5427C82.0112 95.6267 82.9092 95.8857 83.6472 95.6327C83.7642 95.5927 83.8402 95.4937 83.8942 95.3817C86.9152 95.7957 89.9282 96.2797 92.9322 96.7937C102.245 98.3867 111.528 100.278 120.948 101.138C130.163 101.979 139.613 101.881 148.624 99.5757C152.545 98.5727 156.737 97.3267 160.039 94.8937C161.503 93.8147 162.771 92.4287 163.513 90.7537C164.279 89.0247 164.414 87.0527 164.017 85.2127C163.145 81.1757 160.208 78.1787 156.739 76.1527ZM16.9812 94.5397C17.7412 95.1177 18.5782 95.6137 19.3682 96.1457C20.2212 96.7206 21.0722 97.3007 21.9182 97.8877C23.6102 99.0607 25.2812 100.265 26.9292 101.498C30.2002 103.946 33.3362 106.555 36.3652 109.295C37.2142 110.063 38.0582 110.838 38.9042 111.61C39.1552 111.839 39.4032 112.07 39.6522 112.3C32.7672 109.501 26.4812 105.321 21.3862 99.8717C19.8072 98.1827 18.4452 96.3326 16.9662 94.5637C16.9702 94.5556 16.9752 94.5477 16.9812 94.5397ZM41.4362 80.0377C43.1822 88.5647 43.2332 97.3487 42.5482 105.996C42.4002 107.856 42.2082 109.711 41.9952 111.563C41.8552 110.851 41.6592 110.149 41.4702 109.444C41.4962 100.756 40.9322 92.0617 40.1492 83.4157C40.0252 82.0417 39.8912 80.6677 39.7472 79.2957C39.6032 77.9207 39.2642 76.4207 39.3842 75.0407C39.3862 75.0157 39.3772 75.0007 39.3762 74.9777C40.7522 76.1927 41.0882 78.3377 41.4362 80.0377ZM38.8582 74.5877C38.6332 74.6367 38.4452 74.8297 38.5552 75.1477C38.9592 76.3077 38.9882 77.6697 39.1312 78.8847C39.2692 80.0537 39.3992 81.2227 39.5232 82.3927C39.7752 84.7737 39.9862 87.1577 40.1672 89.5457C40.5322 94.3597 40.7852 99.1837 40.9262 104.01C40.9612 105.198 40.9852 106.386 41.0092 107.575C40.8322 106.853 40.6502 106.132 40.4842 105.407C39.9182 102.929 39.4162 100.436 38.9792 97.9317C38.1062 92.9237 37.4892 87.8707 37.1392 82.7997C36.9462 80.0017 36.9222 77.1907 36.7042 74.3957C37.3322 74.1037 38.0812 74.1267 38.8582 74.5877ZM35.2042 88.0257C34.9792 85.8367 34.8432 83.6387 34.7952 81.4387C34.7572 79.6877 34.6242 77.7787 35.2462 76.1037C35.4582 75.5317 35.7892 75.0567 36.1952 74.7227C36.0862 77.0397 36.2072 79.3717 36.3382 81.6837C36.4852 84.2617 36.6992 86.8367 36.9812 89.4027C37.5442 94.5357 38.3802 99.6387 39.4832 104.684C39.7852 106.063 40.1062 107.438 40.4472 108.808C40.5692 109.299 40.6902 109.794 40.8182 110.287C37.9262 103.169 35.9892 95.6797 35.2042 88.0257ZM20.7772 94.3117C22.7832 95.4097 24.6592 96.8517 26.4692 98.2417C28.2962 99.6447 30.0522 101.141 31.7282 102.721C33.6282 104.511 35.4302 106.406 37.1162 108.398C37.4062 108.741 37.6832 109.094 37.9642 109.444C37.8512 109.348 37.7422 109.247 37.6292 109.152C36.0482 107.835 34.4482 106.541 32.8292 105.271C29.5592 102.707 26.2452 100.195 22.8332 97.8227C21.8942 97.1697 20.9482 96.5247 19.9932 95.8967C19.1042 95.3117 18.2162 94.6717 17.2762 94.1647C17.3812 94.0587 17.4942 93.9617 17.6252 93.8837C18.6262 93.2817 19.8562 93.8077 20.7772 94.3117ZM20.0182 102.221C19.3662 101.456 18.7492 100.66 18.1712 99.8367C17.4512 98.8117 16.7082 97.6857 16.5752 96.4077C16.5252 95.9237 16.5942 95.3827 16.7912 94.9057C17.8002 96.5687 19.0842 98.0857 20.3752 99.5307C21.7772 101.099 23.2812 102.567 24.8432 103.975C28.0012 106.822 31.5732 109.209 35.3392 111.175C36.9632 112.023 38.6322 112.788 40.3412 113.449C32.5042 112.29 25.1632 108.259 20.0182 102.221ZM22.7562 131.768C22.5042 130.517 22.2472 129.268 21.9822 128.02C21.7402 126.878 21.5722 125.648 21.1662 124.548C21.3802 124.551 21.5992 124.583 21.8212 124.685C22.7102 125.092 23.1962 126.106 23.5202 126.972C24.0202 128.31 24.3292 129.738 24.6472 131.128C25.3122 134.034 25.7852 136.981 26.1232 139.942C26.6862 144.871 26.8812 149.83 26.9862 154.79C26.8142 153.67 26.6112 152.554 26.4322 151.446C26.0762 149.25 25.6972 147.058 25.3082 144.867C24.5282 140.486 23.6352 136.13 22.7562 131.768ZM11.5322 147.579C10.9882 146.91 10.4622 146.227 9.9542 145.53C9.4772 144.875 8.9822 144.198 8.7392 143.415C8.5652 142.853 8.6022 142.248 8.9042 141.796C11.7942 145.429 15.0372 148.821 18.2382 152.178C19.8632 153.883 21.4562 155.618 23.1082 157.297C23.6482 157.846 24.1942 158.39 24.7392 158.935C19.7152 155.962 15.2162 152.113 11.5322 147.579ZM27.0802 160.069C27.0802 160.076 27.0842 160.08 27.0842 160.087C26.7952 159.815 26.5062 159.543 26.2182 159.269C25.3492 158.444 24.4852 157.614 23.6272 156.778C21.9272 155.123 20.2122 153.484 18.5692 151.772C15.3542 148.423 12.3152 144.911 9.1212 141.544C9.2402 141.434 9.3762 141.335 9.5442 141.264C10.2552 140.96 11.1222 141.098 11.8312 141.337C13.4912 141.897 14.9152 143.256 16.0722 144.525C17.3422 145.918 18.4692 147.446 19.6062 148.948C20.9852 150.769 22.3302 152.616 23.6402 154.487C24.3072 155.439 24.9602 156.4 25.6132 157.361C26.0662 158.028 26.5022 158.719 26.9752 159.377C27.0092 159.45 27.0392 159.525 27.0742 159.599C27.0752 159.755 27.0782 159.912 27.0802 160.069ZM26.3922 155.698C26.3692 155.645 26.3442 155.593 26.3222 155.54C24.0642 150.163 22.2412 144.601 20.8962 138.926C20.2282 136.106 19.6752 133.258 19.2412 130.392C19.0382 129.052 18.6902 127.534 19.1462 126.212C19.3712 125.558 19.8752 124.944 20.4982 124.677C20.6072 125.747 20.9632 126.828 21.2132 127.871C21.4722 128.954 21.7262 130.038 21.9762 131.124C22.4742 133.292 22.9252 135.473 23.3552 137.655C24.2062 141.98 24.9792 146.319 25.6642 150.673C25.9242 152.336 26.1232 154.026 26.3922 155.698ZM33.9432 170.679C33.9492 170.681 33.9542 170.685 33.9612 170.686C33.9592 170.694 33.9582 170.701 33.9562 170.708C33.9512 170.699 33.9472 170.689 33.9432 170.679ZM91.2932 119.857C91.2242 119.863 91.1542 119.881 91.0852 119.925C84.2132 124.27 77.0802 128.085 69.7202 131.534C68.0302 132.326 66.3272 133.087 64.6162 133.832C70.9102 129.43 77.6052 125.611 84.6252 122.49C86.7702 121.536 88.9432 120.652 91.1432 119.834C91.2002 119.813 91.2442 119.782 91.2812 119.747C91.2852 119.784 91.2912 119.819 91.2932 119.857ZM90.0892 121.979C88.6582 123.156 87.0032 124.13 85.4222 125.089C79.8182 128.487 73.7512 131.152 67.4742 133.06C73.6902 130.349 79.7542 127.318 85.6942 124.034C87.4702 123.052 89.2282 122.039 90.9752 121.005C90.7412 121.377 90.4242 121.703 90.0892 121.979ZM80.0902 122.656C81.7322 121.826 83.4042 121.055 85.1052 120.352C85.9562 120 86.8142 119.664 87.6782 119.347C88.4252 119.072 89.2222 118.704 90.0282 118.667C90.4482 118.648 90.7812 118.787 91.0042 119.033C90.9462 119.029 90.8852 119.037 90.8202 119.062C83.1062 122.082 75.7042 125.857 68.7692 130.392C66.9112 131.607 65.0982 132.888 63.3162 134.21C63.2152 134.233 63.1142 134.256 63.0132 134.28C68.2262 129.758 73.9272 125.773 80.0902 122.656ZM67.0122 110.744C67.2812 111.564 67.2592 112.524 67.2732 113.378C67.2882 114.293 67.2432 115.209 67.1542 116.119C66.7992 119.764 65.7242 123.3 64.2632 126.646C63.6322 128.091 62.9152 129.495 62.1702 130.885C63.0842 127.864 63.8272 124.778 64.4702 121.696C65.2732 117.845 65.7392 113.949 66.4452 110.084C66.4522 110.046 66.4452 110.014 66.4412 109.981C66.6922 110.133 66.8952 110.389 67.0122 110.744ZM61.2632 123.187C61.6152 119.456 62.4502 115.782 63.7392 112.262C64.0242 111.482 64.3382 110.561 65.0652 110.08C65.2862 109.934 65.5102 109.856 65.7262 109.831C65.7052 109.872 65.6892 109.919 65.6862 109.975C65.5052 113.838 64.7482 117.725 63.9862 121.509C63.2512 125.162 62.3202 128.756 61.3762 132.357C61.2602 131.146 61.1162 129.936 61.0802 128.717C61.0262 126.873 61.0892 125.025 61.2632 123.187ZM152.986 76.0827C156.493 77.6337 160.039 79.8207 161.703 83.4327C161.923 83.9107 162.105 84.4067 162.249 84.9117C162.228 84.9427 162.205 84.9697 162.191 85.0117C161.254 87.8377 158.681 89.6077 155.969 90.5337C152.876 91.5887 149.483 91.9417 146.258 92.3817C139.796 93.2637 133.28 93.7097 126.759 93.7587C120.227 93.8067 113.717 93.4257 107.228 92.6877C100.783 91.9557 94.3472 91.0027 87.8532 90.8377C84.2442 90.7457 80.6242 90.8907 77.0552 91.4617C76.4752 91.5547 75.8922 91.6607 75.3092 91.7727C75.3532 91.6786 75.3982 91.5867 75.4512 91.4977C75.4892 91.4677 75.5292 91.4417 75.5672 91.4117C75.7042 91.3027 75.7792 91.1617 75.8072 91.0137C76.1712 90.6127 76.6382 90.2987 77.1502 90.0917C78.5282 89.8616 79.9112 89.6647 81.2982 89.5097C87.6232 88.8037 93.9952 88.8107 100.349 88.9147C106.673 89.0187 113.014 89.1327 119.333 88.7767C125.296 88.4407 131.73 87.8527 137.127 85.0837C141.465 82.8577 145.75 78.3327 145.559 73.1477C146.083 73.3657 146.611 73.5747 147.139 73.7807C149.091 74.5417 151.07 75.2357 152.986 76.0827ZM56.8642 78.0727C56.8832 78.0787 56.9012 78.0857 56.9192 78.0947C56.9142 78.1097 56.9132 78.1247 56.9092 78.1387C56.8942 78.1167 56.8792 78.0957 56.8642 78.0727ZM60.0842 59.0967C60.1792 58.7587 60.2812 58.4227 60.3772 58.0847C60.3092 58.4527 60.2512 58.8227 60.1902 59.1907C60.1622 59.1497 60.1252 59.1187 60.0842 59.0967ZM64.1912 88.7987C63.8422 79.4167 65.2232 70.0737 67.7952 61.0217C69.3452 55.5637 71.4822 50.3627 73.9692 45.2717C76.4992 40.0927 79.2062 35.0287 82.2082 30.1057C85.1612 25.2617 88.3802 20.5767 91.6462 15.9357C88.2692 25.8597 84.8562 35.7717 81.4402 45.6817C77.8042 56.2297 74.0912 66.7487 70.3502 77.2607C69.3152 80.1697 68.2762 83.0767 67.2342 85.9837C66.8692 87.0007 66.4972 88.0177 66.1272 89.0347C65.7402 89.4927 65.3682 89.9607 65.0062 90.4367C64.7342 89.8897 64.4602 89.3457 64.1912 88.7987ZM96.7102 19.6717C97.2812 20.1537 98.2102 20.8587 99.0132 20.6267C99.1742 20.6787 99.3362 20.7287 99.4982 20.7757C99.4392 20.8587 99.4082 20.9657 99.4392 21.0987C101.826 31.5667 99.9902 42.5427 96.0232 52.3897C92.0082 62.3577 85.7912 71.1907 78.8602 79.3377C76.7532 81.4897 74.6932 83.6917 72.6832 85.9327C71.7462 86.9767 70.8222 88.0497 69.9142 89.1387C76.5792 79.0347 83.6142 69.1407 88.8602 58.1997C94.6512 46.1207 98.1852 32.1597 95.5532 18.7927C95.6392 18.8587 95.7272 18.8977 95.8202 18.9077C95.9902 19.0477 96.1662 19.1797 96.3472 19.3077C96.4672 19.4297 96.5792 19.5607 96.7102 19.6717ZM72.3272 89.4157C72.2852 89.4247 72.2452 89.4377 72.2032 89.4477C72.1952 89.4277 72.1822 89.4107 72.1722 89.3907C72.2102 89.3627 72.2472 89.3347 72.2852 89.3077C72.3022 89.3417 72.3092 89.3817 72.3272 89.4157ZM82.1912 67.8217C81.2882 69.0387 80.5222 70.3567 79.6842 71.6217C78.5672 73.3097 77.4122 74.9737 76.2212 76.6107C74.8692 78.4697 73.4582 80.2857 72.0172 82.0787C75.2462 76.5167 78.2102 70.7967 80.9342 64.9917C85.7132 54.8057 89.5492 44.1777 92.6092 33.3547C93.4702 30.3107 94.3722 27.1927 94.9362 24.0377C95.7822 34.3367 93.2592 44.8837 89.1832 54.3307C87.1702 59.0007 84.7782 63.4657 82.1912 67.8217ZM66.1692 94.9107C66.1902 94.8777 66.2112 94.8457 66.2322 94.8127C66.2512 94.8027 66.2702 94.7917 66.2882 94.7817C66.2612 94.8197 66.2352 94.8577 66.2082 94.8947C66.1952 94.9007 66.1822 94.9047 66.1692 94.9107ZM76.9462 88.5557C76.6052 88.6077 76.2662 88.6777 75.9262 88.7347C82.6292 85.5147 89.6762 83.0297 96.8362 81.0107C106.828 78.1927 117.025 76.2307 127.144 73.9427C131.546 72.9477 136.479 72.0137 139.702 68.6297C139.701 68.7127 139.71 68.7967 139.707 68.8797C139.64 71.1467 139.078 73.3847 137.63 75.1737C136.158 76.9927 134.064 78.1737 131.934 79.0627C126.804 81.2027 121.197 82.2547 115.713 82.9977C110.037 83.7667 104.317 84.1257 98.6142 84.6367C91.3472 85.2877 83.9012 86.2297 76.9462 88.5557ZM71.1862 88.8997C71.4902 88.5787 71.7882 88.2517 72.0902 87.9297C72.0862 87.9537 72.0832 87.9787 72.0802 88.0027C71.7822 88.3017 71.4792 88.5957 71.1862 88.8997ZM94.3742 19.7307C94.1392 23.7287 93.2912 27.6887 92.2572 31.5627C90.8162 36.9647 89.1132 42.2957 87.2132 47.5537C83.4612 57.9327 78.9502 68.0297 73.7042 77.7387C72.3192 80.3027 70.8492 82.8127 69.3482 85.3047C69.1432 85.5457 68.9502 85.7957 68.7442 86.0347C68.2332 86.6267 67.7112 87.2127 67.1912 87.8007C67.2582 87.6187 67.3232 87.4357 67.3902 87.2547C68.3592 84.6297 69.3252 82.0037 70.2882 79.3767C72.2012 74.1607 74.0752 68.9317 75.9702 63.7097C79.7732 53.2287 83.5632 42.7417 87.2372 32.2147C89.2462 26.4577 91.2412 20.6947 93.2232 14.9287C93.7012 16.5157 94.0852 18.1167 94.3742 19.7307ZM141.323 69.9967C141.117 70.2827 141.088 70.7037 141.432 70.9527C142.53 71.7487 143.735 72.3517 144.972 72.8907C144.861 75.2157 144.2 77.4177 142.889 79.3727C141.367 81.6417 139.239 83.3907 136.803 84.6047C134.026 85.9887 130.99 86.7127 127.936 87.1677C124.818 87.6317 121.663 87.8747 118.514 87.9997C107.451 88.4377 96.3792 87.2047 85.3252 87.7467C88.8042 87.0737 92.3302 86.6207 95.8502 86.2707C107.338 85.1297 119.093 84.9997 130.157 81.3367C134.508 79.8957 139.082 77.5827 140.588 72.9117C140.919 71.8837 141.11 70.8217 141.199 69.7447C141.242 69.8287 141.28 69.9147 141.323 69.9967ZM139.677 67.4337C136.754 70.9277 131.791 71.7877 127.585 72.7817C122.572 73.9667 117.546 75.0937 112.538 76.2987C102.658 78.6757 92.7932 81.2167 83.3222 84.9467C80.2622 86.1517 77.2732 87.5147 74.3512 89.0107C74.1812 89.0437 74.0092 89.0667 73.8392 89.1007C73.7912 89.0787 73.7212 89.0457 73.7632 89.0697C73.5472 88.9447 73.4152 88.7747 73.3442 88.5707C75.0082 87.4567 76.7592 86.4597 78.5272 85.5317C83.4932 82.9277 88.5662 80.5167 93.5772 77.9987C98.7872 75.3817 104.032 72.8387 109.253 70.2437C111.901 68.9277 114.549 67.6117 117.197 66.2967C119.713 65.0467 122.255 63.8347 124.695 62.4387C128.962 59.9977 133.129 56.6627 135.269 52.1177C135.603 52.7977 135.926 53.4827 136.23 54.1777C137.28 56.5767 138.15 59.0617 138.76 61.6097C139.212 63.5047 139.581 65.4717 139.677 67.4337ZM127.953 40.6627C130.516 43.9167 132.83 47.3897 134.736 51.0717C133.931 53.2017 132.77 55.0317 131.178 56.6867C129.409 58.5277 127.313 60.0307 125.128 61.3377C122.726 62.7737 120.198 63.9867 117.695 65.2327C115.085 66.5317 112.475 67.8307 109.866 69.1297C104.645 71.7287 99.4532 74.3817 94.2212 76.9567C89.1732 79.4417 84.1012 81.8867 79.1072 84.4777C77.1362 85.5007 75.1832 86.6097 73.3352 87.8587C73.3642 87.7227 73.4022 87.5907 73.4512 87.4617C78.9312 82.2907 85.2242 77.9137 91.0192 73.1437C99.8772 65.8517 108.11 57.4027 113.498 47.1767C116.189 42.0687 118.151 36.5507 119.105 30.8497C122.267 33.9157 125.236 37.2127 127.953 40.6627ZM118.228 30.0067C116.803 40.9517 111.366 50.9867 104.327 59.3557C100.513 63.8897 96.1902 67.9737 91.6542 71.7757C87.3292 75.4007 82.7662 78.7287 78.4032 82.3077C76.9882 83.4687 75.6032 84.6687 74.2572 85.9097C74.3412 85.7347 74.4112 85.5557 74.4612 85.3707C75.2942 84.4577 76.1232 83.5417 76.9412 82.6147C77.3902 82.1057 77.8282 81.5867 78.2722 81.0737C78.4412 80.9037 78.6062 80.7307 78.7762 80.5607C82.8562 76.4817 87.0122 72.4747 91.0202 68.3237C98.6102 60.4627 105.701 51.7757 109.58 41.4347C110.59 38.7417 111.378 35.9577 111.877 33.1247C112.336 30.5177 112.478 27.9027 112.458 25.2647C114.215 26.4447 115.863 27.7997 117.406 29.2187C117.686 29.4747 117.952 29.7467 118.228 30.0067ZM105.222 21.9447C107.431 22.4707 109.481 23.4107 111.402 24.5837C111.789 29.6947 110.767 34.9667 109.11 39.7847C107.407 44.7357 104.928 49.3847 101.978 53.7007C96.7662 61.3267 90.2632 67.8937 83.7492 74.4087C85.1632 72.5877 86.5442 70.7427 87.8522 68.8437C94.0682 59.8147 98.7972 49.7547 100.569 38.8757C101.532 32.9627 101.507 26.8927 100.38 21.0037C101.98 21.3737 103.631 21.5657 105.222 21.9447ZM77.9252 26.2017C81.5582 22.3027 85.6872 18.8657 90.1692 15.9817C84.1672 24.6207 78.6182 33.6417 74.1202 43.1477C71.6722 48.3207 69.6882 53.7607 67.9322 59.2037C66.2152 64.5227 64.9722 69.9917 64.2632 75.5367C63.7462 79.5787 63.5472 83.6547 63.6732 87.7227C63.2252 86.7597 62.7642 85.7957 62.3232 84.8247C60.2732 76.0257 60.0522 66.8177 61.7362 57.9137C63.9792 46.0527 69.7072 35.0217 77.9252 26.2017ZM66.9362 13.3447C69.2982 17.9507 69.2342 23.2127 70.4002 28.1557C70.6992 29.4237 71.0842 30.6657 71.5822 31.8687C70.2232 33.7527 68.9582 35.7067 67.8002 37.7277C66.7872 39.4947 65.8742 41.3097 65.0402 43.1587C65.3682 42.0607 65.6852 40.9597 65.9772 39.8517C67.8852 32.6007 68.9792 25.0067 66.9292 17.6587C65.9672 14.2117 64.3332 10.9547 62.0082 8.23466C62.3372 8.38266 62.6612 8.54666 62.9732 8.74666C64.7062 9.85666 66.0062 11.5297 66.9362 13.3447ZM56.2262 7.64266C57.5872 7.43566 58.9792 7.41566 60.3062 7.68866C60.3332 7.75466 60.3742 7.81966 60.4372 7.88266C65.6112 13.0397 67.4992 20.6587 67.3032 27.7777C67.0892 35.5387 64.6832 42.8717 62.3042 50.1867C61.2262 53.5007 60.0822 56.8447 59.2732 60.2497C59.3212 57.9087 59.3982 55.5667 59.4572 53.2267C59.5842 48.2327 59.5822 43.2117 58.8722 38.2567C58.1702 33.3557 56.7922 28.5387 54.8502 23.9857C52.7822 19.1377 50.0562 14.5587 46.7802 10.4287C47.3702 10.2097 47.9522 9.97166 48.5472 9.76566C51.0422 8.90366 53.6092 8.04166 56.2262 7.64266ZM45.7982 10.7977C52.0492 18.4037 56.1902 27.5577 57.8622 37.2607C59.2242 45.1657 58.6962 53.1567 58.5512 61.1327C58.5412 61.1497 58.5212 61.1577 58.5142 61.1767C58.1852 62.0737 58.2042 63.0447 58.1692 63.9867C58.1342 64.9397 58.0952 65.8917 58.0792 66.8447C58.0452 68.7957 58.0122 70.7467 57.9782 72.6967C57.9712 73.1137 57.9672 73.5307 57.9612 73.9477C57.7092 73.2067 57.4562 72.4667 57.2032 71.7267C55.4542 66.6087 53.6522 61.5067 51.7782 56.4337C50.0032 51.6297 48.2152 46.8257 46.2962 42.0777C44.5742 37.8167 42.6882 33.6077 40.3752 29.6297C37.9282 25.4207 34.9382 21.2757 31.0912 18.2287C34.1602 16.1957 37.4572 14.4587 40.7602 12.9187C42.4122 12.1487 44.0982 11.4547 45.7982 10.7977ZM30.6482 18.5177C33.9002 21.6007 36.7232 24.9747 39.0592 28.8127C41.4342 32.7137 43.3162 36.8917 45.0182 41.1227C46.8702 45.7257 48.5512 50.3997 50.2312 55.0677C52.0502 60.1207 53.8322 65.1867 55.5482 70.2757C56.1442 72.0447 56.7202 73.8217 57.2942 75.5997C55.0882 71.2577 52.7912 66.9527 50.2762 62.7807C47.7172 58.5347 44.9612 54.4027 41.9242 50.4827C38.8072 46.4587 35.2642 42.8487 31.8952 39.0447C28.1692 34.8367 24.7202 30.0207 23.9132 24.3277C24.9752 23.0467 26.2012 21.8897 27.4672 20.8657C28.4882 20.0397 29.5532 19.2597 30.6482 18.5177ZM26.8782 44.8657C23.5622 41.0957 20.0932 36.3877 20.7562 31.0707C21.0452 28.7507 22.0912 26.6897 23.4912 24.8667C24.1832 29.5237 26.6252 33.6987 29.5542 37.3227C32.7572 41.2867 36.4382 44.8317 39.6202 48.8167C45.9202 56.7047 50.9712 65.5107 55.5272 74.4947C55.7812 74.9957 56.0212 75.5037 56.2712 76.0077C55.9362 75.7257 55.6142 75.4257 55.3042 75.1417C54.8482 74.7247 54.3782 74.3017 53.9262 73.8657C52.6072 72.1007 51.2222 70.3857 49.7822 68.7187C42.5682 60.3687 34.1632 53.1477 26.8782 44.8657ZM162.452 88.7987C162.107 90.4877 161.068 91.9507 159.778 93.0597C156.807 95.6137 152.72 96.8667 149.012 97.8867C140.279 100.291 131.063 100.551 122.08 99.8387C112.893 99.1107 103.831 97.3587 94.7582 95.8177C90.2092 95.0447 85.6472 94.3087 81.0592 93.8047C79.2842 93.6097 77.4862 93.4467 75.6922 93.3997C75.6022 93.3077 75.4952 93.2317 75.3592 93.2037C75.2532 93.1816 75.1482 93.1597 75.0422 93.1377C75.0502 93.0877 75.0622 93.0387 75.0602 92.9847C75.0542 92.8467 75.0602 92.7107 75.0752 92.5797C75.5722 92.4787 76.0652 92.3687 76.5692 92.2887C79.8682 91.7607 83.2252 91.5647 86.5632 91.6027C93.1352 91.6777 99.6522 92.6257 106.167 93.3927C119.275 94.9377 132.437 94.9847 145.532 93.2567C147.373 93.0137 149.21 92.7367 151.041 92.4277C152.84 92.1227 154.644 91.7917 156.374 91.1977C158.895 90.3317 161.302 88.7597 162.54 86.3707C162.633 87.1747 162.617 87.9907 162.452 88.7987Z" fill="#5F5C7C"/>
<path d="M101.714 123.863C101.28 123.132 100.445 122.915 99.6642 123.074C99.2682 123.046 98.8632 123.105 98.5082 123.293C97.7472 123.695 97.1952 124.415 96.7732 125.149C96.5072 125.612 96.3492 126.112 96.4022 126.653C96.4482 127.131 96.7182 127.563 97.0812 127.866C97.7182 128.397 98.6872 128.451 99.4292 128.134C100.18 127.813 100.77 127.162 101.262 126.529C101.852 125.77 102.247 124.761 101.714 123.863Z" fill="#CEBBB6"/>
<path d="M103.038 119.886C103.025 119.841 103.014 119.797 103 119.753C102.994 119.735 102.989 119.718 102.983 119.7C102.942 119.63 102.9 119.561 102.859 119.491C102.801 119.434 102.744 119.377 102.686 119.32C102.615 119.279 102.544 119.238 102.473 119.197C102.353 119.142 102.228 119.121 102.099 119.134C102.014 119.124 101.932 119.135 101.853 119.169C101.77 119.182 101.696 119.214 101.63 119.265C101.554 119.298 101.491 119.348 101.44 119.413C101.346 119.494 101.276 119.594 101.232 119.713C101.227 119.731 101.221 119.748 101.215 119.766C101.214 119.77 101.212 119.774 101.211 119.778C101.189 119.862 101.167 119.946 101.145 120.03C101.145 120.032 101.145 120.035 101.145 120.037L101.148 120.297C101.162 120.426 101.207 120.542 101.28 120.646C101.314 120.724 101.365 120.789 101.432 120.84C101.46 120.872 101.491 120.903 101.523 120.93C101.595 120.972 101.668 121.013 101.74 121.055C101.862 121.111 101.989 121.132 102.12 121.119C102.207 121.129 102.29 121.117 102.37 121.083C102.494 121.059 102.605 121.005 102.703 120.923L102.706 120.92C102.764 120.861 102.822 120.802 102.881 120.744C102.965 120.642 103.018 120.527 103.039 120.4C103.072 120.317 103.083 120.232 103.07 120.144C103.073 119.974 103.084 120.047 103.038 119.886Z" fill="#CEBBB6"/>
<path d="M105.678 123.723C105.657 123.616 105.611 123.519 105.539 123.434C105.474 123.344 105.391 123.275 105.292 123.229C105.228 123.185 105.151 123.17 105.076 123.152C105.066 123.14 105.066 123.123 105.055 123.112C104.974 123.032 104.864 122.967 104.747 122.958C104.699 122.959 104.651 122.959 104.603 122.96C104.51 122.974 104.426 123.01 104.352 123.068C104.098 123.221 103.925 123.466 103.793 123.725C103.82 123.677 103.848 123.63 103.875 123.582C103.801 123.705 103.717 123.83 103.673 123.969C103.604 124.182 103.581 124.387 103.609 124.611C103.62 124.71 103.654 124.8 103.711 124.88C103.753 124.967 103.815 125.039 103.896 125.096C103.952 125.128 104.008 125.16 104.064 125.192C104.191 125.243 104.322 125.26 104.458 125.24C104.694 125.219 104.923 125.112 105.112 124.974C105.23 124.888 105.322 124.781 105.403 124.665C105.502 124.578 105.585 124.476 105.629 124.357C105.665 124.258 105.689 124.155 105.71 124.052C105.729 123.938 105.718 123.828 105.678 123.723Z" fill="#CEBBB6"/>
<path d="M32.9972 129.989C32.7772 129.895 32.5372 129.859 32.2962 129.85C32.1092 129.803 31.9132 129.778 31.6962 129.808C30.3532 129.99 30.0832 131.466 30.1432 132.581C30.2102 133.837 30.5812 135.338 31.9262 135.785C32.5432 135.99 33.1572 135.911 33.6632 135.558C33.6662 135.556 33.6692 135.556 33.6722 135.554C33.7392 135.514 33.7912 135.466 33.8412 135.417C33.8852 135.378 33.9352 135.353 33.9772 135.309C34.3912 134.871 34.5272 134.223 34.5482 133.639C34.5952 132.262 34.4522 130.609 32.9972 129.989Z" fill="#CEBBB6"/>
<path d="M30.3431 125.378C30.3211 125.301 30.3001 125.225 30.2781 125.148C30.2381 125.08 30.1981 125.013 30.1581 124.945C30.1021 124.89 30.0461 124.834 29.9901 124.779C29.9211 124.739 29.8521 124.7 29.7831 124.66C29.6661 124.607 29.5451 124.587 29.4201 124.599C29.3371 124.589 29.2581 124.601 29.1811 124.633C29.1011 124.645 29.0291 124.676 28.9651 124.726C28.8911 124.758 28.8301 124.806 28.7811 124.87C28.7171 124.92 28.6701 124.983 28.6391 125.058C28.5891 125.124 28.5581 125.199 28.5481 125.281C28.5161 125.359 28.5061 125.441 28.5181 125.524C28.5081 125.607 28.5201 125.686 28.5521 125.763C28.5751 125.881 28.6261 125.987 28.7051 126.081C28.7331 126.117 28.7601 126.154 28.7881 126.19C28.8771 126.303 28.9881 126.387 29.1201 126.442C29.2241 126.489 29.3311 126.507 29.4411 126.496C29.5491 126.504 29.6541 126.485 29.7541 126.437C29.8851 126.38 29.9941 126.295 30.0801 126.182C30.1081 126.146 30.1361 126.109 30.1641 126.072C30.2041 126.003 30.2431 125.934 30.2831 125.865C30.3041 125.785 30.3251 125.706 30.3461 125.626C30.3451 125.542 30.3441 125.46 30.3431 125.378Z" fill="#FFE7C5"/>
<path d="M156.065 62.7047C155.973 62.0637 155.768 61.4137 155.485 60.8737C155.366 60.6457 155.219 60.4327 155.052 60.2427C154.962 60.1127 154.852 60.0107 154.747 59.9007C154.506 59.5237 154.234 59.1707 153.892 58.8887C153.047 58.1887 151.77 58.0477 150.889 58.7567C150.155 59.3467 149.948 60.3177 149.814 61.1987C149.654 62.2497 149.514 63.3667 149.756 64.4167C149.887 64.9827 150.143 65.5327 150.49 66.0087C150.61 66.2907 150.768 66.5587 150.984 66.7967C151.397 67.2517 151.929 67.5367 152.497 67.6207C152.565 67.6417 152.624 67.6797 152.694 67.6967C153.629 67.9137 154.574 67.5577 155.24 66.8947C156.426 65.7147 156.491 64.1677 156.065 62.7047Z" fill="#FFE7C5"/>
<path d="M146.649 55.2997C146.633 55.2507 146.625 55.1997 146.612 55.1497C146.606 55.1307 146.596 55.1127 146.59 55.0927C146.61 55.1617 146.63 55.2307 146.649 55.2997Z" fill="#FFE7C5"/>
<path d="M150.653 54.0917C150.587 53.7577 150.469 53.4847 150.28 53.2027C150.088 52.9167 149.8 52.7117 149.498 52.5567C149.172 52.3887 148.775 52.3327 148.413 52.3787C147.979 52.4337 147.615 52.6637 147.33 52.9847C147.29 53.0297 147.26 53.0827 147.226 53.1317C147.11 53.1777 147.028 53.2407 146.938 53.3317C146.826 53.4447 146.73 53.5957 146.668 53.7407C146.472 54.1977 146.488 54.6817 146.612 55.1497C146.692 55.4167 146.81 55.6697 147 55.8797C147.208 56.1097 147.433 56.2887 147.719 56.4147C148.117 56.5907 148.582 56.5997 149.005 56.4847C149.186 56.4647 149.364 56.4277 149.537 56.3487C149.824 56.2167 150.084 56.0147 150.273 55.7607C150.479 55.4837 150.585 55.1917 150.655 54.8567C150.672 54.7747 150.68 54.6917 150.681 54.6077C150.682 54.4367 150.686 54.2597 150.653 54.0917Z" fill="#FFE7C5"/>
<path d="M157.846 54.0837C157.715 53.9097 157.52 53.7977 157.313 53.7437C157.229 53.7097 157.141 53.6987 157.051 53.7117C156.929 53.7027 156.812 53.7287 156.698 53.7787C156.593 53.7367 156.484 53.7027 156.349 53.6717C156.164 53.6287 155.967 53.6297 155.78 53.6517C155.725 53.6577 155.676 53.6837 155.623 53.6957C155.598 53.7027 155.569 53.7077 155.545 53.7177C154.967 53.8767 154.485 54.3267 154.258 54.8737C153.989 55.5197 154.072 56.3247 154.527 56.8687C154.749 57.1337 155.031 57.3467 155.353 57.4757C155.699 57.6147 156.042 57.6487 156.41 57.6267C157.175 57.5817 157.861 57.0267 158.138 56.3267C158.431 55.5827 158.325 54.7237 157.846 54.0837Z" fill="#FFE7C5"/>
</svg>
