<svg width="125" height="213" viewBox="0 0 125 213" fill="none" xmlns="http://www.w3.org/2000/svg">
<path d="M119.697 87.9526C119.588 87.8056 119.453 87.6696 119.273 87.5536C117.842 86.6296 116.395 88.2186 115.598 89.2496C115.158 89.8176 114.779 90.4356 114.454 91.0776C114.175 91.6286 113.908 92.2236 113.863 92.8476C113.807 93.6096 114.082 94.3696 114.801 94.7246C115.538 95.0886 116.365 94.7946 116.974 94.3216C117.512 93.9036 117.982 93.3516 118.401 92.8166C118.835 92.2616 119.21 91.6656 119.543 91.0456C119.887 90.4056 120.327 89.6136 120.211 88.8586C120.154 88.4876 119.976 88.1776 119.697 87.9526Z" fill="#FFE7C5"/>
<path d="M121.958 83.4256C121.873 83.3166 121.766 83.2356 121.639 83.1826C121.555 83.1486 121.465 83.1556 121.377 83.1506C121.336 83.1166 121.295 83.0816 121.249 83.0646C120.986 82.9696 120.704 83.0746 120.576 83.3226C120.356 83.4456 120.157 83.6136 119.987 83.7956C119.845 83.9476 119.736 84.1346 119.653 84.3246C119.598 84.4516 119.567 84.5886 119.535 84.7216C119.499 84.8686 119.509 84.9996 119.513 85.1546C119.535 85.3006 119.592 85.4326 119.682 85.5486C119.773 85.6646 119.887 85.7516 120.024 85.8086C120.289 85.9176 120.64 85.8876 120.862 85.6936C120.946 85.6206 121.025 85.5396 121.099 85.4556C121.115 85.4376 121.122 85.4136 121.136 85.3936C121.331 85.2826 121.512 85.1486 121.661 84.9846C121.772 84.8616 121.854 84.7116 121.932 84.5666C122.013 84.4156 122.052 84.2536 122.094 84.0886C122.142 83.8576 122.113 83.6236 121.958 83.4256Z" fill="#FFE7C5"/>
<path d="M122.065 84.2086C122.078 84.1706 122.083 84.1316 122.091 84.0936C122.076 84.1516 122.061 84.2106 122.045 84.2686C122.051 84.2486 122.058 84.2286 122.065 84.2086Z" fill="#FFE7C5"/>
<path d="M122.098 84.0676C122.096 84.0756 122.094 84.0826 122.092 84.0906L122.091 84.0946C122.094 84.0846 122.096 84.0756 122.098 84.0676Z" fill="#FFE7C5"/>
<path d="M26.9285 28.0076C26.6165 27.1036 26.1815 26.2486 25.6645 25.4456C25.1985 24.7226 24.3675 24.0286 23.5125 24.2976C23.4265 24.2766 23.3405 24.2566 23.2495 24.2486C22.8725 24.2136 22.5445 24.3156 22.2795 24.5046C21.9945 24.5746 21.7695 24.8066 21.7515 25.1606C21.6335 25.4086 21.5595 25.6836 21.5505 25.9666C21.5205 26.9236 21.6845 27.9146 21.9535 28.8726C21.9845 29.3426 22.0445 29.8116 22.1515 30.2736C22.4845 31.7036 23.2365 33.9506 24.9665 34.1586C25.4425 34.2156 25.8875 34.0956 26.2655 33.8576C26.5585 33.7506 26.7625 33.5346 26.8955 33.2696C26.9755 33.1626 27.0495 33.0516 27.1125 32.9326C27.2685 32.6356 27.3405 32.3106 27.3805 31.9796C27.7985 30.7476 27.3225 29.1486 26.9285 28.0076Z" fill="#FFE7C5"/>
<path d="M121.799 43.8356C117.499 29.6096 107.456 17.3396 94.7134 9.6916C81.9714 2.0436 66.6824 -1.0514 51.8834 0.312598C46.8744 0.774598 41.8304 1.75761 37.3734 4.08961C32.9164 6.42261 29.0754 10.2406 27.5384 15.0306C25.9064 20.1146 26.9854 25.6436 28.3884 30.7956C31.6524 42.7816 36.6304 54.2966 43.1034 64.8986C45.8904 69.4626 48.0614 73.0966 52.7184 75.6216C58.3144 78.6556 63.6484 82.1196 69.3334 85.0146C76.1214 88.4726 83.1114 91.5346 90.2564 94.1786C95.6974 96.1916 101.769 97.9596 107.182 95.8726C111.343 94.2676 114.376 90.6236 116.697 86.8156C124.431 74.1266 126.098 58.0616 121.799 43.8356Z" fill="#FFE7C5"/>
<path d="M79.8044 124.334C83.0704 122.939 86.2974 121.278 88.8174 118.775C91.3374 116.272 93.0864 112.804 92.8344 109.261C92.4784 104.258 88.1394 100.193 83.3094 98.8396C78.4794 97.4866 73.2984 98.3655 68.5024 99.8365C57.6654 103.16 47.8124 109.59 40.3274 118.094C37.0674 121.797 33.3824 126.43 39.4904 129.39C44.6294 131.88 52.6194 130.677 58.0854 130.055C65.5494 129.206 72.8954 127.287 79.8044 124.334Z" fill="#CEBBB6"/>
<path d="M32.5474 60.1216C31.6964 50.6806 27.0944 41.6286 19.9684 35.3776C17.2274 32.9736 13.4584 30.8856 10.0784 32.2516C6.21942 33.8116 5.26542 38.7966 5.29242 42.9586C5.36442 53.7896 8.29343 71.2326 17.5234 78.3346C29.9264 87.8796 33.3294 68.7976 32.5474 60.1216Z" fill="#CEBBB6"/>
<path d="M120.036 61.3076C120.095 59.6156 120.03 57.9146 119.912 56.2316C119.748 53.8956 119.429 51.5796 118.936 49.2896C117.964 44.7756 116.406 40.3826 114.26 36.2936C112.381 32.7136 109.828 29.1356 105.957 27.5566C101.903 25.9036 97.2505 26.6826 93.3644 28.4306C89.3794 30.2236 85.9944 33.0286 82.4974 35.6136C82.9304 34.9106 83.3344 34.1906 83.7165 33.4836C84.6355 31.7866 85.4075 30.0096 85.8845 28.1366C86.6935 24.9636 86.5435 21.3566 84.8675 18.4776C83.0525 15.3586 79.6504 13.8846 76.3384 12.8946C74.0744 12.2186 71.7614 11.7176 69.4234 11.3866C69.4134 11.3786 69.4054 11.3696 69.3954 11.3616C69.3444 11.3186 69.2865 11.3306 69.2374 11.3596C67.6245 11.1376 66.0005 10.9956 64.3715 10.9436C62.1175 10.8706 59.8564 10.9526 57.6144 11.1976C56.5164 11.3176 55.4235 11.4766 54.3364 11.6736C53.2344 11.8746 52.0185 12.0146 51.0265 12.5526C50.9195 12.6106 50.8484 12.7256 50.8224 12.8486C47.9714 12.2096 45.0424 12.0996 42.1444 12.9376C39.6714 13.6526 37.4934 15.0836 35.8824 17.0936C34.3494 19.0056 33.3745 21.3136 32.8624 23.6976C31.6134 29.5166 33.3534 35.4726 35.2684 40.9406C37.1924 46.4376 39.4985 51.7986 42.1625 56.9776C44.2975 61.1266 46.7005 65.1326 49.3045 69.0036C49.7015 69.7286 50.1074 70.4486 50.5334 71.1576C50.5014 71.5236 50.3844 71.8906 50.2495 72.2216C49.9104 73.0536 49.4844 73.8606 49.0864 74.6656C48.2435 76.3696 47.3454 78.0476 46.3924 79.6936C46.3284 79.8046 46.2965 79.9236 46.3045 80.0386C41.9295 86.3476 37.8904 92.8756 34.1424 99.5846C29.4554 107.975 25.2155 116.615 21.4405 125.453C21.3965 125.556 21.3544 125.659 21.3104 125.762C21.8914 123.488 22.3184 121.171 22.7394 118.865C23.3114 115.729 23.8034 112.578 24.2134 109.417C24.4994 107.217 24.7285 105.009 24.9314 102.799C24.9384 102.771 24.9514 102.748 24.9524 102.716C24.9654 102.469 24.9884 102.223 25.0044 101.976C25.0244 101.75 25.0465 101.525 25.0655 101.299C29.0335 97.4246 32.6714 93.1446 35.9364 88.6696C39.3594 83.9776 42.3405 78.9386 44.5424 73.5566C44.9925 72.4566 45.4495 71.3396 45.4415 70.1306C45.4355 69.1516 45.0585 68.1516 44.0785 67.7776C42.7695 67.2776 41.4855 68.2266 40.5375 69.0296C39.5055 69.9036 38.5155 70.8266 37.5655 71.7896C33.7685 75.6406 30.6565 80.1426 28.3715 85.0446C27.2205 87.5136 26.2865 90.0866 25.5815 92.7216C25.6105 91.9616 25.6495 91.2016 25.6684 90.4416C25.7854 85.9036 25.7444 81.3646 25.5434 76.8306C26.0525 76.5276 26.4595 76.0086 26.7345 75.4526C27.3575 74.1946 27.7265 72.7606 28.0665 71.4046C29.5055 65.6766 29.2684 59.5186 27.3804 53.9226C25.7074 48.9676 22.7334 44.4746 18.8755 40.9496C17.9214 40.0776 16.9104 39.2696 15.8534 38.5266C15.4354 38.2326 14.9715 38.7126 15.1245 39.0836C14.9205 39.1156 14.7224 39.1966 14.5464 39.3356C14.1354 39.6606 13.9594 40.2006 13.8784 40.6986C13.7724 41.3576 13.7944 42.0496 13.7804 42.7156C13.7654 43.4406 13.7644 44.1656 13.7744 44.8906C13.8144 47.8026 14.0634 50.7106 14.5164 53.5866C15.4304 59.3816 17.1715 65.0416 19.6615 70.3536C20.2845 71.6836 20.9565 72.9906 21.6755 74.2716C22.2415 75.2786 22.8624 76.6386 24.0624 77.0126C24.2824 77.0816 24.4895 77.0956 24.6895 77.0876C24.8625 80.5926 24.9495 84.1026 24.9265 87.6116C24.9045 90.9366 24.7775 94.2616 24.5685 97.5816C24.4115 98.5936 24.2775 99.6096 24.1905 100.63C24.1645 100.935 24.1555 101.241 24.1365 101.546C24.0685 101.624 24.0765 101.719 24.1215 101.796C24.1065 102.067 24.0824 102.336 24.0734 102.607C24.0704 102.715 24.1064 102.802 24.1564 102.875C24.0684 103.838 23.9855 104.801 23.8835 105.762C23.2445 111.767 22.2924 117.719 21.1284 123.644C20.8434 125.097 20.5594 126.537 20.3374 128C20.3344 128.019 20.3464 128.032 20.3504 128.049C17.0424 136.021 14.1114 144.149 11.5714 152.399C10.8894 154.614 10.2374 156.839 9.61345 159.072C9.49545 159.301 9.38045 159.532 9.26345 159.761C10.0115 152.806 10.4074 145.814 10.5844 138.821C10.6434 136.47 10.6704 134.118 10.6774 131.765C12.7354 127.13 13.8624 122.093 14.0564 117.026C14.2835 111.107 13.2914 105.132 11.0854 99.6306C9.83445 96.5086 8.18345 93.5466 6.17245 90.8496C5.95545 90.5586 5.60045 90.6626 5.44145 90.8946C4.85445 90.6516 4.19045 90.7816 3.77145 91.3136C3.27445 91.9436 3.18445 92.8546 3.03045 93.6146C2.66245 95.4336 2.36945 97.2686 2.16445 99.1126C1.75145 102.818 1.68645 106.561 1.94345 110.279C2.45345 117.674 4.29345 124.995 7.40345 131.726C7.78745 132.558 8.19245 133.38 8.61445 134.193C8.81545 134.581 9.30845 134.559 9.50745 134.186C9.54645 134.112 9.57945 134.035 9.61845 133.961C9.60645 134.851 9.60645 135.742 9.58745 136.632C9.41045 144.82 8.84945 152.982 8.19945 161.144C8.17045 161.505 8.13945 161.866 8.11045 162.227C8.06745 162.327 8.02345 162.426 7.97945 162.526C7.93045 162.639 7.98445 162.726 8.06545 162.765C8.02845 163.211 7.99345 163.657 7.95445 164.103C7.93845 164.295 8.03745 164.427 8.17045 164.491C6.82345 169.718 5.62045 174.982 4.58645 180.279C2.74945 189.684 1.25045 199.25 0.642449 208.82C0.567449 210.006 0.513451 211.193 0.463451 212.381C0.439451 212.946 1.28745 213.067 1.34745 212.489C2.33545 203.007 3.40245 193.545 5.09945 184.159C6.73945 175.088 8.85045 166.107 11.3984 157.249C13.4594 153.739 15.6634 150.321 18.1314 147.068C21.8274 142.197 25.9985 137.683 30.5535 133.604C33.5085 130.958 36.6294 128.495 39.8924 126.239C46.3124 127.391 52.9824 127.101 59.3094 125.549C65.6824 123.986 71.7434 121.179 77.0164 117.268C79.9784 115.071 82.6795 112.524 85.0304 109.682C85.3384 109.31 84.9695 108.797 84.5335 108.841C84.2315 108.871 83.9315 108.91 83.6305 108.943C83.5785 108.866 83.5135 108.8 83.4215 108.775C77.0045 107.039 70.2124 107.384 63.8585 109.225C57.7305 111.001 52.1165 114.223 47.1375 118.175C44.3705 120.372 41.8014 122.81 39.3964 125.396C39.3584 125.437 39.3324 125.481 39.3134 125.526C36.6594 127.371 34.0985 129.349 31.6485 131.459C29.9775 132.898 28.3594 134.398 26.7934 135.949C27.8724 133.498 29.0164 131.092 30.4464 128.81C32.1824 126.039 34.2104 123.393 36.5344 121.087C41.1824 116.475 46.9225 113.205 51.8615 108.946C54.3074 106.836 56.6784 104.427 58.1874 101.54C59.6204 98.7996 60.0304 95.4726 58.1464 92.8406C57.3734 91.7606 56.2604 90.8986 54.9614 90.5716C53.5774 90.2236 52.1634 90.5756 50.9774 91.3286C50.0784 91.8986 49.3234 92.6786 48.6584 93.5166C47.1104 92.7336 45.2765 93.1036 43.8615 94.0116C42.2125 95.0696 41.2635 96.8966 40.6235 98.6906C39.8694 100.805 39.3045 103.005 38.7345 105.175C38.1474 107.407 37.6215 109.656 37.2315 111.932C37.0115 113.22 36.8335 114.515 36.7114 115.817C36.6045 116.96 36.5025 118.133 36.5545 119.286C36.5325 119.459 36.5055 119.631 36.4855 119.804C36.4715 119.932 36.5094 120.034 36.5724 120.111C34.5135 122.309 32.5385 124.534 30.8445 127.039C29.1035 129.615 27.6145 132.363 26.4575 135.25C26.2445 135.781 26.0614 136.318 25.8904 136.861C23.3984 139.396 21.0414 142.066 18.8414 144.861C16.4704 147.873 14.2494 151.029 12.2584 154.319C14.8104 145.802 17.7635 137.407 21.1195 129.172C24.7165 120.347 28.7724 111.71 33.2694 103.308C35.5444 99.0576 37.9374 94.8716 40.4244 90.7426C42.5224 87.2586 44.7404 83.8546 46.9454 80.4396C46.9904 80.4226 47.0345 80.4026 47.0695 80.3676C48.7184 78.7166 50.3925 77.0506 52.3285 75.7356C52.7565 75.4946 53.2085 75.2996 53.6805 75.2336C54.6705 75.0946 55.5485 75.7946 56.3325 76.2966C57.2164 76.8626 58.1105 77.4116 58.9995 77.9686C59.4445 78.2466 59.8895 78.5256 60.3335 78.8036C60.7734 79.0796 61.1774 79.4056 61.7114 79.4416C61.7435 79.4436 61.7754 79.4306 61.8074 79.4226C63.9954 80.8906 66.3124 82.1676 68.7104 83.2366C75.2814 86.1676 82.4715 87.5856 89.6545 87.6356C93.3965 87.6616 97.1395 87.3406 100.822 86.6726C104.136 86.0726 107.452 85.2246 110.499 83.7616C113.438 82.3496 116.091 80.3406 117.972 77.6516C119.775 75.0746 120.889 72.0096 121.148 68.8736C121.37 66.2826 120.957 63.6966 120.036 61.3076ZM43.9524 68.5496C44.2814 68.7286 44.5084 69.0376 44.6115 69.4076C44.8945 70.4186 44.5455 71.5386 44.1775 72.4796C42.1535 77.6626 39.3984 82.5326 36.2114 87.0846C33.6734 90.7096 30.8514 94.1076 27.9094 97.4046C28.3724 96.7366 28.8314 96.0656 29.2844 95.3916C30.6784 93.3206 32.0315 91.2226 33.3315 89.0906C35.8885 84.8956 38.2615 80.5866 40.4275 76.1776C41.6495 73.6906 42.8354 71.1726 43.9354 68.6296C43.9474 68.6026 43.9474 68.5766 43.9524 68.5496ZM36.1694 74.4366C37.0224 73.4436 37.9175 72.4886 38.8575 71.5776C39.7715 70.6916 40.7134 69.7686 41.7544 69.0306C42.1974 68.7166 42.7625 68.3936 43.3295 68.3936C39.5365 77.5006 34.8745 86.2246 29.3875 94.4276C28.0685 96.3996 26.6744 98.3176 25.3185 100.263C25.2605 100.326 25.2024 100.389 25.1444 100.452C25.1594 100.264 25.1775 100.076 25.1925 99.8876C29.1705 93.9466 32.2405 87.4426 34.3595 80.6146C34.6595 79.6486 34.9394 78.6766 35.1994 77.6986C35.4574 76.7286 35.7505 75.7486 35.9194 74.7596C35.9204 74.7536 35.9184 74.7486 35.9184 74.7416C36.0034 74.6406 36.0835 74.5366 36.1694 74.4366ZM28.2104 87.6166C29.9314 83.2876 32.2984 79.2236 35.2164 75.5936C35.1004 76.1136 34.9885 76.6336 34.8585 77.1506C34.6355 78.0406 34.3955 78.9256 34.1395 79.8066C33.6424 81.5136 33.0844 83.2016 32.4604 84.8666C31.2134 88.1986 29.7175 91.4246 28.0235 94.5516C27.1695 96.1276 26.2454 97.6646 25.2794 99.1746C25.7684 95.2176 26.7284 91.3446 28.2104 87.6166ZM24.9524 50.5226C27.4024 55.4466 28.4315 61.0036 27.9255 66.4806C27.7265 68.6396 27.3125 70.8166 26.6375 72.8916C26.6435 72.8456 26.6484 72.7966 26.6554 72.7506C26.8084 71.6096 26.9104 70.4616 26.9624 69.3116C27.0644 67.0516 26.9924 64.7866 26.7254 62.5396C26.1904 58.0336 24.8935 53.6146 22.9015 49.5376C22.0615 47.8186 21.0895 46.1866 19.9975 44.6266C19.5895 43.8226 19.1544 43.0316 18.6574 42.2796C18.5054 42.0496 18.3464 41.8256 18.1864 41.6016C20.9674 44.1226 23.2764 47.1546 24.9524 50.5226ZM22.6694 74.0136C22.3314 73.4216 22.0034 72.8226 21.6854 72.2196C19.0774 67.2646 17.1744 61.9426 16.0275 56.4626C15.4575 53.7406 15.0705 50.9806 14.8745 48.2066C14.7755 46.8106 14.7234 45.4106 14.7244 44.0106C14.7244 43.3026 14.7375 42.5936 14.7635 41.8866C14.7825 41.3776 14.7424 40.7626 14.9865 40.2966C15.0435 40.1876 15.1105 40.1286 15.1805 40.0876C16.5925 49.6636 18.6254 59.1816 21.1854 68.5136C21.7134 70.4376 22.2615 72.3576 22.8175 74.2746C22.7675 74.1876 22.7184 74.0996 22.6694 74.0136ZM23.9025 75.7716C22.4295 71.1896 21.1484 66.5506 19.9894 61.8796C18.8104 57.1246 17.7155 52.3556 16.8055 47.5416C16.3355 45.0556 15.9064 42.5616 15.4934 40.0656C15.7654 40.1606 16.0475 40.4726 16.2195 40.6676C16.6285 41.1296 17.0144 41.6126 17.3774 42.1126C18.1174 43.1306 18.7564 44.2166 19.3084 45.3476C20.4254 47.6366 21.1924 50.0806 21.7664 52.5576C22.3724 55.1726 22.7724 57.8286 23.1404 60.4856C23.5544 63.4736 23.9014 66.4706 24.1724 69.4756C24.3704 71.6746 24.5165 73.8786 24.6375 76.0846C24.3735 76.0806 24.1194 75.9506 23.9025 75.7716ZM24.2895 61.9546C23.9295 59.0946 23.5255 56.2316 22.9285 53.4106C22.4505 51.1506 21.8244 48.9096 20.9614 46.7636C24.7344 53.3186 26.6705 60.9376 26.4035 68.4956C26.3605 69.7136 26.2545 70.9286 26.0935 72.1366C26.0095 72.7636 25.9125 73.3886 25.7905 74.0086C25.6945 74.4986 25.5615 74.9856 25.4825 75.4796C25.4125 74.1146 25.3335 72.7496 25.2325 71.3856C24.9985 68.2346 24.6845 65.0896 24.2895 61.9546ZM12.4124 107.29C13.5314 113.011 13.4294 118.961 12.0854 124.635C11.7124 126.208 11.2384 127.757 10.6694 129.27C10.6434 123.977 10.5025 118.684 10.2145 113.399C9.99245 109.312 9.76645 105.202 9.26745 101.138C9.03645 99.2576 8.70045 97.3886 8.13745 95.5776C10.1685 99.2216 11.6104 103.189 12.4124 107.29ZM3.14045 113.317C2.69345 109.742 2.56245 106.133 2.75945 102.535C2.85845 100.73 3.03745 98.9286 3.29845 97.1396C3.42745 96.2566 3.57445 95.3766 3.74845 94.5016C3.90245 93.7226 3.98345 92.8006 4.34545 92.0856C4.46745 91.8446 4.61145 91.7326 4.76345 91.7036C5.67345 97.1506 6.41645 102.622 7.06745 108.105C7.71845 113.585 8.15345 119.09 8.43545 124.601C8.51545 126.156 8.58145 127.712 8.63945 129.268C8.67545 130.226 8.67645 131.195 8.71045 132.16C5.85145 126.231 3.95645 119.852 3.14045 113.317ZM9.21545 132.629C9.21545 131.731 9.16745 130.828 9.14245 129.936C9.10345 128.543 9.05145 127.15 8.98845 125.757C8.86145 122.973 8.69445 120.19 8.48645 117.411C8.07245 111.878 7.56345 106.353 6.84245 100.85C6.45945 97.9286 6.01645 95.0166 5.53545 92.1106C5.65745 92.2476 5.76445 92.3986 5.84445 92.5356C6.29345 93.3016 6.63845 94.1456 6.94045 94.9786C7.56645 96.7056 7.93145 98.5136 8.18345 100.33C8.72245 104.21 8.91745 108.156 9.14545 112.064C9.52645 118.61 9.68745 125.166 9.65045 131.723C9.50945 132.027 9.36245 132.328 9.21545 132.629ZM69.1105 120.874C63.3675 123.714 57.0765 125.418 50.6805 125.821C50.1805 125.852 49.6805 125.86 49.1805 125.875C52.5935 125.542 55.9835 124.887 59.2595 123.987C65.0675 122.392 70.5545 119.909 75.6895 116.773C76.1264 116.506 76.5504 116.22 76.9794 115.941C74.5274 117.838 71.8934 119.499 69.1105 120.874ZM54.3165 114.417C59.8025 111.236 65.9194 109.134 72.2674 108.701C75.2104 108.5 78.1835 108.679 81.0765 109.261C75.7285 109.997 70.4454 111.181 65.2934 112.8C59.0285 114.768 52.9664 117.378 47.2345 120.581C45.8665 121.345 44.5175 122.144 43.1895 122.974C46.5585 119.708 50.2555 116.772 54.3165 114.417ZM45.7215 122.525C51.3025 119.254 57.2195 116.555 63.3455 114.475C69.4985 112.385 75.8674 110.931 82.3184 110.145C82.6544 110.104 82.9905 110.072 83.3265 110.035C83.2975 110.068 83.2664 110.098 83.2374 110.131C83.1785 110.084 83.1025 110.06 83.0115 110.083C82.3214 110.254 81.7114 110.594 81.0714 110.898C80.4155 111.21 79.7584 111.522 79.0994 111.83C77.7824 112.446 76.4575 113.045 75.1284 113.633C72.4695 114.808 69.7834 115.921 67.0744 116.975C61.6284 119.094 56.0724 120.92 50.4445 122.491C47.8055 123.228 45.1484 123.882 42.4874 124.529C43.5535 123.84 44.6274 123.166 45.7215 122.525ZM41.2585 125.325C46.8785 124.151 52.4355 122.559 57.8975 120.802C63.4575 119.013 68.9555 117.016 74.3455 114.767C75.8545 114.137 77.3544 113.486 78.8464 112.816C79.6044 112.476 80.3604 112.132 81.1114 111.778C81.2374 111.719 81.3654 111.66 81.4934 111.602C80.9664 112.049 80.4335 112.488 79.8915 112.916C78.7245 113.837 77.5224 114.714 76.2954 115.553C73.8175 117.247 71.2215 118.722 68.5005 119.992C63.0864 122.52 57.3084 124.264 51.3934 125.116C48.9214 125.472 46.4294 125.651 43.9344 125.728C42.9984 125.646 42.0645 125.545 41.1335 125.405C41.1755 125.378 41.2175 125.352 41.2585 125.325ZM58.5695 96.0926C58.7715 97.6756 58.3455 99.2856 57.6765 100.712C56.3255 103.592 53.9785 105.994 51.6124 108.066C49.2454 110.138 46.6725 111.955 44.1345 113.806C43.8685 114 43.6014 114.197 43.3354 114.392C44.4004 113.306 45.4474 112.202 46.4594 111.066C49.4375 107.723 52.1275 104.108 54.5095 100.318C55.1735 99.2606 55.8115 98.1886 56.4285 97.1036C56.7315 96.5706 57.0285 96.0346 57.3204 95.4956C57.5494 95.0736 57.7985 94.6516 57.9995 94.2126C58.2905 94.8046 58.4865 95.4436 58.5695 96.0926ZM37.7315 113.201C38.0715 111.033 38.5415 108.888 39.0835 106.762C39.6235 104.642 40.2285 102.537 40.8634 100.443C41.4054 98.6546 42.0445 96.7586 43.3845 95.3956C44.6035 94.1566 46.5425 93.4426 48.1895 94.1506C48.1295 94.2336 48.0634 94.3146 48.0044 94.3986C47.0544 95.7406 46.1984 97.1556 45.3254 98.5486C42.1794 103.566 39.1655 108.822 37.5415 114.544C37.5994 114.096 37.6605 113.648 37.7315 113.201ZM44.5815 101.394C45.4425 99.9656 46.3334 98.5546 47.2304 97.1486C48.0344 95.8896 48.8224 94.6076 49.8195 93.4886C50.7145 92.4846 51.8414 91.5806 53.2014 91.3526C54.5434 91.1276 55.8264 91.6386 56.7974 92.5626C57.1604 92.9086 57.4774 93.3066 57.7404 93.7386C57.1784 94.5826 56.7534 95.5446 56.2554 96.4246C55.6964 97.4116 55.1164 98.3866 54.5174 99.3496C53.3344 101.253 52.0855 103.114 50.7615 104.922C48.1255 108.52 45.2215 111.927 42.0665 115.081C41.6665 115.481 41.2575 115.872 40.8465 116.259C39.8834 117.009 38.9574 117.802 38.0724 118.633C43.3685 112.539 47.9124 105.795 51.6284 98.6286C52.7544 96.4576 53.7964 94.2466 54.7524 91.9966C54.9004 91.6476 54.3554 91.4226 54.2085 91.7726C50.8554 99.7406 46.5514 107.263 41.2924 114.128C40.0804 115.71 38.8134 117.251 37.5154 118.764C38.4624 112.514 41.3425 106.762 44.5815 101.394ZM119.017 55.1126C119.03 55.2266 119.048 55.3396 119.061 55.4536C119.172 56.4626 119.229 57.4716 119.268 58.4806C118.835 57.7876 118.255 57.1966 117.661 56.6206C117.075 56.0526 116.468 55.5086 115.863 54.9616C115.574 54.6786 115.275 54.4066 114.967 54.1436C113.429 52.7106 111.909 51.0936 111.026 49.1666C110.997 49.1036 110.941 49.0716 110.881 49.0606C110.289 46.7716 108.857 44.8816 107.09 43.3126C105.995 42.3406 104.803 41.4516 103.569 40.6256C104.416 41.1166 105.248 41.6336 106.063 42.1756C109.381 44.3836 112.384 47.0166 115.024 50.0016C116.461 51.6276 117.773 53.3396 119.017 55.1126ZM119.242 62.3636C116.595 66.3226 113.904 70.3586 110.386 73.6086C106.925 76.8056 102.686 78.9696 98.1755 80.2666C93.6055 81.5806 88.8025 82.0506 84.0584 81.9326C79.5174 81.8196 74.9964 81.1406 70.6144 79.9476C76.5084 81.2386 82.6774 81.3076 88.5904 80.1496C96.6594 78.5686 104.199 74.6396 110.148 68.9706C113.145 66.1146 115.725 62.8526 117.808 59.2786C118.386 60.2566 118.874 61.2876 119.242 62.3636ZM100.285 40.3116C96.0865 46.9766 91.4944 53.3816 85.8744 58.9326C80.3494 64.3906 73.5204 68.6656 65.9884 70.6926C63.9084 71.2526 61.7804 71.6356 59.6324 71.8086C58.8934 71.8686 58.1585 71.8886 57.4265 71.8866C57.4595 71.8456 57.4925 71.8046 57.5255 71.7636C57.6145 71.6576 57.6964 71.5556 57.7625 71.4676C57.8735 71.3206 57.8754 71.1696 57.8244 71.0396C58.1284 70.7786 58.4814 70.6226 58.8784 70.4746C59.0254 70.4196 59.0345 70.2736 58.9725 70.1626C61.0975 69.1906 63.1805 68.1366 65.2205 67.0006C67.6014 65.7126 69.9194 64.3086 72.1365 62.7556C72.3914 62.5846 72.6495 62.4186 72.9025 62.2446C78.9575 58.1056 84.4425 53.1746 89.2355 47.6236C90.5754 46.0716 91.8605 44.4726 93.0864 42.8296C94.2384 41.2866 95.4534 39.7036 96.3894 38.0106C98.7414 38.8966 100.93 40.1646 103 41.5816C104.204 42.4056 105.435 43.2696 106.543 44.2556C103.214 50.9136 98.0685 56.5356 92.0734 60.9006C88.9194 63.1976 85.5105 65.1836 81.9334 66.7446C77.9445 68.4856 73.7585 69.7466 69.4985 70.6306C67.6714 71.0096 65.8284 71.3226 63.9774 71.5756C64.1884 71.5316 64.4005 71.4926 64.6115 71.4446C68.4295 70.5776 72.1034 69.1176 75.5184 67.2106C82.3844 63.3776 88.1965 57.9006 93.0615 51.7666C95.8595 48.2386 98.3995 44.5086 100.781 40.6906C100.994 40.3516 100.499 39.9706 100.285 40.3116ZM60.4324 68.4436C61.4144 67.6756 62.3975 66.9086 63.3705 66.1276C66.0235 63.9996 68.6325 61.8176 71.2045 59.5926C76.3665 55.1256 81.4064 50.5206 86.2505 45.7096C87.5754 44.3936 88.8874 43.0656 90.1874 41.7256C91.5424 40.3286 92.9495 38.9806 94.2685 37.5476C94.3165 37.4956 94.3425 37.4426 94.3565 37.3896C94.4565 37.4156 94.5564 37.4366 94.6554 37.4636C93.9985 37.9936 93.4284 38.6296 92.8534 39.2466C92.2404 39.9046 91.6395 40.5736 91.0474 41.2506C89.8954 42.5706 88.7785 43.9206 87.6724 45.2796C85.4305 48.0336 83.2455 50.8356 80.8805 53.4856C78.5185 56.1326 75.9615 58.5746 73.1485 60.7396C70.3425 62.8986 67.3375 64.7886 64.2315 66.4826C62.9815 67.1656 61.7104 67.8116 60.4324 68.4436ZM117.726 48.1156C118.191 49.9366 118.559 51.7886 118.83 53.6506C116.79 50.7766 114.34 48.2016 111.692 45.8816C108.668 43.2316 105.324 40.9386 101.749 39.0976C99.7634 38.0746 97.6704 37.0836 95.4985 36.5296C95.4734 36.5236 95.4564 36.5336 95.4374 36.5396C95.3854 36.5236 95.3355 36.5036 95.2835 36.4886C96.3195 36.5816 97.3545 36.7116 98.3865 36.8936C102.754 37.6616 106.975 39.1166 110.883 41.2096C111.975 41.7946 113.039 42.4306 114.072 43.1146C114.602 43.4656 115.123 43.8286 115.636 44.2046C116.028 44.4916 116.404 44.8386 116.837 45.0626C117.167 46.0726 117.464 47.0896 117.726 48.1156ZM112.75 35.7986C114.19 38.3286 115.405 40.9926 116.384 43.7386C115.931 43.4136 115.471 43.0966 115.005 42.7906C114.067 42.1746 113.103 41.5986 112.119 41.0606C110.124 39.9686 108.043 39.0686 105.902 38.3036C101.629 36.7776 97.0905 35.9446 92.5545 35.8366C92.4064 35.8326 92.2585 35.8376 92.1105 35.8356C89.8364 35.5796 87.5285 35.7866 85.3095 36.3366C85.9845 36.0666 86.6584 35.7956 87.3404 35.5476C89.3044 34.8326 91.3075 34.2246 93.3375 33.7286C95.3155 33.2446 97.3195 32.8646 99.3364 32.5916C101.334 32.3206 103.365 32.1046 105.384 32.1416C107.408 32.1786 109.5 32.4896 111.282 33.4986C111.816 34.2406 112.304 35.0146 112.75 35.7986ZM92.1435 30.3016C95.7585 28.3376 100.138 27.0826 104.23 28.1596C106.733 28.8186 108.725 30.3706 110.342 32.2866C107.226 31.1256 103.628 31.5156 100.393 31.8976C96.1745 32.3956 92.0104 33.3616 87.9994 34.7636C86.8934 35.1496 85.8025 35.5716 84.7255 36.0326C84.1635 36.2726 83.6055 36.5216 83.0564 36.7896C82.7664 36.9306 82.4715 37.0616 82.2004 37.2256C85.4784 34.8666 88.5845 32.2346 92.1435 30.3016ZM83.2754 17.8876C85.3684 20.3886 85.8045 23.8366 85.2555 26.9646C84.9065 28.9536 84.1375 30.8526 83.2205 32.6426C82.7415 33.5786 82.2145 34.4886 81.6755 35.3896C81.3975 35.8546 81.1164 36.3246 80.8494 36.8006C80.7514 36.8686 80.6564 36.9406 80.5584 37.0086C80.5105 36.8276 80.4614 36.6456 80.4134 36.4636C81.3824 33.7816 81.7284 30.7946 81.7364 27.9846C81.7464 24.7276 81.2925 21.4826 80.2835 18.3816C79.9995 17.5096 79.6745 16.6526 79.2965 15.8166C79.1445 15.4816 78.9794 15.1516 78.8144 14.8226C80.5224 15.5356 82.1054 16.4896 83.2754 17.8876ZM73.9965 13.3246C75.2295 13.6296 76.5334 13.9726 77.7994 14.4246C77.8454 14.5086 77.8925 14.5936 77.9405 14.6816C78.1385 15.0436 78.3274 15.4106 78.5084 15.7816C78.8594 16.5016 79.1814 17.2376 79.4744 17.9836C80.0614 19.4786 80.5135 21.0156 80.8254 22.5916C81.4474 25.7376 81.5275 29.0146 80.9575 32.1766C80.7705 33.2146 80.5124 34.2246 80.2284 35.2286C80.2294 34.6736 80.1884 34.1166 80.1504 33.5706C80.0874 32.6796 79.9894 31.7906 79.8484 30.9086C79.5594 29.0926 79.1194 27.3006 78.5304 25.5596C77.3664 22.1126 75.6945 18.8226 73.5365 15.8906C72.6995 14.7526 71.7824 13.6606 70.7824 12.6546C71.8615 12.8406 72.9345 13.0616 73.9965 13.3246ZM53.9624 12.8186C54.9204 12.6316 55.8844 12.4756 56.8514 12.3496C58.7394 12.1046 60.6454 11.9706 62.5494 11.9616C65.0744 11.9496 67.6014 12.1456 70.0955 12.5396C72.2394 14.8656 74.1494 17.3486 75.6424 20.1656C77.3264 23.3416 78.4524 26.8036 79.0154 30.3526C79.1284 31.0676 79.2125 31.7866 79.2815 32.5066C77.9465 28.2356 76.1584 24.0806 73.0574 20.8516C69.4835 17.1296 63.9894 14.6416 58.8784 16.0216C58.8484 15.9176 58.7775 15.8226 58.6554 15.7626C56.5864 14.7446 54.4004 13.8206 52.1554 13.1866C52.7604 13.0886 53.3564 12.9366 53.9624 12.8186ZM48.8774 13.3546C44.6764 20.0986 42.2694 27.8826 41.7014 35.7976C41.1464 43.5316 42.3284 51.3586 44.7964 58.6976C44.6764 58.4286 44.5445 58.1666 44.4295 57.8956C42.8705 54.2416 41.6194 50.4686 40.7225 46.5976C39.8375 42.7826 39.2764 38.8866 39.0444 34.9776C38.8244 31.2686 38.8815 27.5176 39.5395 23.8526C39.8965 21.8646 40.4355 19.9036 41.2234 18.0426C41.9365 16.3596 42.8764 14.8326 43.9705 13.3836C45.5875 13.1166 47.2374 13.1286 48.8774 13.3546ZM43.9955 58.8636C41.3275 53.8846 38.9904 48.7276 37.0044 43.4396C34.9774 38.0416 32.8614 32.2236 33.2994 26.3646C33.6554 21.6026 35.9454 16.6686 40.4094 14.4986C41.4034 14.0146 42.4264 13.6806 43.4654 13.4686C41.4464 15.9796 40.2115 19.1316 39.4835 22.2326C38.6295 25.8736 38.4415 29.6386 38.5265 33.3666C38.7094 41.3626 40.3804 49.3456 43.3414 56.7746C43.9064 58.1916 44.5145 59.5986 45.1665 60.9856C44.7695 60.2826 44.3775 59.5766 43.9955 58.8636ZM50.4594 69.1606C50.3094 69.0146 50.1685 68.8346 50.0645 68.6536C50.0565 68.6406 50.0514 68.6266 50.0434 68.6136C50.0625 68.5446 50.0575 68.4666 50.0105 68.3906C49.1175 66.9296 48.2545 65.4506 47.4275 63.9536C45.4295 59.3536 43.8974 54.5606 43.0314 49.5966C41.6454 41.6556 42.0494 33.3436 44.3094 25.5986C45.5534 21.3356 47.3695 17.2386 49.7595 13.4936C52.0585 13.9106 54.3174 14.6996 56.4084 15.6356C56.9094 15.8596 57.4045 16.0996 57.8985 16.3386C57.7155 16.4066 57.5314 16.4666 57.3504 16.5456C54.6064 17.7436 52.4344 19.9646 50.7824 22.4166C48.9724 25.1006 47.6375 28.1196 46.7035 31.2126C44.7585 37.6506 44.5324 44.5136 45.5074 51.1426C46.4334 57.4426 48.3764 63.5636 50.8325 69.4326C50.6995 69.3576 50.5724 69.2696 50.4594 69.1606ZM52.4395 69.2306C52.2435 69.4386 51.9575 69.5866 51.6674 69.6226C49.6735 64.5616 47.9034 59.4126 46.8544 54.0616C45.5904 47.6176 45.3685 40.9396 46.7645 34.4966C47.4454 31.3546 48.5275 28.2936 50.0304 25.4496C51.3895 22.8776 53.1435 20.4096 55.5105 18.6726C56.2375 18.1386 57.0175 17.7126 57.8285 17.3776C53.8365 22.2676 52.9254 28.9466 52.1434 35.0316C51.1334 42.8936 50.8315 50.8236 51.3315 58.7366C51.5515 62.2226 51.8864 65.7386 52.4644 69.1986C52.4544 69.2096 52.4485 69.2206 52.4395 69.2306ZM53.3514 66.4506C53.2874 66.8776 53.2264 67.3056 53.1724 67.7336C53.1554 67.7336 53.1395 67.7276 53.1215 67.7306C53.0305 67.7436 52.9534 67.7936 52.8885 67.8556C52.5654 65.3576 52.2675 62.8586 52.0815 60.3406C51.7905 56.4086 51.6915 52.4636 51.7745 48.5216C51.8565 44.6316 52.1234 40.7456 52.5744 36.8816C52.9854 33.3606 53.5234 29.8106 54.4664 26.3886C55.4254 22.9066 56.8815 19.5176 59.4184 16.8856C59.4295 16.8746 59.4305 16.8626 59.4395 16.8516C60.6935 16.5536 62.0014 16.4756 63.3224 16.6506C66.0945 17.0186 68.6915 18.3626 70.8175 20.1456C71.0275 20.3216 71.2255 20.5076 71.4255 20.6926C66.9985 26.1156 63.3215 32.1246 60.4535 38.5096C57.5305 45.0166 55.3995 51.8686 54.2075 58.9046C53.7835 61.4086 53.5074 63.9246 53.3514 66.4506ZM65.9945 29.9656C65.0965 31.4446 64.2335 32.9456 63.4145 34.4696C63.2935 34.6526 63.1734 34.8366 63.0614 35.0246C63.8484 33.5376 64.6774 32.0736 65.5614 30.6406C65.7024 30.4126 65.8525 30.1916 65.9945 29.9656ZM58.4194 45.6366C58.0794 46.5616 57.7435 47.4876 57.4324 48.4226C57.7344 47.4696 58.0605 46.5256 58.3975 45.5846C58.4015 45.6046 58.4074 45.6226 58.4194 45.6366ZM54.0444 67.3186C54.1374 66.7196 54.2304 66.1196 54.3354 65.5226C54.6334 63.8266 54.9724 62.1366 55.3554 60.4576C56.1214 57.0956 57.0534 53.7726 58.1584 50.5066C60.3674 43.9806 63.1834 37.6626 66.6535 31.7076C68.5574 28.4396 70.6515 25.2856 72.9155 22.2566C76.2335 26.1796 77.8644 31.3826 79.1804 36.2726C79.3724 36.9866 79.5585 37.7016 79.7445 38.4166C76.5165 40.0016 73.5255 42.1076 70.7814 44.3906C66.9084 47.6126 63.4565 51.3486 60.5395 55.4566C57.9265 59.1406 55.7414 63.1316 54.0444 67.3186ZM55.2225 68.7796C55.1974 68.3686 55.2024 67.9586 55.2124 67.5466C55.2144 67.4726 55.2194 67.3966 55.2234 67.3206C56.3615 64.5696 57.7085 61.9066 59.2664 59.3696C61.8074 55.2316 64.8664 51.3996 68.3634 48.0296C71.9845 44.5406 76.0944 41.3576 80.6504 39.1906C83.0524 38.0476 85.6065 37.2006 88.2595 36.9146C89.2234 36.8106 90.1874 36.7936 91.1444 36.8556C85.7654 40.3466 80.6004 44.1606 75.7094 48.3096C70.4324 52.7856 65.4535 57.6166 60.8455 62.7786C58.9115 64.9456 57.0354 67.1716 55.2814 69.4886C55.2444 69.2536 55.2355 69.0096 55.2225 68.7796ZM55.7875 70.1666C55.7115 70.2196 55.6345 70.1916 55.5655 70.1326C57.2415 68.1566 58.9164 66.1796 60.6444 64.2486C62.9544 61.6676 65.3504 59.1626 67.8244 56.7386C72.7234 51.9376 77.9484 47.4766 83.4414 43.3696C86.4224 41.1406 89.4874 39.0266 92.6235 37.0226C92.9265 37.0686 93.2274 37.1286 93.5274 37.1926C92.4164 38.3836 91.3565 39.6246 90.2295 40.8006C89.0265 42.0556 87.8114 43.2996 86.5864 44.5326C84.1884 46.9456 81.7505 49.3196 79.2785 51.6576C74.3705 56.2996 69.2905 60.7456 64.0734 65.0356C62.5924 66.2536 61.0985 67.4576 59.5935 68.6466C59.3475 68.8416 59.0965 69.0316 58.8465 69.2236C58.0655 69.5956 57.2735 69.9526 56.4815 70.3116C56.3445 70.1026 56.0165 70.0066 55.7875 70.1666ZM56.9764 72.9386C56.9794 72.8106 56.9935 72.6866 57.0125 72.5636C65.1795 72.2316 73.2515 70.7276 80.8825 67.7286C88.1875 64.8576 94.8714 60.6606 100.256 54.9146C103.044 51.9396 105.41 48.5656 107.262 44.9336C107.776 45.4486 108.255 45.9936 108.672 46.5896C110.322 48.9456 110.529 51.6596 109.994 54.3196C108.83 56.9056 106.731 59.0676 104.647 60.9816C101.678 63.7086 98.3794 66.0976 94.8624 68.0696C91.3165 70.0576 87.5394 71.6316 83.6354 72.7626C79.2894 74.0216 74.7464 74.6146 70.2254 74.6306C65.7594 74.6466 61.3054 74.0816 56.9784 72.9836C56.9794 72.9686 56.9764 72.9536 56.9764 72.9386ZM56.9955 73.3066C65.3035 75.5226 74.0474 75.5276 82.4264 73.5696C90.4854 71.6866 98.0585 67.7606 104.279 62.3076C106.004 60.7956 107.69 59.1816 109.082 57.3516C108.568 58.6506 107.933 59.8976 107.258 61.0326C104.869 65.0506 101.682 68.5756 97.9665 71.4076C94.2485 74.2416 89.9824 76.3966 85.4674 77.6266C80.6824 78.9306 75.6455 79.1866 70.7445 78.4526C65.9015 77.7276 61.2124 76.0336 57.0154 73.5106C57.0065 73.4436 57.0015 73.3756 56.9955 73.3066ZM57.1755 74.1816C60.2215 76.0536 63.5704 77.4416 67.0214 78.3346C72.0054 79.6256 77.2654 79.9056 82.3494 79.0686C87.1154 78.2836 91.6884 76.5056 95.7804 73.9506C99.8764 71.3926 103.487 68.0426 106.31 64.1216C108.415 61.1986 110.413 57.6776 111.02 54.0076C111.145 53.6916 111.254 53.3706 111.346 53.0446C113.797 54.3446 115.851 56.2776 117.361 58.5686C113.578 65.2546 107.966 70.8736 101.337 74.7466C93.9105 79.0856 85.3064 81.0536 76.7244 80.4436C71.7134 80.0876 66.7765 78.8646 62.1704 76.8606C62.1274 76.8416 62.0904 76.8486 62.0604 76.8666C60.4294 76.1296 58.8284 75.3246 57.2654 74.4506C57.2314 74.3626 57.2045 74.2716 57.1755 74.1816ZM117.937 75.6716C116.404 78.4026 114.072 80.5816 111.354 82.1126C108.565 83.6836 105.474 84.6416 102.357 85.3106C98.8474 86.0636 95.2674 86.5106 91.6795 86.6286C84.6564 86.8606 77.5624 85.7866 71.0034 83.2346C68.0555 82.0876 65.2195 80.6506 62.5525 78.9506C60.8575 77.8706 59.2594 76.6646 57.7244 75.3786C57.6574 75.2656 57.5964 75.1496 57.5354 75.0336C60.7864 76.9456 64.2384 78.5036 67.8234 79.6876C72.5074 81.2356 77.3954 82.1726 82.3204 82.4576C87.1124 82.7346 91.9815 82.4386 96.6565 81.3196C101.248 80.2206 105.656 78.2926 109.369 75.3456C113.221 72.2886 116.149 68.2846 118.886 64.2436C119.08 63.9576 119.273 63.6696 119.465 63.3826C119.498 63.4036 119.534 63.4206 119.572 63.4286C119.882 64.5876 120.071 65.7826 120.109 66.9946C120.204 70.0076 119.409 73.0496 117.937 75.6716Z" fill="#5F5C7C"/>
<path d="M22.2344 84.8126C21.9714 84.3066 21.5664 83.8816 21.0314 83.6636C20.4984 83.4466 19.8674 83.4566 19.3424 83.6956C19.0364 83.8346 18.7764 84.0416 18.5754 84.2956C18.2434 84.6426 18.0044 85.0826 17.9754 85.5696C17.9414 86.1396 18.1014 86.6816 18.4364 87.1436C18.7714 87.6056 19.2774 87.9006 19.8324 88.0076C20.4024 88.1166 20.9704 87.9346 21.4514 87.6396C22.3864 87.0646 22.7404 85.7866 22.2344 84.8126Z" fill="#CEBBB6"/>
<path d="M22.3325 91.1416C22.3205 91.0626 22.2905 90.9926 22.2415 90.9296C22.1905 90.8246 22.1155 90.7366 22.0185 90.6676C21.9505 90.6286 21.8835 90.5896 21.8155 90.5506C21.7375 90.5306 21.6595 90.5096 21.5815 90.4896C21.5005 90.4906 21.4205 90.4916 21.3395 90.4926C21.2195 90.5056 21.1115 90.5466 21.0155 90.6156C20.9355 90.6546 20.8765 90.7196 20.8175 90.7846C20.7945 90.7956 20.7705 90.8066 20.7535 90.8236C20.6545 90.9016 20.5815 90.9976 20.5335 91.1136C20.4925 91.2036 20.4765 91.2976 20.4865 91.3946C20.4795 91.4896 20.4965 91.5806 20.5385 91.6676C20.5885 91.7816 20.6625 91.8766 20.7615 91.9526L20.7655 91.9566C20.7755 91.9626 20.7855 91.9686 20.7955 91.9736C20.8395 92.0166 20.8835 92.0606 20.9265 92.1036C21.0215 92.1816 21.1275 92.2306 21.2465 92.2506C21.3235 92.2816 21.4025 92.2916 21.4845 92.2796C21.5655 92.2896 21.6435 92.2786 21.7185 92.2466C21.8345 92.2246 21.9375 92.1746 22.0295 92.0966C22.0835 92.0416 22.1375 91.9876 22.1915 91.9326C22.2305 91.8646 22.2695 91.7976 22.3085 91.7296C22.3605 91.6156 22.3805 91.4966 22.3685 91.3746C22.3755 91.2946 22.3645 91.2166 22.3325 91.1416Z" fill="#CEBBB6"/>
<path d="M17.4435 82.4106C16.8475 82.4106 16.7265 83.3416 17.3295 83.3416C17.9255 83.3406 18.0465 82.4106 17.4435 82.4106Z" fill="#CEBBB6"/>
<path d="M35.8015 133.006L35.8035 133.005L35.8015 133.003V133.006Z" fill="#CEBBB6"/>
<path d="M35.9335 133.046L35.9355 133.047H35.9375L35.9335 133.046Z" fill="#CEBBB6"/>
<path d="M35.8064 133.082L35.8035 133.085L35.8045 133.081L35.8035 133.083V133.086L35.8015 133.087H35.8025L35.8035 133.086V133.087L35.8145 133.083V133.078L35.8064 133.082Z" fill="#CEBBB6"/>
<path d="M36.9815 131.619C36.9765 131.612 36.9725 131.604 36.9675 131.597C36.6105 131.166 36.0765 130.856 35.5075 130.844C34.9135 130.831 34.3255 131.02 33.8765 131.42C33.4345 131.814 33.1405 132.317 33.0445 132.904C32.9655 133.387 33.0495 133.912 33.2445 134.358C33.6745 135.346 34.6735 136.015 35.7665 135.88C36.8575 135.745 37.8385 134.806 37.9595 133.704C38.0505 132.864 37.6405 132.06 36.9815 131.619Z" fill="#CEBBB6"/>
<path d="M42.2554 132.17C42.2134 132.1 42.1724 132.03 42.1304 131.959C42.0264 131.827 41.8964 131.728 41.7414 131.663C41.4254 131.533 41.0564 131.584 40.7874 131.794C40.6394 131.91 40.5334 132.073 40.4724 132.252C40.4694 132.256 40.4664 132.259 40.4634 132.262C40.4204 132.315 40.3934 132.353 40.3604 132.432C40.3394 132.49 40.3244 132.55 40.3144 132.611C40.2994 132.701 40.3084 132.788 40.3404 132.871C40.3574 132.956 40.3934 133.032 40.4504 133.099C40.4894 133.143 40.5314 133.184 40.5754 133.222C40.6754 133.298 40.7624 133.323 40.8764 133.347C40.8874 133.353 40.8934 133.365 40.9044 133.37C41.0104 133.443 41.1284 133.486 41.2604 133.497C41.5954 133.538 41.9344 133.395 42.1384 133.127C42.2424 132.989 42.3054 132.835 42.3274 132.663C42.3464 132.494 42.3234 132.329 42.2554 132.17Z" fill="#CEBBB6"/>
<path d="M33.7894 136.322C33.1344 136.322 33.0004 137.345 33.6634 137.345C34.3194 137.345 34.4534 136.322 33.7894 136.322Z" fill="#CEBBB6"/>
<path d="M63.7315 89.6566C63.3915 89.2046 62.8795 88.8896 62.3185 88.8066C61.7105 88.7176 61.0554 88.9326 60.5904 89.3286C60.1184 89.7306 59.7705 90.3026 59.7085 90.9276C59.6495 91.5236 59.8385 92.1536 60.2475 92.5976C60.6465 93.0306 61.1534 93.3316 61.7414 93.4166C61.7744 93.4216 61.8095 93.4176 61.8435 93.4206C62.3535 93.5896 62.9525 93.4496 63.3565 93.0926C63.7205 92.7706 63.9694 92.3276 64.0594 91.8506C64.3354 91.1416 64.2075 90.2896 63.7315 89.6566Z" fill="#CEBBB6"/>
<path d="M65.6064 94.9976C65.5824 94.8396 65.5214 94.6966 65.4234 94.5706L65.2584 94.4066C65.1274 94.3076 64.9804 94.2476 64.8174 94.2276C64.6934 94.2076 64.5744 94.2196 64.4594 94.2626C64.3424 94.2856 64.2384 94.3356 64.1454 94.4136C64.0474 94.4846 63.9734 94.5736 63.9234 94.6816C63.8534 94.7826 63.8134 94.8956 63.8024 95.0206C63.8034 95.1016 63.8044 95.1836 63.8054 95.2646C63.8294 95.4226 63.8904 95.5656 63.9884 95.6916C64.0434 95.7466 64.0984 95.8006 64.1534 95.8556C64.2844 95.9546 64.4314 96.0146 64.5944 96.0346C64.7184 96.0546 64.8374 96.0426 64.9524 95.9996C65.0694 95.9766 65.1734 95.9266 65.2664 95.8486C65.3644 95.7776 65.4384 95.6886 65.4884 95.5806C65.5584 95.4796 65.5984 95.3666 65.6094 95.2416C65.6084 95.1606 65.6074 95.0796 65.6064 94.9976Z" fill="#CEBBB6"/>
<path d="M68.5295 92.9556C67.7055 92.9556 67.5375 94.2426 68.3715 94.2426C69.1955 94.2426 69.3635 92.9556 68.5295 92.9556Z" fill="#CEBBB6"/>
<path d="M24.6025 20.8256C24.5815 20.6426 24.4555 20.4246 24.3035 20.3186C24.2455 20.2846 24.1865 20.2516 24.1285 20.2176C23.9955 20.1636 23.8584 20.1466 23.7164 20.1666C23.3904 20.1726 23.0495 20.3176 22.8025 20.5256C22.6775 20.6306 22.5525 20.7536 22.4635 20.8926C22.3185 21.1196 22.2525 21.2856 22.1895 21.5456C22.1105 21.8726 22.1695 22.2386 22.2925 22.5466C22.4135 22.8516 22.6475 23.1565 22.9265 23.3325C23.1125 23.4505 23.3325 23.5396 23.5595 23.4956C23.7605 23.4566 23.9954 23.3566 24.1054 23.1726C24.1624 23.0786 24.2245 22.9835 24.2665 22.8805C24.2825 22.8415 24.2895 22.7986 24.3015 22.7566C24.4655 22.4616 24.5745 22.1416 24.6195 21.8056C24.6615 21.4796 24.6395 21.1506 24.6025 20.8256Z" fill="#FFE7C5"/>
</svg>
