<svg width="140" height="227" viewBox="0 0 140 227" fill="none" xmlns="http://www.w3.org/2000/svg">
<path d="M36.0343 89.3644C34.4493 89.4844 32.8873 89.8614 31.4133 90.4564C31.0653 90.5264 30.7193 90.6084 30.3763 90.6974C30.2933 90.7194 30.2103 90.7364 30.1283 90.7604C29.6183 90.8994 29.1123 91.0514 28.6143 91.2274C27.8603 91.4944 27.0863 91.7894 26.3903 92.1864C25.7043 92.5774 25.3283 93.4964 26.0603 94.0764C26.1433 94.1424 26.2443 94.1774 26.3383 94.2244C26.4443 94.5824 26.6493 94.8364 26.9223 95.0074C27.2533 95.4684 27.8683 95.6584 28.4633 95.6434C29.8133 95.6094 31.1863 95.2204 32.3793 94.5944C33.2363 94.1454 34.0123 93.5664 34.7013 92.8964C35.5033 92.2794 36.2353 91.5774 36.8643 90.7714C37.3653 90.1284 36.7713 89.3084 36.0343 89.3644Z" fill="#FFE7C5"/>
<path d="M67.1683 76.9174C88.2413 68.5744 104.603 49.2434 109.349 27.0814C110.497 21.7194 110.987 16.0384 109.287 10.8254C107.587 5.61238 103.307 0.972384 97.8883 0.140384C92.1643 -0.738616 86.6403 2.64239 82.4023 6.58939C73.8153 14.5864 68.1473 25.3494 64.8093 36.5984C61.4703 47.8474 60.3353 59.6304 59.7693 71.3504C56.4513 58.1554 47.5393 46.4634 35.6953 39.7674C30.5653 36.8664 24.5833 34.8474 18.8063 36.0144C9.53828 37.8864 3.68428 47.2664 1.26728 56.4074C-0.158721 61.8014 -0.745713 67.7104 1.47529 72.8284C4.74329 80.3634 13.2483 84.2754 21.3723 85.4794C29.4963 86.6834 37.8333 85.8634 45.9283 87.2534C38.1103 94.5344 32.0353 103.674 28.3493 113.701C27.2993 116.556 26.4393 119.708 27.3853 122.599C28.9873 127.494 35.0723 129.448 40.1903 128.875C47.0413 128.108 53.2223 124.169 57.9883 119.189C62.7543 114.209 66.2923 108.206 69.7863 102.263C75.9113 110.175 85.4303 115.174 95.3443 116.526C105.258 117.878 115.494 115.732 124.434 111.24C130.651 108.116 136.659 103.37 138.493 96.6584C140.009 91.1104 138.332 85.0064 134.936 80.3644C131.54 75.7224 126.593 72.4104 121.355 70.0354C109.762 64.7794 96.2753 63.8284 84.0593 67.4054" fill="#FFE7C5"/>
<path d="M79.3972 187.352C87.7432 176.375 98.7842 167.812 108.718 158.249C118.653 148.685 127.844 137.46 130.808 123.993C131.323 121.652 131.408 118.705 129.394 117.405C128.128 116.588 126.482 116.764 125.004 117.055C110.799 119.845 98.9052 130.446 92.2292 143.291C85.5532 156.136 83.6092 170.999 84.1222 185.467C93.8862 177.273 101.56 167.215 110.07 157.725C118.58 148.235 125.328 136.575 126.33 123.868C126.514 121.54 126.331 118.828 124.456 117.436C122.231 115.784 119.082 116.986 116.68 118.369C105.539 124.784 96.2532 134.378 90.2052 145.722C84.1572 157.066 81.3662 170.123 82.2492 182.948C91.8552 175.803 101.287 168.008 109.517 159.315C117.748 150.621 124.556 140.26 127.382 128.627C128.012 126.036 128.3 122.922 126.388 121.063C124.373 119.105 121.051 119.651 118.439 120.687C111.884 123.287 106.371 128.082 102.011 133.625C97.6522 139.168 94.3612 145.465 91.2862 151.812C86.5202 161.649 82.1382 171.99 81.6302 182.91" fill="#CEBBB6"/>
<path d="M94.5234 134.317C94.4044 133.526 93.7573 132.764 92.9393 132.662C92.4993 132.465 91.9844 132.466 91.5244 132.76C91.5094 132.769 91.5003 132.785 91.4863 132.795C91.1733 132.963 90.8984 133.208 90.7084 133.508C90.3114 134.134 90.1474 134.881 90.1914 135.618L90.1924 135.621C90.0854 136.07 90.0234 136.531 90.1194 136.954C90.2174 137.389 90.4304 137.78 90.8084 138.033C90.9034 138.097 91.0044 138.149 91.1094 138.192C91.4224 138.39 91.7974 138.474 92.1784 138.419C93.1154 138.284 93.6054 137.465 93.9934 136.694C94.1844 136.315 94.3423 135.892 94.4233 135.46C94.5263 135.086 94.5814 134.702 94.5234 134.317Z" fill="#CEBBB6"/>
<path d="M96.6482 131.959C96.6252 131.841 96.5742 131.734 96.4942 131.64C96.4382 131.584 96.3822 131.529 96.3262 131.473C96.2572 131.433 96.1872 131.393 96.1182 131.353C96.0012 131.3 95.8792 131.279 95.7532 131.292C95.7472 131.292 95.7422 131.295 95.7362 131.295C95.7332 131.295 95.7312 131.294 95.7292 131.294C95.6882 131.291 95.6482 131.291 95.6082 131.296C95.5692 131.3 95.5312 131.31 95.4942 131.328C95.4732 131.331 95.4572 131.346 95.4372 131.352C95.4242 131.357 95.4102 131.353 95.3972 131.36C95.3792 131.369 95.3612 131.378 95.3432 131.387C95.3262 131.393 95.3072 131.394 95.2912 131.402C95.2872 131.404 95.2822 131.407 95.2782 131.409C95.2692 131.414 95.2612 131.418 95.2522 131.423C95.1802 131.464 95.1082 131.506 95.0382 131.55C94.9802 131.608 94.9232 131.667 94.8652 131.725C94.8242 131.797 94.7822 131.869 94.7412 131.941C94.7392 131.945 94.7372 131.949 94.7352 131.952C94.6802 132.074 94.6592 132.199 94.6712 132.329C94.6612 132.456 94.6842 132.579 94.7402 132.697C94.7822 132.767 94.8232 132.838 94.8652 132.908C94.9402 133.011 95.0342 133.089 95.1472 133.142C95.2162 133.194 95.2932 133.226 95.3792 133.236C95.5022 133.28 95.6292 133.29 95.7612 133.266C95.8412 133.243 95.9202 133.221 96.0002 133.198C96.0782 133.164 96.1302 133.097 96.1952 133.046C96.2002 133.055 96.2062 133.064 96.2112 133.073C96.2462 133.043 96.2672 133.018 96.3072 132.977C96.3322 132.952 96.3502 132.93 96.3712 132.908C96.3742 132.904 96.3802 132.903 96.3832 132.899C96.4222 132.857 96.4612 132.814 96.5002 132.772C96.5402 132.703 96.5802 132.633 96.6202 132.564C96.6732 132.447 96.6942 132.325 96.6812 132.199C96.6922 132.116 96.6802 132.036 96.6482 131.959Z" fill="#CEBBB6"/>
<path d="M100.3 174.525C99.9173 174.022 99.2692 173.99 98.7132 174.156C98.4682 174.229 98.2372 174.35 98.0122 174.485C97.9092 174.527 97.8092 174.574 97.7122 174.626C97.6462 174.637 97.5792 174.662 97.5122 174.704C95.9952 175.674 94.8072 177.188 94.3082 178.93C94.2482 179.139 94.2362 179.356 94.2492 179.568C94.2462 180.01 94.4043 180.418 94.8823 180.693C95.8103 181.226 96.8582 180.526 97.5872 179.97C98.3332 179.4 99.0052 178.707 99.5452 177.939C99.9522 177.36 100.385 176.646 100.42 175.932C100.602 175.466 100.62 174.944 100.3 174.525Z" fill="#CEBBB6"/>
<path d="M102.933 172.944C102.947 172.824 102.931 172.708 102.883 172.596L102.795 172.448C102.722 172.355 102.631 172.286 102.522 172.24C102.408 172.191 102.272 172.175 102.149 172.192C102.038 172.208 101.908 172.259 101.821 172.332C101.712 172.424 101.665 172.487 101.605 172.616C101.577 172.676 101.565 172.743 101.554 172.807C101.554 172.81 101.553 172.814 101.553 172.817C101.55 172.88 101.552 172.944 101.555 173.007C101.562 173.127 101.627 173.245 101.695 173.339C101.731 173.389 101.782 173.433 101.828 173.472C101.83 173.474 101.833 173.476 101.835 173.478C101.883 173.51 101.933 173.543 101.986 173.565C102.121 173.621 102.192 173.615 102.334 173.608C102.389 173.592 102.443 173.577 102.498 173.561C102.579 173.529 102.647 173.481 102.701 173.416C102.746 173.38 102.78 173.336 102.802 173.283C102.819 173.258 102.82 173.225 102.832 173.198C102.849 173.17 102.876 173.15 102.888 173.117L102.933 172.944Z" fill="#CEBBB6"/>
<path d="M82.0473 157.563C81.9163 156.749 81.7073 155.946 81.4493 155.163C81.2363 154.239 80.9183 153.349 80.5303 152.549C80.0483 151.557 79.3993 150.387 78.5273 149.683C78.3153 149.512 78.0713 149.387 77.8173 149.328C77.1113 148.731 76.2803 148.418 75.4653 149.146C74.4713 150.034 74.7063 151.802 74.8663 153.001C74.8263 153.312 74.8043 153.619 74.7993 153.9C74.7723 155.368 75.0643 156.839 75.7053 158.165C76.2523 159.295 77.0733 160.552 78.2613 161.09C78.3863 161.189 78.5173 161.278 78.6573 161.353C79.1063 161.595 79.6003 161.658 80.0573 161.575C80.3173 161.609 80.5813 161.609 80.8433 161.524C81.6033 161.278 82.0433 160.616 82.1703 159.848C82.2933 159.109 82.1653 158.295 82.0473 157.563Z" fill="#CEBBB6"/>
<path d="M74.3213 152.271C74.2883 152.036 74.2163 151.797 74.1303 151.563C74.1343 151.287 74.0883 151.011 73.9603 150.748C73.7733 150.366 73.4693 150.03 73.0683 149.867C72.6033 149.678 72.1133 149.759 71.6993 150.024C71.3853 150.225 71.1423 150.579 71.0353 150.933C70.9513 151.21 70.9353 151.482 70.9573 151.753C70.9533 151.919 70.9613 152.085 70.9773 152.247C71.0083 152.563 71.0783 152.904 71.2263 153.187C71.4093 153.536 71.6853 153.836 72.0433 153.98C72.2153 154.098 72.4113 154.184 72.6383 154.221C73.1553 154.307 73.6663 154.064 73.9833 153.661C74.2923 153.27 74.3873 152.755 74.3213 152.271Z" fill="#CEBBB6"/>
<path d="M91.0003 119.085C90.6033 117.574 89.0303 116.655 87.6783 116.102C86.9753 115.814 86.2323 115.589 85.4653 115.634C85.2283 115.648 85.0003 115.714 84.7813 115.805C84.7503 115.809 84.7193 115.819 84.6883 115.824C84.3633 115.778 84.0293 115.824 83.7003 116.016C83.0123 116.417 82.8023 117.219 82.9573 117.957C82.9833 118.329 83.0943 118.698 83.2663 119.054C83.4303 119.626 83.8263 120.139 84.3133 120.534C84.5043 120.722 84.7193 120.875 84.9463 121.008C85.9223 121.724 87.1283 122.145 88.3353 122.111C89.8893 122.065 91.4403 120.761 91.0003 119.085Z" fill="#FFE7C5"/>
<path d="M93.8433 119.307C93.8673 119.33 93.8892 119.356 93.9132 119.379C93.9402 119.406 93.9692 119.432 93.9962 119.458L93.8433 119.307Z" fill="#FFE7C5"/>
<path d="M94.4242 120.343C94.4022 120.18 94.3542 120.011 94.2782 119.865C94.2242 119.761 94.1652 119.655 94.0922 119.562C94.0402 119.495 93.9762 119.438 93.9142 119.379C93.8702 119.334 93.8272 119.286 93.7772 119.248C93.6962 119.185 93.5892 119.13 93.5052 119.085C93.4752 119.069 93.4452 119.055 93.4122 119.044C93.3082 119.008 93.1992 118.98 93.0902 118.961C93.0112 118.962 92.9322 118.963 92.8542 118.964C92.7372 118.977 92.6312 119.017 92.5372 119.084C92.4672 119.115 92.4082 119.161 92.3612 119.222C92.2732 119.297 92.2092 119.39 92.1682 119.5C91.9922 119.897 92.0172 120.33 92.1702 120.728C92.1872 120.772 92.2082 120.815 92.2322 120.856C92.2902 120.957 92.3502 121.073 92.4282 121.165C92.5892 121.356 92.7732 121.512 93.0052 121.61C93.0162 121.615 93.0282 121.611 93.0392 121.616C93.0602 121.629 93.0742 121.653 93.0972 121.664C93.1852 121.725 93.2832 121.76 93.3912 121.769C93.5882 121.784 93.8252 121.749 93.9742 121.607C94.0552 121.529 94.1462 121.45 94.2072 121.354C94.2982 121.21 94.3432 121.107 94.3842 120.948C94.4052 120.867 94.4292 120.788 94.4332 120.704C94.4392 120.585 94.4402 120.462 94.4242 120.343Z" fill="#FFE7C5"/>
<path d="M65.2983 27.1564C65.2443 26.4984 65.0873 25.7834 64.4953 25.4004C64.3933 25.3344 64.2933 25.2834 64.1953 25.2454C64.0633 25.0774 63.8843 24.9724 63.6823 24.9314C63.5513 24.6824 63.2053 24.5594 62.9833 24.8564C62.1313 25.9984 61.4413 27.2414 60.9053 28.5464C60.2213 29.9514 59.7093 31.4324 59.3823 32.9614C59.0893 34.3304 58.5503 36.4314 59.9413 37.3884C60.1063 37.5014 60.2653 37.5744 60.4203 37.6274C60.6723 37.8474 60.9913 38.0014 61.4183 38.0354C63.0723 38.1654 63.8103 35.9034 64.2563 34.6944C64.8443 33.0974 65.2113 31.4064 65.3183 29.7084C65.3713 28.8624 65.3683 28.0034 65.2983 27.1564Z" fill="#FFE7C5"/>
<path d="M61.1503 41.4644C61.0433 41.0314 60.8433 40.6764 60.5043 40.3804C60.4663 40.3464 60.4133 40.3274 60.3703 40.2974C60.1043 40.0094 59.7943 39.8414 59.4143 39.7484C58.8183 39.6024 58.1213 39.8144 57.6713 40.2214C57.1553 40.6884 56.9293 41.3354 56.9953 42.0234C57.0293 42.3724 57.1713 42.7264 57.3803 43.0294C57.4903 43.2284 57.6263 43.4124 57.8123 43.5704C58.0903 43.8064 58.4313 43.9364 58.7843 44.0074C59.5023 44.1524 60.2123 43.8494 60.6883 43.3194C61.1163 42.8474 61.3023 42.0804 61.1503 41.4644Z" fill="#FFE7C5"/>
<path d="M132.721 53.3723C131.038 51.8593 128.647 51.3744 126.472 51.1084C117.981 50.0674 109.616 52.2483 101.836 55.6223C105.875 53.1803 109.758 50.3613 112.62 46.5843C116.491 41.4763 117.524 35.1714 116.892 28.9064C116.568 25.6914 115.858 22.5263 114.993 19.4173C114.22 16.6383 113.271 13.6623 110.539 12.2313C107.982 10.8923 104.727 11.1973 101.96 11.5273C99.1793 11.8593 96.4383 12.5243 93.7993 13.4563C83.1203 17.2303 74.2533 25.4073 68.7553 35.2103C67.7143 37.0663 66.7983 38.9784 65.9783 40.9274C66.0993 37.9104 65.3613 34.8814 64.2183 32.0874C62.7133 28.4074 60.5373 25.0023 58.1593 21.8293C55.8483 18.7473 53.3423 15.4604 49.8293 13.6864C46.5693 12.0404 42.4753 11.9833 39.6683 14.5493C36.7063 17.2563 35.9653 21.3343 35.9433 25.1753C35.9223 29.0123 36.2603 32.8633 36.8723 36.6504C38.0733 44.0854 40.3993 51.3473 43.7213 58.1063C46.4893 63.7393 49.9563 69.0343 54.0223 73.8183C52.1213 72.4613 50.4213 70.7433 48.9303 69.0983C44.6023 64.3243 40.4853 59.3393 36.2883 54.4503C34.1243 51.9293 31.9663 49.4023 29.8053 46.8783C27.8833 44.6333 26.0553 42.1984 23.8513 40.2154C21.8583 38.4234 19.3983 37.3364 16.6823 37.7674C13.9743 38.1984 11.5703 39.8103 9.57729 41.6193C2.33829 48.1893 -0.532688 58.3974 0.421312 67.9354C0.630312 70.0214 1.0223 72.1583 1.6223 74.2363C1.6063 74.2883 1.62328 74.3444 1.66728 74.3884C2.48328 77.1614 3.68331 79.8193 5.42031 82.0663C7.02931 84.1493 9.14128 85.7724 11.6113 86.6984C14.1913 87.6664 16.9663 87.9154 19.7013 87.8874C23.6643 87.8474 27.6613 87.4383 31.6093 86.8093C31.2423 86.9123 30.8783 87.0263 30.5103 87.1273C25.2013 88.5943 19.8393 89.8063 14.5013 91.1493C12.1873 91.7313 9.8163 92.5183 8.0313 94.1703C6.4193 95.6623 5.35129 97.6994 5.54729 99.9394C5.74929 102.245 7.23331 104.227 8.77831 105.847C10.4203 107.568 12.2063 109.181 14.0513 110.682C17.6933 113.645 21.8743 116.201 26.5633 117.016C32.3443 118.021 37.7513 115.957 42.4323 112.671C41.9753 114.273 42.5693 116.14 43.6853 117.373C45.4803 119.356 48.2443 120.076 50.7453 120.7C53.6853 121.434 56.6903 121.917 59.7113 122.147C62.2053 122.337 64.7493 122.389 67.2163 121.91C69.4603 121.474 71.6683 120.586 73.3153 118.956C75.1003 117.189 75.9973 114.759 76.1463 112.277C76.3143 109.489 75.5863 106.769 74.5993 104.185C73.4803 101.255 72.1813 98.3863 70.9503 95.5013C70.4243 94.2693 69.8943 93.0393 69.3663 91.8083C70.4973 93.6373 71.5903 95.4894 72.5993 97.3964C74.6313 101.239 76.3613 105.233 77.8403 109.319C80.8403 117.608 82.7073 126.282 83.7133 135.031C84.7563 144.11 84.7913 153.273 84.0823 162.379C83.3963 171.19 82.0163 179.931 80.2263 188.582C80.2203 188.556 80.2163 188.53 80.2093 188.504C80.0353 187.816 79.8473 187.111 79.5753 186.454C79.2963 185.778 78.9373 185.123 78.6023 184.474C78.4973 184.271 78.3033 184.216 78.1303 184.251C78.1223 184.235 78.1153 184.219 78.1073 184.203C76.7103 178.765 74.8843 173.425 72.7763 168.265C69.2073 159.528 64.5433 151.23 59.0083 143.588C55.8683 139.252 52.4373 135.131 48.7443 131.255C48.3483 130.839 47.6903 131.101 47.7303 131.69C48.3353 140.62 50.6823 149.441 54.4753 157.543C56.3723 161.594 58.6503 165.468 61.2653 169.097C63.9463 172.817 67.0063 176.187 70.2983 179.372C74.1013 183.052 78.2223 187.064 78.9933 192.564C79.0193 192.752 79.1083 192.882 79.2183 192.979C79.2283 193.03 79.2393 193.081 79.2493 193.131C77.0773 202.819 74.3933 212.365 71.7863 221.942C71.4643 223.124 71.2533 224.335 70.9973 225.532C70.8623 226.165 71.8663 226.413 72.0913 225.819C73.9093 221.007 75.2773 216.053 76.6353 211.093C77.9933 206.132 79.2813 201.152 80.4513 196.143C81.5433 191.47 82.5193 186.765 83.3543 182.035C83.4733 181.842 83.5953 181.652 83.7163 181.461C83.7273 181.446 83.7373 181.43 83.7463 181.413C88.2643 174.31 94.5763 168.455 100.446 162.501C103.745 159.154 106.988 155.729 109.807 151.961C112.805 147.954 115.292 143.559 117.202 138.934C119.364 133.699 120.749 128.139 121.357 122.51C121.397 122.143 121.059 121.741 120.663 121.833C120.178 121.945 119.7 122.074 119.223 122.209C119.006 122.068 118.72 122.065 118.538 122.353C118.522 122.379 118.506 122.404 118.49 122.43C110.302 124.967 103.318 130.83 98.1573 137.547C92.2443 145.243 88.5173 154.365 86.0783 163.699C85.9063 164.359 85.7553 165.026 85.5933 165.689C86.4653 156.417 86.5993 147.076 85.7053 137.8C84.8503 128.932 83.0533 120.14 80.1583 111.709C77.6323 104.354 74.2623 97.2043 69.8893 90.7523C73.8053 95.1193 78.2723 99.0043 83.0983 102.305C87.2113 105.118 91.6723 107.783 96.4123 109.382C101.11 110.968 106.088 111.116 110.561 108.778C114.626 106.654 117.788 103.174 120.656 99.6703C122.159 97.8333 123.886 95.9233 124.654 93.6353C125.41 91.3863 124.88 89.1703 123.162 87.5373C121.529 85.9863 119.26 85.1403 117.172 84.4073C114.881 83.6033 112.514 83.0104 110.124 82.5824C106.043 81.8524 101.883 81.6443 97.7373 81.5963C97.9413 81.5693 98.1473 81.5474 98.3513 81.5184C107.887 80.1674 117.369 76.7914 124.939 70.7124C126.784 69.2304 128.504 67.5854 130.055 65.7984C131.623 63.9924 133.248 61.9773 134.052 59.6963C134.844 57.4543 134.553 55.0193 132.721 53.3723ZM64.7433 154.503C69.3663 162.481 73.1673 170.949 75.8963 179.761C75.0053 178.057 74.0913 176.365 73.1923 174.669C71.3123 171.122 69.3853 167.601 67.4353 164.092C63.5743 157.148 59.6453 150.238 55.6713 143.358C54.1973 140.806 52.7453 138.225 51.2313 135.688C56.3273 141.506 60.8663 147.811 64.7433 154.503ZM68.1633 175.344C66.6153 173.719 65.1483 172.019 63.7643 170.252C58.2313 163.188 54.0043 155.033 51.4883 146.417C50.4563 142.883 49.7453 139.263 49.2913 135.61C49.6873 136.545 50.0983 137.474 50.5003 138.4C51.3793 140.422 52.2963 142.428 53.2283 144.426C55.1073 148.456 57.0683 152.451 59.1013 156.406C63.1543 164.29 67.6003 171.972 72.3663 179.445C72.3893 179.481 72.4123 179.516 72.4353 179.552C70.9993 178.161 69.5423 176.792 68.1633 175.344ZM74.5063 180.539C72.0523 176.837 69.6753 173.086 67.3883 169.28C62.7893 161.625 58.5023 153.766 54.6603 145.704C53.5783 143.434 52.5263 141.15 51.5033 138.853C50.6753 136.993 49.9023 135.093 49.0323 133.248C49.1103 133.333 49.1853 133.419 49.2623 133.504C50.9683 136.542 52.7943 139.519 54.5353 142.536C56.5193 145.974 58.5083 149.412 60.4163 152.893C64.2303 159.852 67.9183 166.876 71.5953 173.908C73.5193 177.587 75.3373 181.333 77.3613 184.957C77.3633 184.965 77.3653 184.972 77.3673 184.98C76.4423 183.48 75.4793 182.006 74.5063 180.539ZM119.12 123.549C119.274 123.502 119.429 123.456 119.582 123.407C118.228 131.106 113.644 137.868 109.151 144.08C106.564 147.657 104.003 151.248 101.384 154.803C98.7073 158.437 96.0373 162.075 93.3603 165.708C92.2783 167.177 91.1953 168.646 90.1123 170.115C90.2583 169.883 90.4033 169.65 90.5493 169.418C92.8973 165.691 95.2763 161.983 97.6053 158.244C102.267 150.761 106.915 143.27 111.556 135.774C114.079 131.701 116.638 127.647 119.12 123.549ZM86.6993 166.109C87.8943 161.152 89.4253 156.265 91.4423 151.577C94.9183 143.498 100.005 135.921 106.855 130.324C109.076 128.509 111.501 126.9 114.078 125.601C112.558 126.883 111.153 128.301 109.848 129.8C107.128 132.927 104.865 136.441 102.723 139.98C97.9203 147.916 92.8253 155.689 88.9143 164.124C87.4953 167.183 86.2433 170.326 85.1613 173.524C85.6153 171.042 86.1063 168.567 86.6993 166.109ZM95.0583 153.701C97.3613 149.661 99.8083 145.706 102.267 141.759C104.436 138.277 106.74 134.84 109.336 131.66C110.775 129.897 112.293 128.205 113.996 126.691C115.017 125.783 116.097 124.987 117.199 124.216C117.276 124.186 117.352 124.152 117.43 124.124C113.099 130.994 108.886 137.942 104.612 144.847C99.9693 152.349 95.3833 159.884 90.7993 167.422C89.5013 169.556 88.2043 171.69 86.9063 173.824C86.2603 174.887 85.6423 175.965 85.0273 177.046C87.0783 168.799 90.8663 161.056 95.0583 153.701ZM84.6633 178.557C85.0863 177.924 85.5103 177.29 85.9343 176.657C86.9263 175.364 87.8663 174.023 88.8303 172.718C90.1833 170.886 91.5363 169.055 92.8903 167.223C95.6213 163.527 98.3593 159.836 101.091 156.14C103.746 152.547 106.411 148.966 109.123 145.416C111.526 142.271 113.792 138.983 115.747 135.54C117.251 132.892 118.486 130.143 119.387 127.269C117.761 135.558 114.362 143.503 109.437 150.368C104.006 157.937 96.8753 164.039 90.6593 170.923C88.4453 173.375 86.4163 175.962 84.6283 178.714C84.6373 178.661 84.6523 178.61 84.6633 178.557ZM120.454 52.5803C121.775 52.5093 123.121 52.5013 124.46 52.5793C117.846 58.0453 110.604 62.7834 102.903 66.5644C94.7483 70.5684 86.0803 73.5103 77.1803 75.3354C74.6773 75.8493 72.1643 76.2283 69.6453 76.5533C69.6663 76.3793 69.6943 76.2063 69.7373 76.0333C69.9323 75.2473 70.3813 74.5053 70.9583 73.8873C71.0913 73.7993 71.2253 73.7124 71.3593 73.6254C73.1493 72.7974 74.9083 71.9073 76.6343 71.0033C81.3073 68.5553 85.8313 65.8383 90.4243 63.2473C99.6853 58.0273 109.655 53.1633 120.454 52.5803ZM112.953 43.5513C110.205 48.3144 105.641 51.6834 101.026 54.4924C95.3593 57.9414 89.4463 61.0084 83.6483 64.2294C80.1753 66.1584 76.7053 68.0924 73.2413 70.0383C73.0633 69.8603 72.8003 69.7824 72.5003 69.9364C70.5433 70.9434 68.5893 71.9573 66.6293 72.9583C66.6183 72.9643 66.6063 72.9704 66.5953 72.9754C66.5293 73.0024 66.4623 73.0274 66.3943 73.0513C72.8693 67.9574 79.3093 62.8193 85.7473 57.6783C89.5233 54.6623 93.3193 51.6733 97.1003 48.6633C100.505 45.9524 103.938 43.2823 107.161 40.3523C110.269 37.5263 113.186 34.4703 115.617 31.0403C115.809 35.3753 115.165 39.7183 112.953 43.5513ZM109.992 13.5553C111.213 14.2153 112.01 15.3633 112.562 16.6063C113.17 17.9763 113.545 19.4484 113.924 20.8934C114.316 22.3864 114.665 23.8914 114.947 25.4104C115.191 26.7224 115.381 28.0583 115.502 29.4004C110.884 36.4333 104.293 41.7303 97.8723 47.0363C90.4213 53.1933 82.8853 59.2483 75.3413 65.2903C72.0473 67.9283 68.7563 70.5694 65.4693 73.2164C65.3673 73.2114 65.2673 73.1954 65.1683 73.1684C70.9033 66.5234 76.3743 59.6383 81.7423 52.7013C88.0733 44.5203 94.2073 36.1814 100.01 27.6164C103.209 22.8934 106.33 18.1173 109.378 13.2953C109.585 13.3773 109.795 13.4483 109.992 13.5553ZM105.78 12.7093C106.651 12.7123 107.544 12.7874 108.402 12.9874C103.003 21.5234 97.3723 29.9174 91.5403 38.1634C85.5633 46.6133 79.3673 54.8983 72.8813 62.9643C70.1873 66.3143 67.4343 69.6153 64.6813 72.9163C64.6473 72.8873 64.6243 72.8473 64.5933 72.8163C68.0263 64.7503 71.9493 56.8823 76.3843 49.3223C81.3883 40.7913 87.2543 32.7043 93.5533 25.0853C97.0753 20.8253 100.751 16.7004 104.613 12.7464C105.002 12.7314 105.391 12.7073 105.78 12.7093ZM67.7723 40.3943C72.2993 30.2043 80.1173 21.3974 90.2303 16.5084C94.0943 14.6404 98.3453 13.3203 102.652 12.8823C96.0803 19.7083 90.0013 27.0164 84.5963 34.8024C81.7263 38.9364 79.0763 43.2203 76.5013 47.5423C73.9663 51.7973 71.5643 56.1434 69.4033 60.6004C67.5353 64.4534 65.8123 68.3723 64.2213 72.3463C63.9273 71.8593 63.7423 71.2734 63.5633 70.7764C62.9333 69.0194 62.4933 67.1974 62.2323 65.3494C62.2923 64.0604 62.3693 62.7733 62.4883 61.4893C63.0733 59.9483 63.3743 58.2753 63.6133 56.6583C63.8623 54.9743 64.0153 53.2754 64.0713 51.5734C64.9583 47.7474 66.1693 44.0013 67.7723 40.3943ZM55.3723 20.4853C60.0373 26.3033 64.4623 32.8673 65.0413 40.5163C65.1063 41.3733 65.1293 42.2364 65.1153 43.0954C64.6963 44.2114 64.3173 45.3413 63.9643 46.4803C63.8113 44.3473 63.5373 42.2223 63.1093 40.1263C61.7763 33.5953 59.0703 27.4014 55.2413 21.9494C53.4693 19.4264 51.4393 16.9984 49.1543 14.8964C51.6503 16.1354 53.6443 18.3303 55.3723 20.4853ZM46.6043 14.0304C47.1483 14.1304 47.6653 14.2893 48.1683 14.4763C50.3043 16.6133 52.3453 18.8044 54.1253 21.2584C56.0013 23.8434 57.6053 26.6193 58.9223 29.5293C61.7883 35.8613 63.2043 42.7973 63.0423 49.7473C63.0423 49.7513 63.0413 49.7554 63.0413 49.7584C62.2803 52.7554 61.7183 55.8073 61.3373 58.8853C61.3323 58.8933 61.3273 58.9023 61.3223 58.9113C61.3013 58.2863 61.2823 57.6613 61.2463 57.0373C61.0233 53.2343 60.5253 49.4473 59.7623 45.7154C58.2343 38.2444 55.6983 30.9993 52.1413 24.2513C50.2363 20.6373 48.0453 17.1813 45.5963 13.9113C45.9343 13.9323 46.2713 13.9694 46.6043 14.0304ZM41.5363 14.8563C42.4243 14.2903 43.4253 14.0003 44.4513 13.9173C44.4593 13.9303 44.4603 13.9444 44.4713 13.9574C49.0563 19.9724 52.7213 26.6124 55.4463 33.6634C58.1713 40.7134 59.8743 48.1354 60.4943 55.6684C60.6723 57.8334 60.7623 60.0063 60.7573 62.1793C60.7523 64.2633 60.5413 66.3473 60.5733 68.4283C60.5743 68.5243 60.6343 68.5674 60.7033 68.5874C60.6983 69.0614 60.6813 69.5363 60.6833 70.0103C54.8133 56.2783 49.1233 42.4593 43.8453 28.4893C43.0393 26.3553 42.2403 24.2193 41.4493 22.0793C40.8023 20.3313 40.2093 18.5464 39.5073 16.8144C40.0683 16.0504 40.7343 15.3673 41.5363 14.8563ZM39.1703 17.4453C39.6133 18.7693 40.1183 20.0773 40.5923 21.3863C41.2873 23.3013 41.9883 25.2144 42.6943 27.1254C44.1073 30.9474 45.5253 34.7673 46.9753 38.5753C49.8883 46.2293 52.8873 53.8504 56.0073 61.4224C57.2703 64.4864 58.5613 67.5363 59.8633 70.5833C55.8993 65.0253 52.2973 59.2094 49.1633 53.1434C47.3503 49.6334 45.6853 46.0474 44.1743 42.3964C42.6053 38.6054 41.1153 34.7393 40.0643 30.7693C38.9103 26.4093 38.4203 21.9103 39.1703 17.4453ZM52.4073 69.5614C50.2623 66.7224 48.3193 63.7304 46.6053 60.6124C43.1643 54.3534 40.5983 47.6063 39.0543 40.6313C38.2793 37.1323 37.7563 33.5773 37.5003 30.0023C37.2333 26.2773 36.9213 22.1223 38.4573 18.6183C38.5113 18.4943 38.5763 18.3743 38.6363 18.2533C37.1393 25.8123 39.9873 33.7614 42.6413 40.7454C45.5283 48.3434 49.0853 55.6964 53.2813 62.6594C55.5943 66.4974 58.0963 70.2153 60.7793 73.8033C60.8103 74.4683 60.8453 75.1334 60.8853 75.7984C60.8683 75.8264 60.8603 75.8593 60.8483 75.8903C60.7633 75.9263 60.6783 75.9633 60.5923 75.9994C60.3743 76.0904 60.1523 76.1734 59.9333 76.2624C59.9043 76.2683 59.8793 76.2593 59.8493 76.2703C59.8353 76.2753 59.8223 76.2794 59.8083 76.2833C59.0853 76.1853 58.3813 76.0153 57.6993 75.7773C57.0633 75.0993 56.4243 74.4223 55.8083 73.7233C54.6223 72.3783 53.4873 70.9904 52.4073 69.5614ZM14.8193 39.5983C17.4093 38.4943 20.0443 38.7553 22.2893 40.4723C24.5153 42.1743 26.2353 44.5614 28.0413 46.6774C30.1443 49.1414 32.2473 51.6054 34.3503 54.0694C38.4983 58.9304 42.6033 63.8283 46.7603 68.6823C48.9233 71.2083 51.3533 73.8554 54.2343 75.6774C48.6563 74.1444 43.4203 71.4123 38.7533 67.9933C32.1403 63.1473 26.7053 57.0543 21.9203 50.4323C20.5503 48.5353 19.2313 46.6024 17.9453 44.6474C17.2923 43.6544 16.6563 42.6493 16.0073 41.6543C15.5773 40.9943 15.1683 40.3014 14.7093 39.6514C14.7473 39.6344 14.7823 39.6143 14.8193 39.5983ZM8.7133 44.3024C10.2693 42.5534 12.1113 40.9173 14.2313 39.8773C14.5413 40.4503 14.8943 41.0023 15.2273 41.5593C15.7813 42.4853 16.3563 43.3973 16.9353 44.3083C18.0713 46.0973 19.2333 47.8704 20.4343 49.6164C22.8483 53.1264 25.4223 56.5323 28.2503 59.7213C33.5893 65.7403 39.7613 70.9884 47.0833 74.4354C49.9413 75.7813 52.9553 76.8113 56.0443 77.4853C55.4263 77.6733 54.8093 77.8643 54.1883 78.0424C53.7603 77.9783 53.3313 77.9244 52.9043 77.8544C50.8883 77.5264 48.8823 77.1343 46.8913 76.6793C42.9653 75.7833 39.1003 74.6314 35.3113 73.2674C27.7043 70.5284 20.4043 66.8644 13.6763 62.3804C9.98829 59.9224 6.53131 57.1723 3.10131 54.3723C4.2683 50.6793 6.1173 47.2224 8.7133 44.3024ZM2.17031 70.6313C1.20431 65.4553 1.42728 59.9454 2.94328 54.8584C5.68929 57.5594 8.71031 59.9803 11.8393 62.2223C15.1393 64.5873 18.5843 66.7644 22.1543 68.6984C29.3703 72.6074 37.0533 75.6034 45.0083 77.6164C46.9653 78.1114 48.9393 78.5343 50.9233 78.9073C50.1823 79.0853 49.4383 79.2513 48.6893 79.4023C44.9313 80.1593 41.0783 80.5553 37.2503 80.7133C29.5413 81.0313 21.7753 80.2184 14.2983 78.3104C12.1523 77.7624 10.0343 77.1134 7.94029 76.3924C6.94629 76.0504 5.9613 75.6834 4.9793 75.3064C4.3793 75.0764 3.77431 74.8604 3.17031 74.6424C2.75031 73.3094 2.41731 71.9543 2.17031 70.6313ZM3.3853 75.2844C3.6983 75.4384 4.00931 75.5954 4.33431 75.7334C5.23531 76.1154 6.14629 76.4714 7.06429 76.8114C8.89829 77.4914 10.7623 78.0893 12.6453 78.6193C16.4103 79.6793 20.2523 80.4654 24.1323 80.9624C31.5913 81.9164 39.1923 81.8144 46.6253 80.6644C45.0203 81.0504 43.4043 81.3944 41.7813 81.6864C34.4183 83.0114 26.9063 83.5053 19.4333 83.1353C15.2503 82.9283 11.1243 82.3463 6.97231 81.8423C5.34731 79.9693 4.2023 77.6754 3.3853 75.2844ZM24.4013 86.2984C19.1613 86.7414 13.1613 87.0294 8.7863 83.5814C8.2743 83.1784 7.8093 82.7293 7.3673 82.2603C10.8853 83.0833 14.5153 83.4734 18.1143 83.7244C21.8173 83.9824 25.5373 84.0194 29.2453 83.8574C36.7523 83.5294 44.2153 82.3184 51.4823 80.4224C51.5113 80.4714 51.5593 80.4983 51.6203 80.5143C50.2453 80.9863 48.8703 81.4624 47.4903 81.9194C45.6743 82.4554 43.8493 82.9633 42.0113 83.4123C36.2303 84.8223 30.3313 85.7964 24.4013 86.2984ZM7.93028 96.4314C9.27428 94.5204 11.4183 93.5133 13.5993 92.8643C16.0953 92.1213 18.6803 91.6384 21.2083 91.0174C23.7683 90.3874 26.3213 89.7273 28.8653 89.0363C36.7513 86.8933 44.6333 84.5404 52.3363 81.7544C53.1363 81.6214 53.9383 81.5013 54.7413 81.3983C53.5783 82.3633 52.4183 83.3323 51.2393 84.2773C48.1543 86.7523 45.0153 89.1693 41.7143 91.3523C35.0903 95.7323 27.7693 99.2654 19.9833 100.977C17.8683 101.442 15.7203 101.777 13.5613 101.951C11.6113 102.108 9.65531 102.09 7.70131 102.07C6.73731 100.229 6.70028 98.1814 7.93028 96.4314ZM17.6603 111.579C15.7803 110.291 14.0223 108.833 12.3393 107.298C10.8193 105.912 9.1913 104.466 8.0753 102.709C11.5083 103.087 15.0883 102.721 18.4523 102.106C22.3683 101.39 26.1953 100.2 29.8693 98.6713C37.2763 95.5893 44.1143 91.1153 50.5063 86.3054C52.3333 84.9304 54.1473 83.5323 55.9243 82.0933C55.9813 82.0463 56.0383 81.9994 56.0963 81.9534C56.6763 82.4664 57.1693 83.0784 57.5613 83.7584C55.2913 87.7594 52.7243 91.5764 49.8063 95.1684C45.3683 100.631 40.0483 105.417 34.3093 109.475C31.3493 111.568 28.2483 113.456 25.0513 115.165C22.4093 114.43 19.9113 113.121 17.6603 111.579ZM30.1593 115.789C28.7283 115.853 27.3223 115.687 25.9473 115.378C31.7373 112.411 37.1203 108.676 41.9903 104.363C47.3153 99.6474 52.0963 94.2793 56.1023 88.3993C56.8273 87.3353 57.5193 86.2514 58.1943 85.1564C58.1963 85.1634 58.1993 85.1693 58.2023 85.1753C56.6373 88.9893 54.6863 92.6474 52.3813 96.0554C48.6163 101.62 43.9173 106.558 38.5233 110.564C35.8713 112.534 33.0533 114.207 30.1653 115.788C30.1633 115.788 30.1613 115.789 30.1593 115.789ZM31.5543 115.652C36.7303 113.017 41.4033 109.311 45.5663 105.323C50.4223 100.67 54.5293 95.1003 57.6373 89.1413C57.9983 88.4483 58.3313 87.7423 58.6583 87.0333C58.7213 87.4483 58.7573 87.8683 58.7793 88.2903C57.1413 92.7753 54.8983 97.0364 52.0683 100.9C49.4263 104.507 46.3173 107.821 42.7703 110.552C39.4923 113.075 35.6883 115.112 31.5543 115.652ZM46.4043 118.051C45.2443 117.473 44.1713 116.63 43.6083 115.437C43.0623 114.282 42.9713 112.901 43.6463 111.78C46.3313 109.721 48.7563 107.297 50.8353 104.866C54.1293 101.015 56.8103 96.6683 58.8583 92.0363C58.9973 92.1863 59.1963 92.2773 59.3923 92.2873C59.2743 92.8303 59.1653 93.3763 59.0283 93.9153C57.5463 99.7483 55.2803 105.35 52.0623 110.448C51.1583 111.88 50.1903 113.273 49.1613 114.617C48.2693 115.783 47.3153 116.896 46.4153 118.055C46.4113 118.054 46.4073 118.053 46.4043 118.051ZM55.1103 120.353C53.5353 120.102 51.9733 119.776 50.4253 119.392C49.2553 119.102 48.0793 118.78 46.9693 118.301C48.9723 116.405 50.6353 114.068 52.1623 111.8C53.8683 109.264 55.3633 106.599 56.6833 103.843C58.8643 99.2883 60.4193 94.4663 61.3263 89.5073C61.3343 91.3843 61.3473 93.2614 61.3873 95.1384C61.5103 100.865 61.7173 106.592 60.9293 112.286C60.5223 115.229 59.7073 118.028 58.7253 120.814C57.5133 120.698 56.3053 120.543 55.1103 120.353ZM69.4353 119.901C67.4683 120.71 65.2983 120.97 63.1853 121.008C61.8853 121.031 60.5783 120.975 59.2753 120.866C60.2523 118.585 60.8313 116.115 61.2463 113.683C61.7153 110.93 61.9703 108.153 62.0973 105.364C62.3633 99.5033 62.5373 93.6393 62.6293 87.7733C62.6733 87.5993 62.7193 87.4263 62.7613 87.2523C62.8213 87.3193 62.9063 87.3624 63.0153 87.3634C63.3183 87.3634 63.6283 87.3944 63.9333 87.4534C64.3373 87.7624 64.7413 88.0713 65.1443 88.3813C65.8343 90.3023 66.4863 92.2373 67.0603 94.1963C68.6033 99.4593 69.7313 104.856 70.3933 110.3C70.7463 113.205 70.9593 116.119 71.0513 119.042C70.5473 119.375 70.0083 119.665 69.4353 119.901ZM71.5553 100.669C72.6683 103.172 73.8493 105.693 74.4333 108.384C74.9403 110.725 74.9763 113.237 74.0423 115.481C73.6063 116.53 72.9633 117.427 72.1693 118.169C71.5073 108.425 69.5673 98.7813 66.3313 89.5663C66.5453 89.8653 66.7543 90.1684 66.9783 90.4604C67.0213 90.5173 67.0703 90.5673 67.1173 90.6193C67.4033 91.2733 67.6873 91.9273 67.9753 92.5803C69.1663 95.2773 70.3573 97.9744 71.5553 100.669ZM112.602 105.939C110.884 107.222 108.964 108.272 106.885 108.832C104.478 109.481 101.977 109.431 99.5483 108.934C94.7553 107.954 90.2613 105.431 86.1513 102.861C79.5523 98.7344 73.6483 93.5853 68.5713 87.7003C68.4413 87.1493 68.3433 86.5804 68.3643 86.0214C72.6713 89.3164 77.2973 92.2263 82.0553 94.7743C88.5833 98.2703 95.5033 101.018 102.631 103.02C106.109 103.997 109.671 104.861 113.253 105.419C113.036 105.594 112.824 105.773 112.602 105.939ZM114.322 104.519C110.91 103.886 107.516 103.247 104.158 102.346C100.617 101.396 97.1263 100.259 93.7043 98.9444C86.9063 96.3314 80.3243 93.0663 74.1943 89.1273C72.2523 87.8793 70.3633 86.5523 68.5033 85.1873C68.5483 85.0483 68.6043 84.9214 68.6673 84.8064C70.1793 85.7774 71.7253 86.6953 73.2683 87.5803C76.6213 89.5033 80.0743 91.2413 83.6063 92.8123C90.6133 95.9283 97.9453 98.3254 105.449 99.9094C109.312 100.724 113.219 101.317 117.147 101.71C116.254 102.694 115.315 103.637 114.322 104.519ZM121.713 96.1713C120.611 97.6794 119.407 99.1284 118.175 100.539C110.695 99.8804 103.288 98.4504 96.0933 96.3014C88.8253 94.1304 81.7903 91.2144 75.1263 87.5904C73.1383 86.5094 71.2183 85.3263 69.3093 84.1263C69.5763 83.9583 69.8873 83.8443 70.2323 83.7703C71.4793 84.3973 72.7223 85.0323 73.9833 85.6313C77.8453 87.4653 81.7803 89.1524 85.8223 90.5514C93.6753 93.2684 101.992 94.8633 110.325 94.4073C114.882 94.1583 119.393 93.2494 123.653 91.6034C123.639 93.2364 122.669 94.8633 121.713 96.1713ZM118.121 86.2403C119.957 86.9543 122.122 87.8603 123.152 89.6573C123.304 89.9233 123.417 90.1924 123.498 90.4624C123.441 90.4674 123.383 90.4704 123.321 90.4954C115.752 93.5424 107.401 94.0903 99.3703 92.9813C91.1133 91.8413 83.2013 88.9884 75.6393 85.5604C74.2393 84.9254 72.8513 84.2633 71.4673 83.5933C73.4443 83.3443 75.4463 83.2063 77.4243 83.0063C77.5643 82.9923 77.6703 82.9323 77.7603 82.8563C81.7913 83.0953 85.8483 83.0643 89.8223 83.0273C99.2873 82.9383 109.154 82.7543 118.121 86.2403ZM130.482 62.9794C129.117 64.8084 127.576 66.5023 125.891 68.0413C119.064 74.2753 110.21 77.9944 101.203 79.7194C91.2193 81.6324 81.1013 81.1623 71.0293 80.4383C71.0033 80.3803 70.9673 80.3233 70.9163 80.2693C70.6243 79.9573 70.3793 79.6084 70.1783 79.2374C77.3693 79.2564 84.6013 78.3764 91.5763 76.8714C101.281 74.7774 110.782 71.3783 119.573 66.7573C122.031 65.4653 124.431 64.0693 126.774 62.5803C128.878 61.2433 131.008 59.8583 132.968 58.3003C132.64 60.0203 131.445 61.6904 130.482 62.9794ZM127.107 61.1363C125.002 62.5103 122.846 63.8033 120.651 65.0283C116.367 67.4193 111.928 69.5353 107.353 71.3053C98.1393 74.8703 88.4123 77.0973 78.5753 77.9893C75.6633 78.2533 72.7423 78.3634 69.8203 78.3924C69.7163 78.0584 69.6543 77.7143 69.6293 77.3643C71.6483 77.0983 73.6573 76.7604 75.6423 76.3884C80.1023 75.5524 84.5083 74.4343 88.8303 73.0533C97.5343 70.2723 105.972 66.4493 113.74 61.6323C118.045 58.9623 122.149 55.9843 126.023 52.7193C126.757 52.8033 127.487 52.9093 128.205 53.0583C130.053 53.4433 132.279 54.2833 132.891 56.2743C132.965 56.5163 133.008 56.7604 133.033 57.0054C131.044 58.3634 129.126 59.8173 127.107 61.1363Z" fill="#5F5C7C"/>
</svg>
